<svg width="44" height="44" viewBox="0 0 44 44" fill="none" xmlns="http://www.w3.org/2000/svg">
<circle cx="22" cy="22" r="22" fill="url(#paint0_linear)"/>
<g filter="url(#filter0_d)">
<path d="M26.8729 21.4082V19.4365C26.8729 16.6717 24.6316 14.4304 21.8668 14.4304C19.1021 14.4304 16.8608 16.6717 16.8608 19.4365V21.4082C16.8608 23.3512 16.0891 25.2142 14.7153 26.588V28.0183H29.0184V26.588C27.6446 25.2142 26.8729 23.3512 26.8729 21.4082Z" fill="white"/>
<path d="M21.8666 31.5939C23.0517 31.5939 24.0121 30.6335 24.0121 29.4485H19.7212C19.7212 30.6335 20.6816 31.5939 21.8666 31.5939Z" fill="white"/>
<path d="M23.2971 15.8606H20.4365V14.4303C20.4365 13.6401 21.0766 13 21.8668 13C22.6571 13 23.2971 13.6401 23.2971 14.4303V15.8606Z" fill="white"/>
<path d="M29.0184 28.0182C29.4133 28.0182 29.7335 27.698 29.7335 27.303C29.7335 26.9081 29.4133 26.5879 29.0184 26.5879C28.6234 26.5879 28.3032 26.9081 28.3032 27.303C28.3032 27.698 28.6234 28.0182 29.0184 28.0182Z" fill="white"/>
<path d="M14.7152 28.0182C15.1101 28.0182 15.4303 27.698 15.4303 27.303C15.4303 26.9081 15.1101 26.5879 14.7152 26.5879C14.3202 26.5879 14 26.9081 14 27.303C14 27.698 14.3202 28.0182 14.7152 28.0182Z" fill="white"/>
</g>
<circle cx="36" cy="6" r="5" fill="#E32E2E"/>
<defs>
<filter id="filter0_d" x="13" y="13" width="23.7335" height="26.5939" filterUnits="userSpaceOnUse" color-interpolation-filters="sRGB">
<feFlood flood-opacity="0" result="BackgroundImageFix"/>
<feColorMatrix in="SourceAlpha" type="matrix" values="0 0 0 0 0 0 0 0 0 0 0 0 0 0 0 0 0 0 127 0" result="hardAlpha"/>
<feOffset dx="3" dy="4"/>
<feGaussianBlur stdDeviation="2"/>
<feComposite in2="hardAlpha" operator="out"/>
<feColorMatrix type="matrix" values="0 0 0 0 0.733333 0 0 0 0 0.627379 0 0 0 0 0.406389 0 0 0 0.26 0"/>
<feBlend mode="normal" in2="BackgroundImageFix" result="effect1_dropShadow"/>
<feBlend mode="normal" in="SourceGraphic" in2="effect1_dropShadow" result="shape"/>
</filter>
<linearGradient id="paint0_linear" x1="6.66071e-08" y1="18.9655" x2="41.1453" y2="18.8541" gradientUnits="userSpaceOnUse">
<stop stop-color="#C69C46"/>
<stop offset="1" stop-color="#E9C67E"/>
</linearGradient>
</defs>
</svg>
