<svg width="56" height="42" viewBox="0 0 56 42" fill="none" xmlns="http://www.w3.org/2000/svg">
<path d="M5.93193 32.0906L5.92803 32.0906C5.29944 32.0919 4.68634 31.8641 4.19789 31.4408L3.543 32.1966L4.19789 31.4408C3.70874 31.0169 3.37576 30.4234 3.26542 29.7623C3.15505 29.1009 3.27601 28.4222 3.6034 27.8477C3.84276 27.4278 4.18006 27.0851 4.57712 26.8469C5.14356 26.5071 5.69464 25.8584 5.69464 24.9875V17.3999L6.0075 17.6592L6.15204 25.0218C6.16884 25.8775 6.71471 26.5092 7.27376 26.8415C7.67476 27.0798 8.01537 27.4246 8.25656 27.8477C8.58395 28.4222 8.70491 29.1009 8.59454 29.7623C8.4842 30.4234 8.15122 31.0169 7.66207 31.4408C7.17362 31.8641 6.56052 32.0919 5.93193 32.0906ZM28.1661 40.8157L13.1067 31.2679L13.1067 21.7225L27.0521 29.2614C27.6402 29.5793 28.3482 29.5823 28.939 29.2696L43.2256 21.7061L43.2256 31.2679L28.1661 40.8157Z" stroke="#7F94AF" stroke-width="2"/>
<path d="M27.4925 1.45562C27.8048 1.27254 28.1917 1.27254 28.504 1.4556L52.231 15.364C52.89 15.7503 52.89 16.703 52.231 17.0894L28.5039 30.9989C28.1916 31.182 27.8048 31.182 27.4925 30.9989L3.76546 17.0906C3.10642 16.7042 3.1064 15.7515 3.76543 15.3652L27.4925 1.45562Z" stroke="#7F94AF" stroke-width="2"/>
</svg>
