<svg width="44" height="43" viewBox="0 0 44 43" fill="none" xmlns="http://www.w3.org/2000/svg">
<path d="M42.6802 21.5C42.6802 32.8218 33.502 42 22.1802 42M42.6802 21.5C42.6802 10.1782 33.502 1 22.1802 1M42.6802 21.5H1.68018M22.1802 42C10.8583 42 1.68018 32.8218 1.68018 21.5M22.1802 42C17.0159 37.9135 13.5356 30.2568 13.5356 21.5C13.5356 12.7432 17.0159 5.08653 22.1802 1M22.1802 42C27.3445 37.9135 30.8248 30.2568 30.8248 21.5C30.8248 12.7432 27.3445 5.08653 22.1802 1M1.68018 21.5C1.68018 10.1782 10.8583 1 22.1802 1M35.5624 5.98468C31.9699 9.08326 27.2996 10.9694 22.1802 10.9694C17.0608 10.9694 12.3905 9.10571 8.79791 6.00714M8.79791 37.0154C12.3905 33.9168 17.0608 32.0307 22.1802 32.0307C27.2996 32.0307 31.9699 33.9168 35.5624 37.0154" stroke="#7F94AF" stroke-width="2" stroke-miterlimit="10" stroke-linecap="round" stroke-linejoin="round"/>
</svg>
