<svg width="43" height="43" viewBox="0 0 43 43" fill="none" xmlns="http://www.w3.org/2000/svg">
<path d="M21.1109 42.2219C9.49531 42.2219 0 32.7266 0 21.1109C0 9.49531 9.49531 0 21.1109 0C32.7266 0 42.2219 9.49531 42.2219 21.1109C42.314 32.7266 32.8187 42.2219 21.1109 42.2219ZM21.1109 2.21249C10.6937 2.21249 2.30469 10.6937 2.30469 21.0187C2.30469 31.3437 10.7859 39.825 21.1109 39.825C31.4359 39.825 39.9172 31.3437 39.9172 21.0187C39.9172 10.6937 31.5281 2.21249 21.1109 2.21249Z" fill="#7F95AF"/>
<path d="M27.7485 31.8965L19.9126 24.0605V9.77148H22.4016V23.0465L29.5001 30.1449L27.7485 31.8965Z" fill="#7F95AF"/>
</svg>
