<svg width="30" height="51" viewBox="0 0 30 51" fill="none" xmlns="http://www.w3.org/2000/svg">
<path fill-rule="evenodd" clip-rule="evenodd" d="M23.1912 39.2039V40.8125H26.2537C27.0994 40.8125 27.7849 40.1312 27.7849 39.2914V13.25H21.6567C19.9671 13.25 18.5974 11.8925 18.5974 10.1784V2.53125H3.27814C2.43619 2.53125 1.75366 3.22837 1.75366 4.05554V39.2882C1.75366 40.1301 2.44993 40.8125 3.28485 40.8125H15.5349V39.2039C14.5877 38.2373 14.0037 36.9134 14.0037 35.4531C14.0037 32.4932 16.4031 30.0938 19.363 30.0938C22.3229 30.0938 24.7224 32.4932 24.7224 35.4531C24.7224 36.9134 24.1384 38.2373 23.1912 39.2039ZM17.0662 40.2968V46.325L19.363 44.0281L21.6599 46.325V40.2968C20.9638 40.6275 20.185 40.8125 19.363 40.8125C18.5411 40.8125 17.7623 40.6275 17.0662 40.2968ZM23.1912 42.3438H26.2576C27.9468 42.3438 29.3162 40.9684 29.3162 39.2953V11.7188L20.1287 1H3.28914C1.59543 1 0.222412 2.37558 0.222412 4.07372V39.27C0.222412 40.9676 1.58664 42.3438 3.28096 42.3438H15.5349V50L19.363 46.1719L23.1912 50V42.3438ZM20.1287 3.29688V10.174C20.1287 11.0272 20.8187 11.7188 21.6549 11.7188H27.3255L20.1287 3.29688ZM4.81616 11.7188V13.25H15.5349V11.7188H4.81616ZM4.81616 7.125V8.65625H15.5349V7.125H4.81616ZM4.81616 16.3125V17.8438H24.7224V16.3125H4.81616ZM4.81616 20.9062V22.4375H24.7224V20.9062H4.81616ZM4.81616 25.5V27.0312H24.7224V25.5H4.81616ZM19.363 39.2812C21.4773 39.2812 23.1912 37.5673 23.1912 35.4531C23.1912 33.3389 21.4773 31.625 19.363 31.625C17.2488 31.625 15.5349 33.3389 15.5349 35.4531C15.5349 37.5673 17.2488 39.2812 19.363 39.2812Z" fill="#7F94AF" stroke="#7F94AF" stroke-width="0.3"/>
</svg>
