<svg width="41" height="31" viewBox="0 0 41 31" fill="none" xmlns="http://www.w3.org/2000/svg">
<path d="M0 1.60784C0 0.719848 0.87412 0 1.95238 0H39.0476C40.1259 0 41 0.719848 41 1.60784C41 2.49584 40.1259 3.21569 39.0476 3.21569H1.95238C0.87412 3.21569 0 2.49584 0 1.60784Z" fill="#96A9C5"/>
<path d="M0 15.2738C0 14.3859 0.87412 13.666 1.95238 13.666L23.4286 13.6665C24.5069 13.6665 25.381 14.3862 25.381 15.2741C25.381 16.162 24.5069 16.8817 23.4286 16.8817L1.95238 16.8814C0.87412 16.8814 0 16.1615 0 15.2738Z" fill="#96A9C5"/>
<path d="M1.95238 27.333C0.87412 27.333 0 28.0529 0 28.9409C0 29.8288 0.87412 30.5487 1.95238 30.5487H35.1429C36.2212 30.5487 37.0952 29.8288 37.0952 28.9409C37.0952 28.0529 36.2212 27.333 35.1429 27.333H1.95238Z" fill="#96A9C5"/>
</svg>
