<svg width="15" height="18" viewBox="0 0 15 18" fill="none" xmlns="http://www.w3.org/2000/svg">
<path d="M7.06673 9.86686C6.20968 9.86686 5.37188 9.61272 4.65926 9.13657C3.94665 8.66041 3.39124 7.98364 3.06326 7.19182C2.73528 6.40001 2.64946 5.52872 2.81666 4.68814C2.98387 3.84755 3.39658 3.07543 4.0026 2.4694C4.60863 1.86337 5.38076 1.45066 6.22134 1.28346C7.06193 1.11626 7.93322 1.20207 8.72503 1.53005C9.51684 1.85803 10.1936 2.41345 10.6698 3.12606C11.1459 3.83867 11.4001 4.67648 11.4001 5.53353C11.4001 6.6828 10.9435 7.785 10.1309 8.59766C9.31821 9.41032 8.216 9.86686 7.06673 9.86686ZM7.06673 2.28353C6.42394 2.28353 5.79559 2.47414 5.26113 2.83125C4.72667 3.18837 4.31011 3.69595 4.06413 4.28981C3.81814 4.88367 3.75378 5.53714 3.87918 6.16757C4.00458 6.79801 4.31412 7.37711 4.76864 7.83163C5.22316 8.28615 5.80225 8.59568 6.43269 8.72108C7.06313 8.84648 7.71659 8.78212 8.31045 8.53614C8.90431 8.29015 9.41189 7.87359 9.76901 7.33913C10.1261 6.80467 10.3167 6.17632 10.3167 5.53353C10.3167 4.67158 9.97432 3.84493 9.36483 3.23543C8.75534 2.62594 7.92869 2.28353 7.06673 2.28353Z" fill="#413AE4" stroke="#413AE4" stroke-width="0.5"/>
<path d="M11.2917 16.8H3.70833C2.99004 16.8 2.30116 16.5202 1.79325 16.0221C1.28534 15.5239 1 14.8483 1 14.1438V12.0189C1.00002 11.9267 1.0245 11.8361 1.07103 11.756C1.11757 11.6759 1.18456 11.609 1.26542 11.562L3.97375 9.9683C4.09595 9.91414 4.23428 9.90636 4.36199 9.94646C4.4897 9.98656 4.5977 10.0717 4.6651 10.1854C4.7325 10.2991 4.75451 10.4333 4.72685 10.5619C4.6992 10.6906 4.62387 10.8047 4.51542 10.882L2.08333 12.3217V14.1438C2.08333 14.5665 2.25454 14.9719 2.55928 15.2708C2.86403 15.5696 3.27736 15.7376 3.70833 15.7376H11.2917C11.7226 15.7376 12.136 15.5696 12.4407 15.2708C12.7455 14.9719 12.9167 14.5665 12.9167 14.1438V12.3217L10.4738 10.882C10.4047 10.8514 10.3429 10.8069 10.2925 10.7514C10.2421 10.696 10.2041 10.6307 10.181 10.5599C10.1578 10.4891 10.1501 10.4144 10.1583 10.3405C10.1665 10.2666 10.1905 10.1952 10.2286 10.1309C10.2666 10.0667 10.3181 10.011 10.3795 9.96741C10.4409 9.92386 10.511 9.89344 10.5851 9.87812C10.6593 9.86279 10.7359 9.8629 10.81 9.87843C10.8842 9.89397 10.9541 9.92458 11.0154 9.9683L13.7238 11.562C13.8066 11.6077 13.8758 11.674 13.9243 11.7542C13.9728 11.8344 13.9989 11.9257 14 12.0189V14.1438C14 14.8483 13.7147 15.5239 13.2067 16.0221C12.6988 16.5202 12.01 16.8 11.2917 16.8Z" fill="#413AE4" stroke="#413AE4" stroke-width="0.5"/>
</svg>
