<svg width="15" height="17" viewBox="0 0 15 17" fill="none" xmlns="http://www.w3.org/2000/svg">
<path d="M7.16457 9.66667C6.29377 9.66667 5.44252 9.41252 4.71848 8.93637C3.99443 8.46022 3.43011 7.78344 3.09687 6.99163C2.76363 6.19982 2.67644 5.32853 2.84632 4.48794C3.01621 3.64736 3.43554 2.87523 4.05129 2.26921C4.66704 1.66318 5.45155 1.25047 6.30562 1.08327C7.15969 0.916063 8.04496 1.00188 8.84947 1.32986C9.65399 1.65784 10.3416 2.21325 10.8254 2.92586C11.3092 3.63848 11.5674 4.47628 11.5674 5.33334C11.5674 6.48261 11.1036 7.58481 10.2779 8.39746C9.45216 9.21012 8.33228 9.66667 7.16457 9.66667ZM7.16457 2.08334C6.51147 2.08334 5.87304 2.27394 5.33 2.63106C4.78697 2.98817 4.36373 3.49575 4.11379 4.08961C3.86386 4.68347 3.79847 5.33694 3.92588 5.96738C4.0533 6.59782 4.3678 7.17691 4.82961 7.63143C5.29142 8.08595 5.8798 8.39548 6.52036 8.52089C7.16091 8.64629 7.82486 8.58193 8.42825 8.33594C9.03163 8.08996 9.54736 7.6734 9.9102 7.13894C10.273 6.60448 10.4667 5.97612 10.4667 5.33334C10.4667 4.47138 10.1188 3.64473 9.49954 3.03524C8.88027 2.42575 8.04035 2.08334 7.16457 2.08334V2.08334Z" fill="#768498" stroke="#768498" stroke-width="0.5"/>
<path d="M11.4568 16.5998H3.75178C3.02196 16.5998 2.32204 16.32 1.80598 15.8219C1.28992 15.3237 1 14.6481 1 13.9436V11.8187C1.00002 11.7265 1.02489 11.6359 1.07217 11.5558C1.11945 11.4757 1.18752 11.4088 1.26967 11.3618L4.02146 9.76811C4.14561 9.71394 4.28617 9.70616 4.41593 9.74626C4.54569 9.78636 4.65542 9.8715 4.7239 9.98519C4.79238 10.0989 4.81474 10.2331 4.78664 10.3617C4.75855 10.4904 4.682 10.6045 4.57181 10.6818L2.10071 12.1215V13.9436C2.10071 14.3663 2.27466 14.7717 2.5843 15.0706C2.89394 15.3695 3.31389 15.5374 3.75178 15.5374H11.4568C11.8947 15.5374 12.3146 15.3695 12.6243 15.0706C12.9339 14.7717 13.1078 14.3663 13.1078 13.9436V12.1215L10.6257 10.6818C10.5556 10.6512 10.4928 10.6067 10.4416 10.5513C10.3903 10.4958 10.3517 10.4305 10.3282 10.3597C10.3048 10.2889 10.2969 10.2142 10.3053 10.1403C10.3136 10.0664 10.3379 9.99499 10.3766 9.93073C10.4153 9.86647 10.4676 9.81077 10.53 9.76722C10.5924 9.72367 10.6636 9.69325 10.7389 9.67792C10.8143 9.66259 10.8921 9.6627 10.9674 9.67823C11.0427 9.69377 11.1138 9.72439 11.1761 9.76811L13.9279 11.3618C14.0121 11.4075 14.0823 11.4738 14.1316 11.554C14.1809 11.6342 14.2074 11.7255 14.2086 11.8187V13.9436C14.2086 14.6481 13.9186 15.3237 13.4026 15.8219C12.8865 16.32 12.1866 16.5998 11.4568 16.5998V16.5998Z" fill="#768498" stroke="#768498" stroke-width="0.5"/>
</svg>
