<svg width="35" height="36" viewBox="0 0 35 36" fill="none" xmlns="http://www.w3.org/2000/svg">
<path d="M1.58649 0.218364C1.25614 0.253425 0.942627 0.381925 0.682698 0.588803C0.422768 0.795681 0.227194 1.07236 0.118898 1.38642C0.010601 1.70048 -0.00593036 2.03891 0.0712413 2.36203C0.148413 2.68515 0.31609 2.97957 0.554619 3.2108L32.001 34.6701C32.1636 34.8328 32.3566 34.9619 32.5691 35.05C32.7816 35.1381 33.0094 35.1835 33.2394 35.1836C33.4695 35.1836 33.6972 35.1384 33.9098 35.0504C34.1223 34.9624 34.3154 34.8333 34.4781 34.6707C34.6408 34.508 34.7698 34.3149 34.8578 34.1024C34.9458 33.8898 34.9911 33.662 34.991 33.432C34.9909 33.202 34.9456 32.9742 34.8575 32.7617C34.7693 32.5492 34.6402 32.3562 34.4775 32.1936L3.01822 0.7472C2.83512 0.556492 2.61114 0.409813 2.36314 0.31821C2.11515 0.226608 1.8496 0.192469 1.58649 0.218364Z" fill="white"/>
<path d="M33.2011 0.218531C32.7478 0.232463 32.3176 0.422101 32.0015 0.747366L0.555169 32.1937C0.383974 32.3535 0.246638 32.5461 0.151319 32.76C0.0560007 32.9739 0.00464422 33.2047 0.000300662 33.4389C-0.0040429 33.673 0.0387151 33.9056 0.126034 34.1229C0.213354 34.3402 0.343453 34.5377 0.508604 34.7037C0.673755 34.8697 0.870588 35.0008 1.08741 35.0893C1.30423 35.1777 1.53662 35.2217 1.77077 35.2186C2.00492 35.2155 2.23606 35.1653 2.45044 35.0711C2.66483 34.9769 2.8581 34.8406 3.01877 34.6702L34.478 3.21097C34.7284 2.96466 34.8987 2.64862 34.9668 2.30406C35.0349 1.95951 34.9976 1.60243 34.8598 1.2794C34.7219 0.956363 34.4899 0.68236 34.1941 0.493122C33.8982 0.303885 33.5522 0.208195 33.2011 0.218531Z" fill="white"/>
</svg>
