<svg width="35" height="35" viewBox="0 0 35 35" fill="none" xmlns="http://www.w3.org/2000/svg">
<path d="M1.5431 0.00817136C1.22187 0.0422633 0.917021 0.167213 0.664274 0.368375C0.411526 0.569537 0.221356 0.838575 0.116051 1.14396C0.0107471 1.44934 -0.00532752 1.77841 0.0697119 2.0926C0.144751 2.4068 0.307795 2.69309 0.539734 2.91793L31.1172 33.508C31.2753 33.6662 31.4631 33.7918 31.6697 33.8774C31.8763 33.9631 32.0978 34.0072 32.3215 34.0073C32.5451 34.0074 32.7666 33.9633 32.9733 33.8778C33.18 33.7922 33.3677 33.6667 33.5259 33.5086C33.6841 33.3504 33.8095 33.1626 33.8951 32.956C33.9807 32.7493 34.0247 32.5278 34.0246 32.3041C34.0246 32.0804 33.9805 31.859 33.8948 31.6523C33.8091 31.4457 33.6836 31.258 33.5253 31.0999L2.93526 0.522395C2.75723 0.336956 2.53943 0.19433 2.29829 0.105259C2.05714 0.0161868 1.79893 -0.017009 1.5431 0.00817136Z" fill="#67768C"/>
<path d="M32.2838 0.0079261C31.843 0.021474 31.4247 0.205871 31.1173 0.52215L0.539829 31.0997C0.373365 31.255 0.239823 31.4423 0.147138 31.6502C0.0544534 31.8582 0.0045159 32.0827 0.000292354 32.3104C-0.00393119 32.538 0.0376454 32.7642 0.122552 32.9755C0.207459 33.1868 0.333964 33.3788 0.494552 33.5403C0.655139 33.7017 0.846534 33.8292 1.05737 33.9152C1.2682 34.0012 1.49417 34.044 1.72185 34.0409C1.94953 34.0379 2.17427 33.9891 2.38274 33.8975C2.5912 33.806 2.77913 33.6734 2.93536 33.5077L33.5254 2.91768C33.7689 2.67818 33.9345 2.37087 34.0007 2.03584C34.0669 1.7008 34.0307 1.35359 33.8966 1.03948C33.7626 0.725372 33.537 0.45894 33.2493 0.274931C32.9616 0.0909222 32.6251 -0.00212402 32.2838 0.0079261Z" fill="#67768C"/>
</svg>
