<svg width="25" height="16" viewBox="0 0 25 16" fill="none" xmlns="http://www.w3.org/2000/svg">
<path fill-rule="evenodd" clip-rule="evenodd" d="M12.0149 0C4.07793 0 0.00292969 8 0.00292969 8C0.00292969 8 3.07793 16 12.0149 16C20.1079 16 24.0259 8.031 24.0259 8.031C24.0259 8.031 20.0769 0 12.0149 0ZM12.0329 13C9.13093 13 7.03293 10.812 7.03293 8C7.03293 5.187 9.13093 3 12.0329 3C14.9349 3 17.0329 5.187 17.0329 8C17.0329 10.812 14.9349 13 12.0329 13ZM12.0329 5C10.3749 5.003 9.03293 6.393 9.03293 8C9.03293 9.606 10.3749 11 12.0329 11C13.6909 11 15.0329 9.605 15.0329 8C15.0329 6.392 13.6909 4.997 12.0329 5Z" fill="#67768C"/>
</svg>
