<svg width="20" height="20" viewBox="0 0 20 20" fill="none" xmlns="http://www.w3.org/2000/svg">
<path d="M13.8776 1.63265C15.0683 1.63265 16.2103 2.10568 17.0523 2.94768C17.8943 3.78968 18.3673 4.93168 18.3673 6.12245V13.8776C18.3673 15.0683 17.8943 16.2103 17.0523 17.0523C16.2103 17.8943 15.0683 18.3673 13.8776 18.3673H6.12245C4.93168 18.3673 3.78968 17.8943 2.94768 17.0523C2.10568 16.2103 1.63265 15.0683 1.63265 13.8776V6.12245C1.63265 4.93168 2.10568 3.78968 2.94768 2.94768C3.78968 2.10568 4.93168 1.63265 6.12245 1.63265H13.8776ZM13.8776 0H6.12245C4.50016 0.00484508 2.94571 0.651443 1.79858 1.79858C0.651443 2.94571 0.00484508 4.50016 0 6.12245V13.8776C0.00484508 15.4998 0.651443 17.0543 1.79858 18.2014C2.94571 19.3486 4.50016 19.9952 6.12245 20H13.8776C15.4998 19.9952 17.0543 19.3486 18.2014 18.2014C19.3486 17.0543 19.9952 15.4998 20 13.8776V6.12245C19.9952 4.50016 19.3486 2.94571 18.2014 1.79858C17.0543 0.651443 15.4998 0.00484508 13.8776 0Z" fill="white"/>
<path d="M15.3347 3.46973C15.1034 3.46973 14.8773 3.53831 14.685 3.6668C14.4927 3.7953 14.3428 3.97793 14.2543 4.19161C14.1658 4.40529 14.1426 4.64041 14.1878 4.86725C14.2329 5.09409 14.3442 5.30245 14.5078 5.466C14.6713 5.62954 14.8797 5.74091 15.1065 5.78603C15.3334 5.83115 15.5685 5.808 15.7822 5.71949C15.9959 5.63098 16.1785 5.4811 16.307 5.28879C16.4355 5.09649 16.5041 4.8704 16.5041 4.63911C16.5041 4.48555 16.4738 4.33349 16.415 4.19161C16.3563 4.04973 16.2701 3.92082 16.1616 3.81223C16.053 3.70364 15.9241 3.61751 15.7822 3.55874C15.6403 3.49997 15.4882 3.46973 15.3347 3.46973Z" fill="white"/>
<path d="M10.0551 6.4227C10.7689 6.4223 11.4668 6.63362 12.0604 7.02994C12.6541 7.42625 13.1169 7.98975 13.3902 8.64914C13.6636 9.30853 13.7352 10.0342 13.596 10.7343C13.4569 11.4344 13.1132 12.0775 12.6085 12.5822C12.1037 13.087 11.4606 13.4306 10.7605 13.5698C10.0604 13.709 9.33478 13.6373 8.67539 13.364C8.016 13.0906 7.4525 12.6279 7.05619 12.0342C6.65987 11.4405 6.44855 10.7426 6.44895 10.0288C6.45057 9.07292 6.83102 8.15663 7.50695 7.4807C8.18288 6.80477 9.09917 6.42432 10.0551 6.4227ZM10.0551 4.79005C9.01889 4.79207 8.00656 5.1012 7.14601 5.67838C6.28546 6.25557 5.61532 7.07489 5.22028 8.03282C4.82524 8.99075 4.72303 10.0443 4.92656 11.0603C5.1301 12.0763 5.63024 13.0092 6.36379 13.741C7.09734 14.4728 8.03137 14.9708 9.04785 15.172C10.0643 15.3731 11.1176 15.2685 12.0746 14.8712C13.0316 14.4739 13.8494 13.8019 14.4246 12.94C14.9997 12.0781 15.3065 11.065 15.3061 10.0288C15.3058 9.3399 15.1697 8.65779 14.9056 8.02152C14.6415 7.38524 14.2545 6.80729 13.7668 6.32071C13.2791 5.83414 12.7002 5.4485 12.0633 5.18585C11.4264 4.92321 10.744 4.78871 10.0551 4.79005Z" fill="white"/>
</svg>
