<svg width="20" height="20" viewBox="0 0 20 20" fill="none" xmlns="http://www.w3.org/2000/svg">
<path d="M10 20C15.5228 20 20 15.5228 20 10C20 4.47715 15.5228 0 10 0C4.47715 0 0 4.47715 0 10C0 15.5228 4.47715 20 10 20Z" fill="white"/>
<path d="M8.17011 15.2756C12.6051 15.2756 15.0301 11.6006 15.0301 8.41559C15.0301 8.31059 15.0301 8.20559 15.0251 8.10559C15.4951 7.76559 15.9051 7.34059 16.2301 6.85559C15.8001 7.04559 15.3351 7.17559 14.8451 7.23559C15.3451 6.93559 15.7251 6.46559 15.9051 5.90059C15.4401 6.17559 14.9251 6.37559 14.3751 6.48559C13.9351 6.01559 13.3101 5.72559 12.6151 5.72559C11.2851 5.72559 10.2051 6.80559 10.2051 8.13559C10.2051 8.32559 10.2251 8.51059 10.2701 8.68559C8.26511 8.58559 6.49011 7.62559 5.30011 6.16559C5.09511 6.52059 4.97511 6.93559 4.97511 7.37559C4.97511 8.21059 5.40011 8.95059 6.05011 9.38059C5.65511 9.37059 5.28511 9.26059 4.96011 9.08059C4.96011 9.09059 4.96011 9.10059 4.96011 9.11059C4.96011 10.2806 5.79011 11.2506 6.89511 11.4756C6.69511 11.5306 6.48011 11.5606 6.26011 11.5606C6.10511 11.5606 5.95511 11.5456 5.80511 11.5156C6.11011 12.4756 7.00011 13.1706 8.05511 13.1906C7.23011 13.8356 6.19011 14.2206 5.06011 14.2206C4.86511 14.2206 4.67511 14.2106 4.48511 14.1856C5.54011 14.8756 6.81011 15.2756 8.17011 15.2756Z" fill="#2B2B2B"/>
</svg>
