<svg width="26" height="19" viewBox="0 0 26 19" fill="none" xmlns="http://www.w3.org/2000/svg">
<path d="M25.4566 2.84197C25.1576 1.72326 24.2767 0.842359 23.158 0.54341C21.1302 -1.93715e-07 12.9999 0 12.9999 0C12.9999 0 4.86957 -1.93715e-07 2.84172 0.54341C1.72326 0.842359 0.842156 1.72326 0.543156 2.84197C0 4.86957 0 9.10005 0 9.10005C0 9.10005 0 13.3305 0.543156 15.3579C0.842156 16.4766 1.72326 17.3577 2.84172 17.6567C4.86957 18.1999 12.9999 18.1999 12.9999 18.1999C12.9999 18.1999 21.1302 18.1999 23.158 17.6567C24.2767 17.3577 25.1576 16.4766 25.4566 15.3579C26 13.3305 26 9.10005 26 9.10005C26 9.10005 26 4.86957 25.4566 2.84197Z" fill="#ED1F24"/>
<path d="M25.4566 2.84197C25.1576 1.72326 24.2767 0.842359 23.158 0.54341C21.1302 -1.93715e-07 12.9999 0 12.9999 0C12.9999 0 4.86957 -1.93715e-07 2.84172 0.54341C1.72326 0.842359 0.842156 1.72326 0.543156 2.84197C0 4.86957 0 9.10005 0 9.10005C0 9.10005 0 13.3305 0.543156 15.3579C0.842156 16.4766 1.72326 17.3577 2.84172 17.6567C4.86957 18.1999 12.9999 18.1999 12.9999 18.1999C12.9999 18.1999 21.1302 18.1999 23.158 17.6567C24.2767 17.3577 25.1576 16.4766 25.4566 15.3579C26 13.3305 26 9.10005 26 9.10005C26 9.10005 26 4.86957 25.4566 2.84197Z" fill="white"/>
<path d="M10.3989 13.0003L17.1537 9.10025L10.3989 5.2002V13.0003Z" fill="#2B2B2B"/>
</svg>
