<svg width="20" height="20" viewBox="0 0 20 20" fill="none" xmlns="http://www.w3.org/2000/svg">
<path d="M10 20C15.5228 20 20 15.5228 20 10C20 4.47715 15.5228 0 10 0C4.47715 0 0 4.47715 0 10C0 15.5228 4.47715 20 10 20Z" fill="white"/>
<path fill-rule="evenodd" clip-rule="evenodd" d="M9.04969 12.0575C8.68902 11.9737 8.3528 11.8526 8.03325 11.6881C7.9188 11.629 7.80614 11.5657 7.6968 11.4977C7.37436 11.2964 7.27413 10.881 7.46791 10.5615C7.66725 10.2333 8.08036 10.1266 8.41014 10.3266C8.73458 10.5228 9.07836 10.6655 9.45191 10.7328C10.187 10.8648 10.8777 10.7432 11.5212 10.3648C11.6526 10.2875 11.7852 10.2268 11.9419 10.2277C12.2457 10.2295 12.5117 10.4239 12.5999 10.713C12.6886 11.0044 12.5781 11.3197 12.3201 11.4857C11.9181 11.7444 11.4828 11.9266 11.0192 12.0408C10.9992 12.0455 10.9797 12.0512 10.9517 12.0586C10.9706 12.079 10.9852 12.095 11.0008 12.1106C11.4128 12.5226 11.825 12.9339 12.2366 13.3466C12.4772 13.5879 12.5279 13.919 12.3681 14.195C12.1381 14.5926 11.6092 14.6586 11.2779 14.3292C10.8672 13.9208 10.4588 13.5106 10.0497 13.1015C10.035 13.0868 10.0212 13.071 9.98858 13.0355C9.97503 13.0597 9.96769 13.0832 9.95258 13.0984C9.54258 13.5099 9.13258 13.9208 8.7208 14.3306C8.43836 14.6124 8.00702 14.6106 7.73369 14.3297C7.48369 14.0728 7.47658 13.6648 7.71836 13.3952C7.75102 13.3584 7.78658 13.3237 7.82125 13.2888C8.21458 12.8952 8.60769 12.5024 9.00103 12.1086C9.01458 12.0948 9.02858 12.0795 9.04969 12.0575Z" fill="#2B2B2B"/>
<path fill-rule="evenodd" clip-rule="evenodd" d="M10.001 5.45996C11.291 5.45996 12.3434 6.51285 12.3432 7.80285C12.343 9.0944 11.3005 10.1457 10.0019 10.1462C8.69585 10.1475 7.65874 9.09463 7.65674 7.80729C7.65452 6.51552 8.69963 5.46352 10.001 5.45996ZM10.9692 7.80507C10.9696 7.27129 10.5379 6.83596 10.0067 6.83463C9.46852 6.83329 9.03007 7.26485 9.02919 7.7964C9.0283 8.32885 9.46008 8.77218 9.98119 8.77263C10.5334 8.77307 10.9687 8.34685 10.9692 7.80507Z" fill="#2B2B2B"/>
</svg>
