<svg width="196" height="47" viewBox="0 0 196 47" fill="none" xmlns="http://www.w3.org/2000/svg">
<path d="M8.50329 10.1539V9.68176C9.8024 9.56373 9.8024 9.56373 9.8024 7.91132V1.77378H9.6843L6.02316 10.0358H5.78696L2.48013 2.00984H2.36202L2.12582 6.2589C2.12582 7.55723 2.12582 8.14738 2.12582 8.73752C2.12582 9.56373 2.48013 9.56373 3.54304 9.68176V10.1539H0V9.68176C0.94481 9.56373 1.18101 9.4457 1.29911 8.85555C1.41721 8.2654 1.41721 7.67526 1.53532 6.02284L1.77152 2.95407C1.88962 0.94757 1.88962 0.94757 0.472405 0.711511V0.357422H2.95253L6.37747 7.91132L9.8024 0.357422H12.2825V0.711511C10.9834 0.82954 10.8653 0.94757 10.9834 2.48195L11.1015 7.91132C11.1015 9.56373 11.2196 9.56373 12.5187 9.68176V10.1539H8.50329Z" fill="white"/>
<path d="M19.9586 10.1539V9.68176C21.1397 9.68176 21.2578 9.56373 21.2578 8.2654V4.37043C21.2578 3.78028 21.2578 2.95407 21.2578 1.53772L16.5337 9.4457C16.4156 9.56373 16.4156 9.79979 16.4156 10.0358V10.1539H13.8174V9.68176C14.8803 9.68176 14.9984 9.56373 14.9984 8.14738V2.12787C14.9984 0.94757 14.8803 0.82954 13.8174 0.711511V0.357422H17.4785V0.711511C16.4156 0.82954 16.2975 0.94757 16.2975 2.12787V5.78678C16.2975 6.49496 16.2975 7.32117 16.1794 8.73752L20.9035 0.94757C21.0216 0.82954 21.0216 0.593481 21.0216 0.475451V0.357422H23.7379V0.711511C22.5569 0.82954 22.4388 0.94757 22.4388 2.36392V8.2654C22.4388 9.56373 22.5569 9.68176 23.7379 9.68176V10.1539H19.9586Z" fill="white"/>
<path d="M35.3144 0.711511C34.1333 0.82954 34.0152 0.94757 34.0152 2.2459V8.2654C34.0152 9.56373 34.1333 9.68176 35.3144 9.68176V10.1539H31.417V9.68176C32.598 9.68176 32.7161 9.56373 32.7161 8.2654V5.31466H27.6378V8.2654C27.6378 9.56373 27.7559 9.68176 29.055 9.68176V10.1539H25.1577V9.68176C26.3387 9.68176 26.4568 9.56373 26.4568 8.2654V2.2459C26.4568 0.94757 26.3387 0.82954 25.0396 0.711511V0.357422H28.9369V0.711511C27.7559 0.82954 27.6378 0.94757 27.6378 2.2459V4.60649H32.7161V2.2459C32.7161 0.94757 32.598 0.82954 31.5351 0.711511V0.357422H35.3144V0.711511Z" fill="white"/>
<path d="M42.8703 10.1539V9.68176C44.0513 9.68176 44.1694 9.56373 44.1694 8.2654V4.37043C44.1694 3.78028 44.1694 2.95407 44.2875 1.53772H44.1694L39.4453 9.4457C39.3272 9.56373 39.3272 9.79979 39.3272 10.0358V10.1539H36.729V9.68176C37.7919 9.68176 37.91 9.56373 37.91 8.14738V2.12787C37.91 0.94757 37.7919 0.82954 36.729 0.711511V0.357422H40.5082V0.711511C39.3272 0.82954 39.2091 0.94757 39.2091 2.12787V5.78678C39.2091 6.49496 39.2091 7.32117 39.091 8.73752H39.2091L43.8151 0.94757C43.9332 0.82954 44.0513 0.593481 44.0513 0.475451V0.357422H46.6495V0.711511C45.5866 0.82954 45.3504 0.94757 45.3504 2.36392V8.2654C45.3504 9.56373 45.5866 9.68176 46.6495 9.68176V10.1539H42.8703Z" fill="white"/>
<path d="M56.4542 7.66913C56.218 8.37731 55.8637 9.43957 55.6275 9.91169C55.1551 10.0297 53.856 10.3838 52.7931 10.3838C49.1319 10.3838 47.4785 7.78716 47.4785 5.42657C47.4785 2.23977 49.9586 0.115234 53.2655 0.115234C54.4465 0.115234 55.3913 0.469323 55.8637 0.469323C55.9818 1.41356 56.0999 2.00371 56.218 2.82992L55.7456 2.94794C55.2732 1.29553 54.4465 0.705382 52.7931 0.705382C50.3129 0.705382 49.0138 2.82992 49.0138 5.07248C49.0138 7.90519 50.6673 9.79366 52.9112 9.79366C54.4465 9.79366 55.2732 8.96745 55.9818 7.43307L56.4542 7.66913Z" fill="white"/>
<path d="M65.4283 2.71468C65.1921 2.0065 65.074 1.53438 64.9559 1.29833C64.7197 0.944237 64.3654 0.826207 63.3025 0.826207H62.2396V8.26207C62.2396 9.44237 62.3577 9.67843 63.7749 9.67843V10.1505H59.5233V9.67843C60.8224 9.67843 60.9405 9.44237 60.9405 8.26207V0.826207H59.9957C58.8147 0.826207 58.4604 0.944237 58.3423 1.29833C58.1061 1.53438 57.988 2.0065 57.8699 2.71468H57.3975C57.5156 1.77044 57.5156 0.826207 57.6337 0H57.8699C58.1061 0.354089 58.3423 0.354089 58.6966 0.354089H64.6016C64.9559 0.354089 65.074 0.236059 65.3102 0H65.6645C65.6645 0.708178 65.7826 1.77044 65.7826 2.59665L65.4283 2.71468Z" fill="white"/>
<path d="M74.5203 7.79329C74.4022 8.2654 74.166 9.68176 73.9298 10.1539H66.8438V9.68176C68.1429 9.56373 68.261 9.4457 68.261 8.2654V2.2459C68.261 0.94757 68.1429 0.82954 66.9619 0.711511V0.357422H73.6936C73.6936 0.711511 73.6936 1.77378 73.8117 2.48195L73.3393 2.59998C73.2212 2.00984 73.1031 1.65575 72.8669 1.30166C72.6307 0.94757 72.2764 0.82954 71.2135 0.82954H70.0325C69.5601 0.82954 69.5601 0.94757 69.5601 1.30166V4.72452H70.9773C72.2764 4.72452 72.3945 4.60649 72.5126 3.66225H72.985V6.49496H72.5126C72.3945 5.43269 72.2764 5.31466 70.9773 5.31466H69.5601V8.2654C69.5601 8.97358 69.6782 9.20964 69.9144 9.4457C70.1506 9.56373 70.7411 9.68176 71.4497 9.68176C72.6307 9.68176 72.985 9.56373 73.3393 9.09161C73.5755 8.85555 73.8117 8.2654 74.0479 7.67526L74.5203 7.79329Z" fill="white"/>
<path d="M79.2441 0.357422C80.307 0.357422 81.2518 0.475451 81.8423 0.94757C82.3147 1.41969 82.7871 2.12787 82.7871 3.0721C82.7871 5.07861 81.2518 6.02284 79.8346 6.14087C79.5984 6.2589 79.3622 6.2589 79.126 6.14087L78.0631 5.90481V8.2654C78.0631 9.56373 78.1812 9.68176 79.5984 9.68176V10.1539H75.4648V9.68176C76.764 9.68176 76.8821 9.56373 76.8821 8.2654V2.2459C76.8821 0.94757 76.764 0.82954 75.5829 0.711511V0.357422H79.2441ZM78.0631 5.43269C78.2993 5.43269 78.6536 5.55072 79.126 5.55072C80.1889 5.55072 81.3699 5.07861 81.3699 3.19013C81.3699 1.53772 80.307 0.82954 79.126 0.82954C78.6536 0.82954 78.2993 0.94757 78.2993 1.0656C78.1812 1.0656 78.0631 1.30166 78.0631 1.77378V5.43269Z" fill="white"/>
<path d="M92.9464 7.66913C92.7102 8.37731 92.3559 9.43957 92.1197 9.91169C91.6473 10.0297 90.3482 10.3838 89.2853 10.3838C85.6241 10.3838 83.9707 7.78716 83.9707 5.42657C83.9707 2.23977 86.4508 0.115234 89.7577 0.115234C90.9387 0.115234 92.0016 0.469323 92.3559 0.469323C92.474 1.41356 92.5921 2.00371 92.7102 2.82992L92.2378 2.94794C91.8835 1.29553 90.9387 0.705382 89.2853 0.705382C86.8051 0.705382 85.506 2.82992 85.506 5.07248C85.506 7.90519 87.1594 9.79366 89.4034 9.79366C90.9387 9.79366 91.7654 8.96745 92.474 7.43307L92.9464 7.66913Z" fill="white"/>
<path d="M101.921 2.71468C101.684 2.0065 101.566 1.53438 101.448 1.29833C101.212 0.944237 100.858 0.826207 99.7947 0.826207H98.7318V8.26207C98.7318 9.44237 98.8499 9.67843 100.267 9.67843V10.1505H96.0155V9.67843C97.3146 9.67843 97.4327 9.44237 97.4327 8.26207V0.826207H96.606C95.3069 0.826207 95.0707 0.944237 94.8345 1.29833C94.5983 1.53438 94.4802 2.0065 94.3621 2.71468H93.8896C94.0077 1.77044 94.0077 0.826207 94.1259 0H94.3621C94.5983 0.354089 94.8345 0.354089 95.1888 0.354089H101.094C101.448 0.354089 101.566 0.236059 101.802 0H102.157C102.157 0.708178 102.275 1.77044 102.275 2.59665L101.921 2.71468Z" fill="white"/>
<path d="M108.415 4.84255C109.832 5.07861 111.013 5.78678 111.013 7.32117C111.013 8.2654 110.422 9.09161 109.596 9.56373C108.887 9.91782 107.824 10.1539 106.643 10.1539H103.336V9.68176C104.636 9.68176 104.754 9.56373 104.754 8.2654V2.2459C104.754 0.94757 104.754 0.82954 103.455 0.711511V0.357422H107.352C108.415 0.357422 109.123 0.475451 109.596 0.82954C110.068 1.18363 110.422 1.89181 110.422 2.59998C110.422 4.01634 109.241 4.60649 108.415 4.84255ZM106.761 4.72452C108.297 4.72452 109.005 4.01634 109.005 2.71801C109.005 1.77378 108.415 0.82954 106.998 0.82954C106.643 0.82954 106.407 0.82954 106.171 0.94757C106.053 1.0656 106.053 1.18363 106.053 1.77378V4.72452H106.761ZM106.053 8.2654C106.053 9.32767 106.289 9.68176 107.234 9.68176C108.415 9.56373 109.596 8.97358 109.596 7.4392C109.596 5.90481 108.533 5.19664 106.643 5.19664H106.053V8.2654Z" fill="white"/>
<path d="M122.117 5.07248C122.117 8.37731 119.873 10.3838 117.157 10.3838C114.44 10.3838 112.314 8.25928 112.314 5.30854C112.314 2.59386 114.204 0.115234 117.275 0.115234C119.873 0.115234 122.117 2.12174 122.117 5.07248ZM113.85 4.95445C113.85 7.78716 115.385 9.79366 117.511 9.79366C119.164 9.79366 120.582 8.37731 120.582 5.5446C120.582 2.3578 118.928 0.705382 117.039 0.705382C115.385 0.705382 113.85 2.12174 113.85 4.95445Z" fill="white"/>
<path d="M137.352 0.711511C136.053 0.82954 135.935 0.94757 135.935 2.2459V8.2654C135.935 9.56373 136.053 9.68176 137.352 9.68176V10.1539H133.337V9.68176C134.636 9.68176 134.754 9.56373 134.754 8.2654V5.31466H129.676V8.2654C129.676 9.56373 129.794 9.68176 130.975 9.68176V10.1539H127.078V9.68176C128.259 9.68176 128.377 9.56373 128.377 8.2654V2.2459C128.377 0.94757 128.259 0.82954 127.078 0.711511V0.357422H130.857V0.711511C129.794 0.82954 129.676 0.94757 129.676 2.2459V4.60649H134.754V2.2459C134.754 0.94757 134.636 0.82954 133.455 0.711511V0.357422H137.352V0.711511Z" fill="white"/>
<path d="M144.554 10.1478V9.67564C145.499 9.55761 145.617 9.43958 145.499 8.84943C145.263 8.25928 144.909 7.43307 144.673 6.60686H141.484C141.248 7.19701 141.011 7.90519 140.775 8.49534C140.421 9.43958 140.657 9.55761 141.72 9.67564V10.1478H138.531V9.67564C139.476 9.55761 139.594 9.43958 140.185 8.14125L143.255 0.233264L143.728 0.115234C144.673 2.71189 145.617 5.5446 146.562 8.14125C147.035 9.43958 147.271 9.67564 148.216 9.67564V10.1478H144.554ZM143.137 2.12174C142.547 3.42006 142.074 4.71839 141.72 5.89869H144.436L143.137 2.12174Z" fill="white"/>
<path d="M157.665 0.82954C156.602 0.94757 156.484 1.0656 155.893 2.36393C155.421 3.54422 153.886 7.08511 153.295 8.50147C152.468 10.2719 151.642 10.626 150.933 10.626C150.461 10.626 149.988 10.3899 149.87 10.0359C149.752 9.79979 149.752 9.56373 149.988 9.32767C150.225 9.09161 150.461 9.09161 150.579 9.32767C150.815 9.56373 151.169 9.56373 151.524 9.56373C152.232 9.56373 152.705 8.26541 152.705 8.02935C152.705 7.79329 152.705 7.55723 152.468 7.20314C152.232 6.49496 150.343 2.59999 149.87 1.77378C149.516 1.0656 149.28 0.94757 148.335 0.82954V0.357422H151.878V0.82954H151.406C151.051 0.94757 150.933 1.0656 151.287 1.65575L153.531 6.49496C154.24 4.84255 154.831 3.54422 155.303 2.00984C155.657 1.18363 155.539 0.94757 154.949 0.82954H154.358V0.357422H157.665V0.82954Z" fill="white"/>
<path d="M166.406 10.1478C165.461 10.1478 164.988 9.67564 164.634 8.7314C164.398 8.25928 163.926 7.43307 163.571 6.60686C162.863 5.30854 162.272 5.19051 161.327 5.19051V8.25928C161.327 9.55761 161.445 9.67564 162.626 9.67564V10.1478H158.847V9.67564C159.91 9.67564 160.028 9.55761 160.028 8.25928V2.12174C160.028 0.941442 159.91 0.823412 158.847 0.705383V0.351294H162.626V0.705383C161.445 0.823412 161.327 0.941442 161.327 2.12174V4.71839C162.39 4.71839 162.745 4.60036 163.217 4.12824C163.689 3.65612 163.926 2.94795 164.516 1.76765C165.107 0.587353 165.579 0.115234 166.288 0.115234C166.76 0.115234 167.114 0.351294 167.114 0.705383C167.114 0.941442 166.76 1.1775 166.524 1.1775H166.169C165.461 1.1775 165.225 1.76765 164.516 3.18401C163.926 4.3643 163.335 4.71839 163.099 4.83642V4.95445C163.689 5.07248 164.28 5.42657 164.752 6.25278C165.107 6.84292 165.461 7.5511 165.933 8.49534C166.524 9.43958 166.878 9.67564 167.587 9.67564V10.1478H166.406Z" fill="white"/>
<path d="M175.026 10.1539V9.68176C176.089 9.68176 176.325 9.56373 176.325 8.2654V4.37043C176.325 3.78028 176.325 2.95407 176.325 1.53772L171.601 9.4457C171.483 9.56373 171.483 9.79979 171.483 10.0358V10.1539H168.767V9.68176C169.948 9.68176 170.066 9.56373 170.066 8.14738V2.12787C170.066 0.94757 169.948 0.82954 168.767 0.711511V0.357422H172.546V0.711511C171.483 0.82954 171.247 0.94757 171.247 2.12787V5.78678C171.247 6.49496 171.247 7.32117 171.247 8.73752L175.971 0.94757C176.089 0.82954 176.089 0.593481 176.089 0.475451V0.357422H178.805V0.711511C177.624 0.82954 177.506 0.94757 177.506 2.36392V8.2654C177.506 9.56373 177.624 9.68176 178.805 9.68176V10.1539H175.026Z" fill="white"/>
<path d="M6.49569 27.0289V26.6748C7.5586 26.5568 7.6767 26.4387 7.6767 25.1404V21.2454C7.6767 20.7733 7.6767 19.8291 7.7948 18.4127L3.07076 26.3207C2.95266 26.4387 2.83455 26.6748 2.83455 26.9109V27.0289H0.236328V26.6748C1.41734 26.5568 1.53544 26.4387 1.53544 25.0224V19.0029C1.53544 17.8226 1.41734 17.7045 0.236328 17.7045V17.2324H4.01557V17.7045C2.95266 17.7045 2.71645 17.8226 2.71645 19.0029V22.6618C2.71645 23.37 2.71645 24.1962 2.71645 25.6125L7.4405 17.9406C7.5586 17.7045 7.5586 17.5865 7.5586 17.3505V17.2324H10.2749V17.7045C9.09392 17.7045 8.97582 17.8226 8.97582 19.2389V25.1404C8.97582 26.4387 9.09392 26.5568 10.2749 26.6748V27.0289H6.49569Z" fill="white"/>
<path d="M20.0779 21.7175C21.4951 21.9536 22.6761 22.6618 22.6761 24.1962C22.6761 25.1404 22.2037 25.9666 21.2589 26.4387C20.5503 26.9109 19.4874 27.0289 18.3063 27.0289H14.9995V26.6748C16.2986 26.5568 16.4167 26.4387 16.4167 25.1404V19.1209C16.4167 17.8226 16.4167 17.7045 15.2357 17.7045V17.2324H19.015C20.0779 17.2324 20.7865 17.4685 21.2589 17.7045C21.7313 18.0586 22.0856 18.7668 22.0856 19.475C22.0856 20.8913 20.9046 21.4815 20.0779 21.7175ZM18.4244 21.5995C19.9598 21.5995 20.6684 20.8913 20.6684 19.711C20.6684 18.6488 20.0779 17.7045 18.7788 17.7045C18.3063 17.7045 18.0701 17.8226 17.8339 17.8226C17.7158 17.9406 17.7158 18.1767 17.7158 18.6488V21.5995H18.4244ZM17.7158 25.1404C17.7158 26.2027 17.952 26.5568 18.8969 26.5568C20.0779 26.5568 21.2589 25.8486 21.2589 24.3142C21.2589 22.7798 20.196 22.0716 18.3063 22.0716H17.7158V25.1404Z" fill="white"/>
<path d="M23.5 27.0289V26.6748C24.681 26.5568 24.7991 26.4387 24.7991 25.1404V19.1209C24.7991 17.8226 24.681 17.7045 23.5 17.7045V17.2324H27.3973V17.7045C26.2163 17.7045 25.9801 17.8226 25.9801 19.1209V21.2454C26.5706 21.1274 26.9249 21.1274 27.5154 21.1274C29.8775 21.1274 30.9404 22.3077 30.9404 23.8421C30.9404 25.1404 30.3499 25.9666 29.6413 26.4387C28.8145 26.9109 27.8697 27.0289 26.6887 27.0289H23.5ZM25.9801 25.2584C25.9801 26.2027 26.2163 26.5568 27.2792 26.5568C28.3421 26.5568 29.5232 25.8486 29.5232 24.0781C29.5232 22.3077 28.4602 21.7175 27.043 21.7175C26.5706 21.7175 26.3344 21.7175 25.9801 21.7175V25.2584ZM31.0585 27.0289V26.6748C32.1214 26.5568 32.2395 26.3207 32.2395 25.1404V19.1209C32.2395 17.9406 32.1214 17.7045 31.0585 17.7045V17.2324H34.8377V17.7045C33.6567 17.7045 33.5386 17.9406 33.5386 19.1209V25.1404C33.5386 26.4387 33.6567 26.5568 34.8377 26.6748V27.0289H31.0585Z" fill="white"/>
<path d="M44.5256 24.5549C44.4075 25.263 43.9351 26.3253 43.6989 26.9155C43.3446 26.9155 42.0454 27.2696 40.9825 27.2696C37.2033 27.2696 35.668 24.6729 35.668 22.3123C35.668 19.1255 38.03 17.001 41.3368 17.001C42.5178 17.001 43.5808 17.3551 44.0532 17.4731C44.1713 18.2993 44.1713 18.8895 44.2894 19.7157L43.817 19.8337C43.4627 18.1813 42.5178 17.5911 40.9825 17.5911C38.5024 17.5911 37.2033 19.7157 37.2033 21.9582C37.2033 24.7909 38.7386 26.6794 41.1006 26.6794C42.5178 26.6794 43.3446 25.8532 44.1713 24.4368L44.5256 24.5549Z" fill="white"/>
<path d="M45.4712 27.0289V26.6748C46.6522 26.5568 46.7703 26.4387 46.7703 25.1404V19.1209C46.7703 17.8226 46.6522 17.7045 45.5893 17.7045V17.2324H49.1323V17.7045C48.1875 17.7045 48.0694 17.8226 48.0694 19.1209V25.2584C48.0694 26.4387 48.0694 26.5568 48.8961 26.5568H50.4314C51.3762 26.5568 51.3762 26.4387 51.3762 25.2584V19.1209C51.3762 17.8226 51.2581 17.7045 50.3133 17.7045V17.2324H53.7383V17.7045C52.6754 17.7045 52.6754 17.8226 52.6754 19.1209V25.2584C52.6754 26.4387 52.7935 26.5568 53.6202 26.5568H55.1555C55.9822 26.5568 55.9822 26.4387 55.9822 25.2584V19.1209C55.9822 17.8226 55.8641 17.7045 54.8012 17.7045V17.2324H58.4623V17.7045C57.3994 17.7045 57.2813 17.8226 57.2813 19.1209V25.1404C57.2813 26.4387 57.3994 26.5568 58.6985 26.6748V27.0289H45.4712Z" fill="white"/>
<path d="M67.5535 24.6683C67.5535 25.1404 67.1992 26.5568 67.0811 27.0289H59.877V26.6748C61.2942 26.5568 61.4123 26.4387 61.4123 25.1404V19.1209C61.4123 17.8226 61.2942 17.8226 60.1132 17.7045V17.2324H66.7268C66.7268 17.5865 66.8449 18.6488 66.8449 19.357L66.3725 19.475C66.2544 18.8848 66.1363 18.5307 65.9001 18.1767C65.782 17.8226 65.3096 17.8226 64.2467 17.8226H63.0657C62.7114 17.8226 62.5933 17.8226 62.5933 18.2947V21.7175H64.0105C65.3096 21.7175 65.4277 21.5995 65.6639 20.5373H66.0182V23.488H65.6639C65.4277 22.3077 65.3096 22.3077 64.0105 22.3077H62.5933V25.1404C62.5933 25.8486 62.7114 26.0846 62.9476 26.3207C63.3019 26.5568 63.7743 26.5568 64.4829 26.5568C65.6639 26.5568 66.1363 26.4387 66.3725 25.9666C66.6087 25.7306 66.963 25.2584 67.0811 24.5503L67.5535 24.6683Z" fill="white"/>
<path d="M74.7604 19.475C74.6423 18.7668 74.5242 18.4127 74.288 18.1767C74.0518 17.8226 73.5794 17.7045 72.7527 17.7045H71.6898C71.2174 17.7045 71.0993 17.8226 71.0993 18.2947V25.1404C71.0993 26.4387 71.2174 26.5568 72.6346 26.6748V27.0289H68.6191V26.6748C69.8002 26.5568 69.9183 26.4387 69.9183 25.1404V19.1209C69.9183 17.8226 69.8002 17.7045 68.7372 17.7045V17.2324H75.1147C75.1147 17.4685 75.1147 18.7668 75.2328 19.357L74.7604 19.475Z" fill="white"/>
<path d="M85.9767 22.0762C85.9767 25.263 83.7328 27.2696 81.0165 27.2696C78.3001 27.2696 76.1743 25.145 76.1743 22.1943C76.1743 19.4796 78.0639 17.001 81.1346 17.001C83.7328 17.001 85.9767 19.0075 85.9767 22.0762ZM77.7096 21.8402C77.7096 24.6729 79.2449 26.6794 81.2527 26.6794C82.9061 26.6794 84.4414 25.3811 84.4414 22.4303C84.4414 19.2435 82.788 17.5911 80.8984 17.5911C79.2449 17.5911 77.7096 19.0075 77.7096 21.8402Z" fill="white"/>
<path d="M100.739 22.0762C100.739 25.263 98.4955 27.2696 95.7792 27.2696C93.0628 27.2696 90.937 25.145 90.937 22.1943C90.937 19.4796 92.8266 17.001 96.0154 17.001C98.4955 17.001 100.739 19.0075 100.739 22.0762ZM92.4723 21.8402C92.4723 24.6729 94.0076 26.6794 96.1335 26.6794C97.7869 26.6794 99.2041 25.3811 99.2041 22.4303C99.2041 19.2435 97.6688 17.5911 95.6611 17.5911C94.0076 17.5911 92.4723 19.0075 92.4723 21.8402Z" fill="white"/>
<path d="M101.565 27.0289V26.6748C102.746 26.5568 102.865 26.4387 102.865 25.1404V19.0029C102.865 17.8226 102.746 17.7045 101.684 17.7045V17.2324H107.943C108.061 17.5865 108.061 18.6488 108.179 19.357L107.707 19.475C107.589 18.7668 107.471 18.4127 107.234 18.1767C106.998 17.8226 106.526 17.8226 105.699 17.8226H104.636C104.164 17.8226 104.164 17.8226 104.164 18.2947V21.3635C104.636 21.3635 105.108 21.3635 105.581 21.3635C107.943 21.3635 109.006 22.4257 109.006 23.9601C109.006 25.1404 108.533 25.9666 107.707 26.4387C106.998 26.9109 105.935 27.0289 104.754 27.0289H101.565ZM104.164 25.0224C104.164 26.2027 104.282 26.5568 105.345 26.5568C106.526 26.5568 107.589 25.9666 107.589 24.1962C107.589 22.5438 106.644 21.8356 104.99 21.8356C104.754 21.8356 104.4 21.8356 104.164 21.8356V25.0224Z" fill="white"/>
<path d="M113.614 17.2324C114.677 17.2324 115.504 17.4685 116.094 17.8226C116.685 18.2947 117.039 19.0029 117.039 19.9471C117.039 21.9536 115.622 22.8978 114.205 23.1339C113.969 23.1339 113.614 23.1339 113.496 23.1339L112.433 22.7798V25.1404C112.433 26.4387 112.551 26.5568 113.85 26.6748V27.0289H109.835V26.6748C111.016 26.5568 111.134 26.4387 111.134 25.1404V19.1209C111.134 17.8226 111.016 17.7045 109.953 17.7045V17.2324H113.614ZM112.433 22.3077C112.551 22.4257 113.024 22.5438 113.496 22.5438C114.441 22.5438 115.622 21.9536 115.622 20.0651C115.622 18.4127 114.559 17.7045 113.378 17.7045C112.906 17.7045 112.669 17.8226 112.551 17.9406C112.433 18.0586 112.433 18.1767 112.433 18.6488V22.3077Z" fill="white"/>
<path d="M122.59 27.0335V26.6794C123.417 26.5614 123.653 26.3253 123.417 25.7352C123.181 25.263 122.945 24.4368 122.59 23.4926H119.402C119.166 24.2008 118.929 24.7909 118.811 25.3811C118.457 26.3253 118.575 26.5614 119.638 26.6794V27.0335H116.449V26.6794C117.394 26.4433 117.63 26.4433 118.103 25.027L121.173 17.119L121.646 17.001C122.59 19.5976 123.535 22.4303 124.598 25.145C125.071 26.4433 125.189 26.5614 126.134 26.6794V27.0335H122.59ZM121.055 19.0075C120.583 20.3058 120.11 21.6041 119.638 22.7844H122.354L121.055 19.0075Z" fill="white"/>
<path d="M130.972 21.7222C132.271 21.8402 133.452 22.6664 133.452 24.3188C133.452 26.3253 131.563 27.2696 129.791 27.2696C128.965 27.2696 128.138 27.0335 127.429 26.5614C127.075 26.2073 126.721 25.7352 126.721 25.3811C126.721 25.027 126.957 24.7909 127.311 24.7909C127.429 24.7909 127.666 25.027 127.784 25.3811C128.256 26.4433 128.965 26.7974 129.909 26.7974C130.736 26.7974 132.035 26.2073 132.035 24.3188C132.035 22.9025 131.09 22.0762 130.146 22.0762C129.791 22.0762 129.437 22.1943 128.965 22.1943C128.61 22.1943 128.374 21.9582 128.374 21.7222C128.374 21.4861 128.61 21.25 128.965 21.25C129.437 21.25 129.791 21.3681 130.146 21.3681C130.854 21.3681 131.681 20.7779 131.681 19.5976C131.681 18.1813 130.854 17.5911 129.909 17.5911C128.492 17.5911 128.02 18.6534 127.666 19.7157H127.193C127.311 19.0075 127.429 18.0632 127.547 17.5911C127.902 17.4731 128.256 17.3551 128.61 17.237C128.847 17.119 129.555 17.001 130.146 17.001C131.917 17.001 132.98 17.9452 132.98 19.3616C132.98 20.0697 132.626 20.6599 132.271 21.014C131.799 21.25 131.445 21.4861 130.972 21.6041V21.7222Z" fill="white"/>
<path d="M144.556 22.0762C144.556 25.263 142.312 27.2696 139.596 27.2696C136.88 27.2696 134.754 25.145 134.754 22.1943C134.754 19.4796 136.644 17.001 139.832 17.001C142.312 17.001 144.556 19.0075 144.556 22.0762ZM136.289 21.8402C136.289 24.6729 137.825 26.6794 139.95 26.6794C141.604 26.6794 143.021 25.3811 143.021 22.4303C143.021 19.2435 141.486 17.5911 139.478 17.5911C137.825 17.5911 136.289 19.0075 136.289 21.8402Z" fill="white"/>
<path d="M150.344 21.7175C151.762 21.9536 152.943 22.6618 152.943 24.1962C152.943 25.1404 152.352 25.9666 151.525 26.4387C150.817 26.9109 149.754 27.0289 148.573 27.0289H145.266V26.6748C146.565 26.5568 146.683 26.4387 146.683 25.1404V19.1209C146.683 17.8226 146.683 17.7045 145.384 17.7045V17.2324H149.282C150.344 17.2324 151.053 17.4685 151.525 17.7045C151.998 18.0586 152.352 18.7668 152.352 19.475C152.352 20.8913 151.171 21.4815 150.344 21.7175ZM148.691 21.5995C150.226 21.5995 150.935 20.8913 150.935 19.711C150.935 18.6488 150.344 17.7045 148.927 17.7045C148.573 17.7045 148.337 17.8226 148.101 17.8226C147.982 17.9406 147.982 18.1767 147.982 18.6488V21.5995H148.691ZM147.982 25.1404C147.982 26.2027 148.219 26.5568 149.163 26.5568C150.344 26.5568 151.525 25.8486 151.525 24.3142C151.525 22.7798 150.463 22.0716 148.573 22.0716H147.982V25.1404Z" fill="white"/>
<path d="M159.438 27.0335V26.6794C160.383 26.5614 160.501 26.3253 160.383 25.7352C160.147 25.263 159.793 24.4368 159.556 23.4926H156.368C156.131 24.2008 155.895 24.7909 155.659 25.3811C155.423 26.3253 155.541 26.5614 156.604 26.6794V27.0335H153.415V26.6794C154.36 26.4433 154.478 26.4433 155.068 25.027L158.139 17.119L158.611 17.001C159.556 19.5976 160.501 22.4303 161.446 25.145C161.918 26.4433 162.155 26.5614 163.099 26.6794V27.0335H159.438ZM158.021 19.0075C157.549 20.3058 157.076 21.6041 156.604 22.7844H159.32L158.021 19.0075Z" fill="white"/>
<path d="M174.554 17.7045C173.373 17.8226 173.255 17.8226 173.255 19.1209V25.1404C173.255 26.4387 173.373 26.5568 174.554 26.6748V27.0289H170.539V26.6748C171.838 26.5568 171.956 26.4387 171.956 25.1404V22.1897H166.878V25.1404C166.878 26.4387 166.996 26.5568 168.177 26.6748V27.0289H164.279V26.6748C165.46 26.5568 165.578 26.4387 165.578 25.1404V19.1209C165.578 17.8226 165.46 17.8226 164.279 17.7045V17.2324H168.177V17.7045C166.996 17.8226 166.878 17.8226 166.878 19.1209V21.4815H171.956V19.1209C171.956 17.8226 171.838 17.8226 170.657 17.7045V17.2324H174.554V17.7045Z" fill="white"/>
<path d="M182.113 27.0289V26.6748C183.176 26.5568 183.412 26.4387 183.412 25.1404V21.2454C183.412 20.7733 183.412 19.8291 183.412 18.4127L178.688 26.3207C178.57 26.4387 178.57 26.6748 178.57 26.9109V27.0289H175.854V26.6748C177.035 26.5568 177.153 26.4387 177.153 25.0224V19.0029C177.153 17.8226 177.035 17.7045 175.854 17.7045V17.2324H179.633V17.7045C178.57 17.7045 178.334 17.8226 178.334 19.0029V22.6618C178.334 23.37 178.334 24.1962 178.334 25.6125L183.058 17.9406C183.176 17.7045 183.176 17.5865 183.176 17.3505V17.2324H185.892V17.7045C184.711 17.7045 184.593 17.8226 184.593 19.2389V25.1404C184.593 26.4387 184.711 26.5568 185.892 26.6748V27.0289H182.113Z" fill="white"/>
<path d="M195.692 17.7045C194.511 17.7045 194.393 17.8226 194.393 19.1209V25.1404C194.393 26.4387 194.511 26.5568 195.692 26.6748V27.0289H191.913V26.6748C192.976 26.5568 193.094 26.4387 193.094 25.1404V22.7798H192.622C191.795 22.7798 191.441 23.0159 191.086 23.7241C190.732 24.1962 190.496 24.7863 190.023 25.7306C189.315 26.9109 188.842 27.0289 188.016 27.0289H187.071V26.6748C187.661 26.5568 187.898 26.4387 188.252 26.0846C188.606 25.6125 188.96 24.9044 189.551 23.9601C190.141 22.8978 190.614 22.6618 191.086 22.5438C190.496 22.4257 188.606 21.8356 188.606 19.9471C188.606 18.6488 189.433 17.2324 192.031 17.2324H195.692V17.7045ZM193.094 18.4127C193.094 17.8226 192.976 17.7045 192.267 17.7045C190.378 17.8226 189.905 19.2389 189.905 20.0651C190.023 21.5995 191.086 22.1897 192.503 22.1897H193.094V18.4127Z" fill="white"/>
<path d="M4.01258 34.1074C5.07549 34.1074 5.9022 34.2255 6.4927 34.6976C7.08321 35.1697 7.43752 35.8779 7.43752 36.8221C7.43752 38.8286 6.0203 39.7728 4.48498 39.8909C4.36688 39.8909 4.01258 39.8909 3.89448 39.8909L2.71346 39.6548V42.0154C2.71346 43.3137 2.83156 43.3137 4.24878 43.4318V43.9039H0.115234V43.4318C1.41435 43.3137 1.53245 43.1957 1.53245 42.0154V35.9959C1.53245 34.6976 1.41435 34.5795 0.233336 34.4615V34.1074H4.01258ZM2.71346 39.1827C2.94967 39.1827 3.30397 39.3007 3.89448 39.3007C4.83929 39.3007 6.0203 38.8286 6.0203 36.9401C6.0203 35.2877 4.95739 34.5795 3.77637 34.5795C3.30397 34.5795 3.06777 34.6976 2.94967 34.8156C2.83156 34.8156 2.71346 35.0517 2.71346 35.4057V39.1827Z" fill="white"/>
<path d="M18.5416 38.8322C18.5416 42.1371 16.2977 44.1436 13.4632 44.1436C10.7469 44.1436 8.62109 42.019 8.62109 39.0683C8.62109 36.3536 10.5107 33.875 13.6994 33.875C16.1796 33.875 18.5416 35.8815 18.5416 38.8322ZM10.1564 38.7142C10.1564 41.5469 11.6917 43.5534 13.8175 43.5534C15.471 43.5534 17.0063 42.1371 17.0063 39.3044C17.0063 36.1176 15.3529 34.4651 13.3451 34.4651C11.6917 34.4651 10.1564 35.8815 10.1564 38.7142Z" fill="white"/>
<path d="M28.8136 41.4289C28.5774 42.1371 28.2231 43.1993 27.9869 43.6715C27.5145 43.7895 26.3335 44.1436 25.1524 44.1436C21.4913 44.1436 19.8379 41.5469 19.8379 39.0683C19.8379 35.9995 22.1999 33.875 25.6248 33.875C26.8059 33.875 27.8688 34.2291 28.2231 34.2291C28.3412 35.1733 28.4593 35.7635 28.5774 36.5897L28.105 36.7077C27.7507 35.0553 26.8059 34.4651 25.1524 34.4651C22.6723 34.4651 21.3732 36.5897 21.3732 38.8322C21.3732 41.665 23.0266 43.5534 25.2705 43.5534C26.8059 43.5534 27.6326 42.7272 28.3412 41.1928L28.8136 41.4289Z" fill="white"/>
<path d="M38.7325 41.4289C38.4963 42.1371 38.142 43.1993 37.9058 43.6715C37.4334 43.7895 36.2524 44.1436 35.1895 44.1436C31.4103 44.1436 29.7568 41.5469 29.7568 39.0683C29.7568 35.9995 32.237 33.875 35.5438 33.875C36.7248 33.875 37.7877 34.2291 38.2601 34.2291C38.3782 35.1733 38.3782 35.7635 38.4963 36.5897L38.0239 36.7077C37.6696 35.0553 36.7248 34.4651 35.1895 34.4651C32.5913 34.4651 31.2922 36.5897 31.2922 38.8322C31.2922 41.665 32.9456 43.5534 35.1895 43.5534C36.7248 43.5534 37.5515 42.7272 38.3782 41.1928L38.7325 41.4289Z" fill="white"/>
<path d="M45.8224 43.9039V43.4318C47.0034 43.3137 47.1215 43.3137 47.1215 42.0154V38.1204C47.1215 37.5303 47.1215 36.7041 47.2396 35.2877L42.3975 43.0777C42.2794 43.3137 42.2794 43.5498 42.2794 43.6678V43.9039H39.6812V43.4318C40.7441 43.3137 40.8622 43.1957 40.8622 41.8974V35.8779C40.8622 34.6976 40.7441 34.5795 39.6812 34.4615V34.1074H43.4604V34.4615C42.2794 34.5795 42.1613 34.6976 42.1613 35.8779V39.5368C42.1613 40.245 42.1613 40.9531 42.0432 42.4875H42.1613L46.8853 34.6976C47.0034 34.5795 47.0034 34.3435 47.0034 34.2255V34.1074H49.7198V34.4615C48.5387 34.5795 48.4206 34.6976 48.4206 36.1139V42.0154C48.4206 43.3137 48.5387 43.3137 49.7198 43.4318V43.9039H45.8224Z" fill="white"/>
<path d="M57.1598 43.9068V43.4347C58.3408 43.3166 58.4589 43.3166 58.4589 42.0183V38.1233C58.4589 37.5332 58.4589 36.707 58.577 35.2906H58.4589L53.7349 43.0806C53.6168 43.3166 53.6168 43.5527 53.6168 43.6707V43.9068H51.0186V43.4347C52.0815 43.3166 52.1996 43.1986 52.1996 41.9003V35.8808C52.1996 34.7005 52.0815 34.5824 51.0186 34.4644V34.1103H54.7978V34.4644C53.6168 34.5824 53.4987 34.7005 53.4987 35.8808V39.5397C53.4987 40.2479 53.4987 40.956 53.3806 42.4904H53.4987L58.2227 34.7005C58.3408 34.5824 58.3408 34.3464 58.3408 34.2284V34.1103H61.0572V34.4644C59.8761 34.5824 59.758 34.7005 59.758 36.1168V42.0183C59.758 43.3166 59.8761 43.3166 61.0572 43.4347V43.9068H57.1598ZM54.3254 32.1038C54.3254 31.8678 54.4435 31.5137 54.7978 31.5137C55.1521 31.5137 55.3883 31.8678 55.2702 32.2218C55.2702 32.5759 55.6245 32.812 56.0969 32.812C56.6874 32.812 56.9236 32.5759 56.9236 32.2218C56.9236 31.8678 57.0417 31.5137 57.396 31.5137C57.7503 31.5137 57.9865 31.8678 57.9865 32.1038C57.9865 32.93 57.2779 33.4021 56.0969 33.4021C55.034 33.4021 54.3254 32.93 54.3254 32.1038Z" fill="white"/>
<path d="M70.7384 41.4289C70.5022 42.1371 70.1479 43.1993 69.9117 43.6715C69.4393 43.7895 68.2583 44.1436 67.0772 44.1436C63.4161 44.1436 61.7627 41.5469 61.7627 39.0683C61.7627 35.9995 64.1247 33.875 67.5497 33.875C68.7307 33.875 69.7936 34.2291 70.1479 34.2291C70.266 35.1733 70.3841 35.7635 70.5022 36.5897L70.0298 36.7077C69.6755 35.0553 68.7307 34.4651 67.0772 34.4651C64.5971 34.4651 63.298 36.5897 63.298 38.8322C63.298 41.665 64.9514 43.5534 67.1953 43.5534C68.7307 43.5534 69.5574 42.7272 70.266 41.1928L70.7384 41.4289Z" fill="white"/>
<path d="M79.246 43.9075C78.3012 43.9075 77.9469 43.4354 77.4745 42.4912C77.2383 42.019 76.7658 41.1928 76.4115 40.3666C75.821 39.0683 75.2305 38.9503 74.1676 38.9503V42.019C74.1676 43.3174 74.2857 43.3174 75.4667 43.4354V43.9075H71.6875V43.4354C72.7504 43.3174 72.8685 43.3174 72.8685 42.019V35.8815C72.8685 34.7012 72.7504 34.5832 71.6875 34.4651V34.1111H75.4667V34.4651C74.2857 34.5832 74.1676 34.7012 74.1676 35.8815V38.4782C75.2305 38.4782 75.5848 38.3601 76.0572 37.888C76.5296 37.4159 76.884 36.7077 77.4745 35.4094C77.9469 34.3471 78.5374 33.875 79.246 33.875C79.7184 33.875 79.9546 34.1111 79.9546 34.4651C79.9546 34.7012 79.7184 34.9373 79.3641 34.9373H79.0098C78.4193 34.9373 78.065 35.5274 77.3564 36.9438C76.7658 38.1241 76.1753 38.4782 75.9391 38.5962C76.6477 38.8322 77.2383 39.1863 77.7107 40.0125C77.9469 40.4847 78.4193 41.3109 78.8917 42.2551C79.3641 43.1993 79.8365 43.3174 80.5451 43.4354V43.9075H79.246Z" fill="white"/>
<path d="M90.5811 38.8322C90.5811 42.1371 88.2191 44.1436 85.5028 44.1436C82.7865 44.1436 80.6606 42.019 80.6606 39.0683C80.6606 36.3536 82.5503 33.875 85.739 33.875C88.2191 33.875 90.5811 35.8815 90.5811 38.8322ZM82.196 38.7142C82.196 41.5469 83.7313 43.5534 85.8571 43.5534C87.5105 43.5534 89.0458 42.1371 89.0458 39.3044C89.0458 36.1176 87.3924 34.4651 85.3847 34.4651C83.7313 34.4651 82.196 35.8815 82.196 38.7142Z" fill="white"/>
<path d="M97.5479 43.9068V43.4347C98.6108 43.3166 98.8471 43.3166 98.8471 42.0183V38.1233C98.8471 37.5332 98.8471 36.707 98.8471 35.2906L94.0049 43.0806C93.8868 43.3166 93.8868 43.5527 93.8868 43.6707V43.9068H91.2886V43.4347C92.4696 43.3166 92.5877 43.1986 92.5877 41.9003V35.8808C92.5877 34.7005 92.4696 34.5824 91.2886 34.4644V34.1103H95.0678V34.4644C93.8868 34.5824 93.7687 34.7005 93.7687 35.8808V39.5397C93.7687 40.2479 93.7687 40.956 93.7687 42.4904L98.4927 34.7005C98.6108 34.5824 98.6108 34.3464 98.6108 34.2284V34.1103H101.327V34.4644C100.146 34.5824 100.028 34.7005 100.028 36.1168V42.0183C100.028 43.3166 100.146 43.3166 101.327 43.4347V43.9068H97.5479ZM94.5954 32.1038C94.5954 31.8678 94.8316 31.5137 95.0678 31.5137C95.5402 31.5137 95.6583 31.8678 95.6583 32.2218C95.6583 32.5759 95.8945 32.812 96.485 32.812C96.9574 32.812 97.1936 32.5759 97.1936 32.2218C97.1936 31.8678 97.4298 31.5137 97.7841 31.5137C98.1384 31.5137 98.2565 31.8678 98.2565 32.1038C98.2565 32.93 97.5479 33.4021 96.485 33.4021C95.304 33.4021 94.5954 32.93 94.5954 32.1038Z" fill="white"/>
<path d="M112.786 34.3463C111.842 34.4643 111.723 34.4643 111.723 35.2905C113.731 35.2905 116.211 35.9987 116.211 38.8314C116.211 41.5461 113.731 42.3723 111.723 42.3723C111.723 43.3165 111.842 43.4346 112.786 43.4346V43.9067H109.361V43.4346C110.306 43.4346 110.424 43.3165 110.424 42.3723C108.417 42.3723 105.937 41.6641 105.937 38.8314C105.937 36.1167 108.535 35.2905 110.424 35.2905C110.424 34.4643 110.306 34.4643 109.361 34.3463V33.9922H112.786V34.3463ZM110.424 36.4708C110.424 36.2348 110.424 35.9987 110.424 35.7626C108.889 35.7626 107.354 36.5888 107.354 38.8314C107.354 41.192 109.007 41.9002 110.424 41.9002C110.424 41.7821 110.424 41.6641 110.424 41.4281V36.4708ZM111.723 41.5461C111.723 41.6641 111.723 41.9002 111.723 41.9002C113.377 41.9002 114.912 41.074 114.912 38.8314C114.912 36.4708 113.259 35.7626 111.723 35.7626C111.723 35.9987 111.723 36.2348 111.723 36.4708V41.5461Z" fill="white"/>
<path d="M124.475 41.5433C124.357 42.0154 124.121 43.4318 123.884 43.9039H116.68V43.4318C118.097 43.3137 118.215 43.1957 118.215 42.0154V35.9959C118.215 34.6976 118.097 34.5795 116.916 34.4615V34.1074H123.648C123.648 34.4615 123.648 35.5238 123.766 36.232L123.294 36.35C123.176 35.7598 122.94 35.4057 122.821 35.0517C122.585 34.6976 122.231 34.5795 121.05 34.5795H119.987C119.515 34.5795 119.515 34.6976 119.515 35.0517V38.4745H120.814C122.231 38.4745 122.349 38.3565 122.467 37.4123H122.94V40.245H122.467C122.349 39.1827 122.231 39.0647 120.932 39.0647H119.515V41.8974C119.515 42.6056 119.515 42.9596 119.869 43.1957C120.105 43.3137 120.578 43.3137 121.404 43.3137C122.467 43.3137 122.94 43.1957 123.294 42.8416C123.53 42.4875 123.766 42.0154 124.002 41.4253L124.475 41.5433Z" fill="white"/>
<path d="M133.807 46.3825H133.335L133.099 45.0842C132.981 44.0219 132.745 43.9039 132.036 43.9039H127.312C126.485 43.9039 126.249 44.1399 126.013 45.0842L125.658 46.3825H125.186L125.304 43.3137H125.895C126.131 43.3137 126.249 43.3137 126.367 43.0777C127.312 41.3072 127.784 38.2385 127.784 35.5238C127.784 34.8156 127.548 34.6976 126.839 34.5795L126.249 34.4615V34.1074H133.926V34.4615C132.863 34.5795 132.745 34.6976 132.745 36.1139V42.4875C132.745 43.1957 132.745 43.3137 133.217 43.3137H134.044L133.807 46.3825ZM131.445 35.6418C131.445 34.6976 131.445 34.5795 130.855 34.5795H129.083C128.493 34.5795 128.493 34.6976 128.493 35.0517C128.493 37.6483 128.139 40.5991 127.43 42.8416C127.312 43.1957 127.312 43.3137 127.666 43.3137H130.501C131.209 43.3137 131.445 43.1957 131.445 42.2515V35.6418Z" fill="white"/>
<path d="M143.015 41.5433C142.897 42.0154 142.661 43.4318 142.425 43.9039H135.221V43.4318C136.638 43.3137 136.756 43.1957 136.756 42.0154V35.9959C136.756 34.6976 136.638 34.5795 135.457 34.4615V34.1074H142.071C142.071 34.4615 142.189 35.5238 142.189 36.232L141.834 36.35C141.716 35.7598 141.48 35.4057 141.362 35.0517C141.126 34.6976 140.771 34.5795 139.59 34.5795H138.528C138.055 34.5795 137.937 34.6976 137.937 35.0517V38.4745H139.354C140.771 38.4745 140.89 38.3565 141.008 37.4123H141.48V40.245H141.008C140.89 39.1827 140.771 39.0647 139.472 39.0647H137.937V41.8974C137.937 42.6056 138.055 42.9596 138.409 43.1957C138.646 43.3137 139.118 43.3137 139.945 43.3137C141.008 43.3137 141.48 43.1957 141.834 42.8416C142.071 42.4875 142.307 42.0154 142.543 41.4253L143.015 41.5433Z" fill="white"/>
<path d="M147.743 34.1074C148.806 34.1074 149.632 34.2255 150.223 34.6976C150.813 35.1697 151.168 35.8779 151.168 36.8221C151.168 38.8286 149.75 39.7728 148.333 39.8909C148.097 39.8909 147.743 39.8909 147.625 39.8909L146.444 39.6548V42.0154C146.444 43.3137 146.68 43.3137 147.979 43.4318V43.9039H143.963V43.4318C145.144 43.3137 145.262 43.1957 145.262 42.0154V35.9959C145.262 34.6976 145.144 34.5795 143.963 34.4615V34.1074H147.743ZM146.444 39.1827C146.68 39.1827 147.152 39.3007 147.625 39.3007C148.569 39.3007 149.75 38.8286 149.75 36.9401C149.75 35.2877 148.687 34.5795 147.506 34.5795C147.034 34.5795 146.798 34.6976 146.68 34.8156C146.562 34.8156 146.444 35.0517 146.444 35.4057V39.1827Z" fill="white"/>
<path d="M156.834 43.9075V43.4354C157.779 43.3174 157.897 43.1993 157.661 42.6092C157.425 42.019 157.188 41.1928 156.834 40.2486H153.645C153.409 40.9568 153.173 41.665 152.937 42.2551C152.701 43.1993 152.819 43.3174 153.882 43.4354V43.9075H150.693V43.4354C151.638 43.3174 151.756 43.1993 152.346 41.901L155.417 33.993L155.889 33.875C156.834 36.4717 157.897 39.3044 158.842 41.901C159.314 43.1993 159.432 43.3174 160.495 43.4354V43.9075H156.834ZM155.299 35.8815C154.826 37.1798 154.354 38.4782 153.882 39.6584H156.598L155.299 35.8815Z" fill="white"/>
<path d="M171.124 46.3825H170.652L170.534 45.0842C170.416 44.0219 170.18 43.9039 169.471 43.9039H161.558V43.4318C162.739 43.3137 162.857 43.3137 162.857 42.0154V35.8779C162.857 34.6976 162.739 34.5795 161.558 34.4615V34.1074H165.455V34.4615C164.274 34.5795 164.156 34.6976 164.156 35.8779V42.1334C164.156 43.1957 164.274 43.3137 165.219 43.3137H167.699C168.644 43.3137 168.762 43.1957 168.762 42.2515V35.9959C168.762 34.6976 168.644 34.5795 167.463 34.4615V34.1074H171.361V34.4615C170.18 34.5795 170.061 34.6976 170.061 35.9959V42.6056C170.061 43.1957 170.18 43.3137 170.652 43.3137H171.479L171.124 46.3825Z" fill="white"/>
<path d="M179.039 43.9039V43.4318C180.102 43.3137 180.338 43.3137 180.338 42.0154V38.1204C180.338 37.5303 180.338 36.7041 180.338 35.2877L175.496 43.0777C175.378 43.3137 175.378 43.5498 175.378 43.6678V43.9039H172.78V43.4318C173.843 43.3137 173.961 43.1957 173.961 41.8974V35.8779C173.961 34.6976 173.843 34.5795 172.78 34.4615V34.1074H176.559V34.4615C175.378 34.5795 175.26 34.6976 175.26 35.8779V39.5368C175.26 40.245 175.26 40.9531 175.142 42.4875H175.26L179.984 34.6976C180.102 34.5795 180.102 34.3435 180.102 34.2255V34.1074H182.818V34.4615C181.637 34.5795 181.519 34.6976 181.519 36.1139V42.0154C181.519 43.3137 181.637 43.3137 182.818 43.4318V43.9039H179.039Z" fill="white"/>
<path d="M190.258 43.9039V43.4318C191.439 43.3137 191.558 43.3137 191.558 42.0154V38.1204C191.558 37.5303 191.558 36.7041 191.676 35.2877L186.834 43.0777C186.715 43.3137 186.715 43.5498 186.715 43.6678V43.9039H184.117V43.4318C185.18 43.3137 185.298 43.1957 185.298 41.8974V35.8779C185.298 34.6976 185.18 34.5795 184.117 34.4615V34.1074H187.896V34.4615C186.715 34.5795 186.597 34.6976 186.597 35.8779V39.5368C186.597 40.245 186.597 40.9531 186.479 42.4875H186.597L191.321 34.6976C191.439 34.5795 191.439 34.3435 191.439 34.2255V34.1074H194.156V34.4615C192.975 34.5795 192.857 34.6976 192.857 36.1139V42.0154C192.857 43.3137 192.975 43.3137 194.156 43.4318V43.9039H190.258Z" fill="white"/>
</svg>
