<svg width="20" height="20" viewBox="0 0 20 20" fill="none" xmlns="http://www.w3.org/2000/svg">
<path d="M10 0C4.47715 0 0 4.47715 0 10C0 15.5229 4.47715 20 10 20C15.5229 20 20 15.5229 20 10C20 4.47715 15.5229 0 10 0ZM15.0633 9.07742C14.0014 9.07742 12.9682 8.73281 12.1727 8.14969L12.1663 12.1145C12.1657 12.8492 11.941 13.5662 11.5222 14.1698C11.1035 14.7735 10.5106 15.2351 9.82269 15.493C9.13479 15.7509 8.38459 15.7929 7.67219 15.6134C6.9598 15.4339 6.31909 15.0414 5.83558 14.4882C5.35206 13.9351 5.04873 13.2477 4.96606 12.5177C4.8834 11.7877 5.02532 11.0498 5.37291 10.4026C5.72049 9.75534 6.2572 9.22949 6.91141 8.89521C7.56562 8.56093 8.30622 8.43411 9.03437 8.53168V10.4788C8.69089 10.3773 8.32417 10.3865 7.98624 10.5052C7.6483 10.6238 7.3563 10.8459 7.15165 11.1398C6.94701 11.4338 6.8401 11.7847 6.8461 12.1428C6.8521 12.5009 6.97069 12.848 7.18507 13.1349C7.39944 13.4219 7.69871 13.634 8.04043 13.7413C8.38215 13.8486 8.74898 13.8455 9.08887 13.7326C9.42877 13.6197 9.72448 13.4026 9.93408 13.1122C10.1437 12.8217 10.2565 12.4727 10.2566 12.1145V4.27082H12.2595C12.2595 4.639 12.332 5.00358 12.4729 5.34373C12.6138 5.68389 12.8203 5.99296 13.0807 6.2533C13.341 6.51364 13.6501 6.72016 13.9902 6.86105C14.3304 7.00194 14.695 7.07446 15.0632 7.07445L15.0633 9.07742Z" fill="white"/>
</svg>
