<svg width="21" height="21" viewBox="0 0 21 21" fill="none" xmlns="http://www.w3.org/2000/svg">
<rect x="0.822266" width="20" height="20.5273" rx="10" fill="white"/>
<path fill-rule="evenodd" clip-rule="evenodd" d="M10.6757 5.29102C10.6511 7.30674 10.5157 8.43968 9.77196 9.1957C9.02821 9.95175 7.91367 10.0893 5.93066 10.1144V10.4124C7.91367 10.4374 9.02821 10.575 9.77196 11.3311C10.5157 12.0871 10.6511 13.22 10.6757 15.2357H10.9689C10.9935 13.22 11.1289 12.0871 11.8726 11.3311C12.6164 10.575 13.7309 10.4374 15.7139 10.4124V10.1144C13.7309 10.0893 12.6164 9.95175 11.8726 9.1957C11.1289 8.43968 10.9935 7.30674 10.9689 5.29102H10.6757Z" fill="#2B2B2B"/>
</svg>
