<svg width="27" height="16" viewBox="0 0 27 16" fill="none" xmlns="http://www.w3.org/2000/svg">
<path d="M0.881126 0C1.79361 0 3.18407 0 3.96621 0C4.35727 0 4.66144 0.260711 4.79179 0.608326C5.18286 1.73807 6.05189 4.21483 7.05129 5.90945C8.39829 8.12549 9.26733 8.95108 9.8322 8.86417C10.3971 8.73382 10.2233 7.25646 10.2233 6.08326C10.2233 4.91006 10.3536 2.91127 9.78875 1.99878L8.91971 0.738681C8.70246 0.434519 8.91971 0.043452 9.26733 0.043452H14.2208C14.6988 0.043452 15.0899 0.434518 15.0899 0.912489V7.213C15.0899 7.213 15.3071 8.34275 16.5238 7.16955C17.7404 5.99635 19.044 3.82376 20.1303 1.60772L20.5648 0.564874C20.6952 0.260711 20.9993 0.043452 21.3469 0.043452H24.5624C25.1707 0.043452 25.6052 0.651778 25.388 1.21665L25.0403 2.12914C25.0403 2.12914 23.8671 4.47554 22.6505 6.12671C21.4338 7.82133 21.1731 8.2124 21.3469 8.64691C21.5207 9.08143 24.6493 11.9927 25.4314 13.3832C25.6487 13.7742 25.8225 14.1218 25.9963 14.426C26.3004 14.9909 25.8659 15.7296 25.2142 15.7296H21.5642C21.26 15.7296 20.9559 15.5558 20.8255 15.295L20.4779 14.7302C20.4779 14.7302 18.2619 12.1231 16.9149 11.2975C15.5244 10.5153 15.5678 11.6451 15.5678 11.6451V13.948C15.5678 14.904 14.7857 15.6861 13.8298 15.6861H12.9607C12.9607 15.6861 8.18103 15.6861 4.35727 9.99392C1.3591 5.56183 0.359704 2.69401 0.0120896 1.04284C-0.0748141 0.521422 0.316252 0 0.881126 0Z" fill="white"/>
</svg>
