<svg width="41" height="32" viewBox="0 0 41 32" fill="none" xmlns="http://www.w3.org/2000/svg">
<path d="M16.0955 31.1368C16.3245 31.1379 16.5515 31.0939 16.7636 31.0073C16.9761 30.9205 17.1693 30.7926 17.3323 30.631C17.4958 30.4689 17.6255 30.276 17.714 30.0634C17.8026 29.8509 17.8482 29.623 17.8482 29.3927C17.8482 29.1625 17.8026 28.9345 17.714 28.722C17.6256 28.5097 17.496 28.317 17.3328 28.1549C17.3326 28.1548 17.3324 28.1546 17.3323 28.1545L5.10953 15.9464L17.3329 3.73779L17.333 3.73769C17.4955 3.57517 17.6244 3.38224 17.7124 3.1699C17.8004 2.95756 17.8456 2.72998 17.8456 2.50015C17.8456 2.27031 17.8004 2.04273 17.7124 1.83039C17.6244 1.61806 17.4955 1.42512 17.333 1.26261C17.1705 1.10009 16.9776 0.971176 16.7652 0.883222C16.5529 0.795269 16.3253 0.75 16.0955 0.75C15.8656 0.75 15.6381 0.795269 15.4257 0.883222C15.2134 0.971176 15.0205 1.10009 14.8579 1.26261L1.41237 14.7082C1.41222 14.7083 1.41208 14.7085 1.41193 14.7086C1.24867 14.8706 1.11908 15.0634 1.03061 15.2757C0.94207 15.4883 0.896484 15.7162 0.896484 15.9464C0.896484 16.1767 0.94207 16.4046 1.03061 16.6172C1.11908 16.8295 1.24867 17.0222 1.41193 17.1843C1.41208 17.1844 1.41222 17.1846 1.41237 17.1847L14.8579 30.6303L14.8587 30.631C15.0216 30.7926 15.2149 30.9205 15.4274 31.0073C15.6394 31.0939 15.8664 31.1379 16.0955 31.1368ZM16.0955 31.1368C16.095 31.1368 16.0945 31.1368 16.094 31.1368L16.0955 30.8868L16.0969 31.1368C16.0964 31.1368 16.096 31.1368 16.0955 31.1368Z" fill="#96A9C5" stroke="#96A9C5" stroke-width="0.5"/>
<path d="M2.64882 17.6902H38.5056C38.9682 17.6902 39.4118 17.5065 39.7388 17.1794C40.0659 16.8523 40.2496 16.4087 40.2496 15.9462C40.2496 15.4836 40.0659 15.04 39.7388 14.713C39.4118 14.3859 38.9682 14.2021 38.5056 14.2021H2.64882C2.18627 14.2021 1.74267 14.3859 1.4156 14.713C1.08853 15.04 0.904785 15.4836 0.904785 15.9462C0.904785 16.4087 1.08853 16.8523 1.4156 17.1794C1.74267 17.5065 2.18627 17.6902 2.64882 17.6902Z" fill="#96A9C5" stroke="#96A9C5" stroke-width="0.5"/>
</svg>
