<svg width="139" height="156" viewBox="0 0 139 156" fill="none" xmlns="http://www.w3.org/2000/svg">
<path d="M103.073 123.375C103.041 123.385 100.069 124.374 97.4887 124.374C96.0644 124.374 95.4892 124.079 95.3065 123.95C94.4035 123.321 92.7265 122.144 95.5967 116.425L100.972 105.707C104.159 99.343 104.632 93.1886 102.289 88.3726C100.375 84.4327 96.704 81.7291 91.9686 80.7616C90.2647 80.4122 88.534 80.2402 86.8194 80.2402C76.881 80.2402 70.1891 86.0452 69.9096 86.2925C68.9475 87.1417 68.7217 88.55 69.3614 89.6572C70.0064 90.7645 71.334 91.2697 72.5595 90.8505C72.5864 90.8397 75.5641 89.8454 78.1441 89.8454C79.5577 89.8454 80.1275 90.141 80.3049 90.2646C81.2132 90.8989 82.8956 92.0921 80.0307 97.8004L74.6557 108.523C71.463 114.893 70.9954 121.047 73.3389 125.858C75.2524 129.798 78.9181 132.501 83.6642 133.469C85.352 133.807 87.0827 133.99 88.792 133.99C98.7357 133.99 105.433 128.185 105.712 127.938C106.675 127.094 106.9 125.68 106.261 124.573C105.616 123.471 104.277 122.977 103.073 123.375Z" fill="#E2ECF3"/>
<path d="M98.5625 74.875C105.984 74.875 112 68.8588 112 61.4375C112 54.0162 105.984 48 98.5625 48C91.1412 48 85.125 54.0162 85.125 61.4375C85.125 68.8588 91.1412 74.875 98.5625 74.875Z" fill="#E2ECF3"/>
<circle cx="91" cy="91" r="86" stroke="#E2ECF3" stroke-width="10"/>
</svg>
