<svg width="104" height="24" viewBox="0 0 104 24" fill="none" xmlns="http://www.w3.org/2000/svg">
<path fill-rule="evenodd" clip-rule="evenodd" d="M14.5191 5.53725C14.5191 6.11915 14.0473 6.59076 13.4656 6.59076C12.8838 6.59076 12.4121 6.11915 12.4121 5.53725C12.4121 4.95535 12.8838 4.48374 13.4656 4.48374C14.0475 4.48374 14.5191 4.95535 14.5191 5.53725ZM8.77925 13.15C7.16304 13.15 5.85288 11.8398 5.85288 10.2236C5.85288 8.60738 7.16304 7.29721 8.77925 7.29721C10.3955 7.29721 11.7056 8.60738 11.7056 10.2236C11.7056 11.8398 10.3955 13.15 8.77925 13.15ZM8.77925 5.7153C6.28937 5.7153 4.27097 7.73371 4.27097 10.2236C4.27097 12.7135 6.28937 14.7319 8.77925 14.7319C11.2691 14.7319 13.2875 12.7135 13.2875 10.2236C13.2875 7.73371 11.2691 5.7153 8.77925 5.7153ZM8.77925 3.02625C11.1234 3.02625 11.4011 3.03516 12.3268 3.07741C13.1827 3.11651 13.6476 3.25945 13.9569 3.37975C14.3667 3.53901 14.6592 3.72927 14.9664 4.03655C15.2737 4.34368 15.464 4.63614 15.6232 5.04602C15.7434 5.35535 15.8865 5.82024 15.9256 6.67622C15.9678 7.60202 15.9767 7.87966 15.9767 10.2239C15.9767 12.5681 15.9678 12.8457 15.9256 13.7714C15.8865 14.6273 15.7435 15.0922 15.6232 15.4016C15.464 15.8113 15.2737 16.1038 14.9664 16.411C14.6593 16.7183 14.3668 16.9086 13.9569 17.0678C13.6476 17.188 13.1827 17.3311 12.3268 17.3702C11.4011 17.4124 11.1234 17.4213 8.77925 17.4213C6.43492 17.4213 6.15727 17.4124 5.23161 17.3702C4.37563 17.3311 3.91074 17.1881 3.60141 17.0678C3.19167 16.9086 2.89921 16.7183 2.59194 16.411C2.2848 16.1039 2.0944 15.8114 1.93514 15.4016C1.81497 15.0922 1.6719 14.6273 1.6328 13.7714C1.59055 12.8456 1.58164 12.5679 1.58164 10.2239C1.58164 7.87966 1.59055 7.60202 1.6328 6.67622C1.6719 5.82024 1.81484 5.35535 1.93514 5.04602C2.0944 4.63628 2.28466 4.34382 2.59194 4.03655C2.89907 3.72927 3.19153 3.53901 3.60141 3.37975C3.91074 3.25958 4.37563 3.11651 5.23161 3.07741C6.15741 3.03516 6.43505 3.02625 8.77925 3.02625ZM8.77925 1.44434C6.395 1.44434 6.09595 1.45449 5.15959 1.49715C4.22515 1.53981 3.58687 1.68823 3.02857 1.90525C2.45119 2.12953 1.96161 2.42981 1.47354 2.91788C0.985471 3.40595 0.685193 3.89553 0.460911 4.4729C0.243898 5.03135 0.0954743 5.66949 0.0528127 6.60393C0.010151 7.54029 0 7.83933 0 10.2236C0 12.6078 0.010151 12.9069 0.0528127 13.8432C0.0954743 14.7777 0.243898 15.4158 0.460911 15.9743C0.685193 16.5516 0.985471 17.0412 1.47354 17.5293C1.96161 18.0174 2.45119 18.3175 3.02857 18.5419C3.58701 18.7589 4.22515 18.9074 5.15959 18.95C6.09595 18.9927 6.395 19.0028 8.77925 19.0028C11.1635 19.0028 11.4625 18.9927 12.3989 18.95C13.3333 18.9074 13.9715 18.7589 14.5299 18.5419C15.1073 18.3175 15.5969 18.0174 16.085 17.5293C16.573 17.0412 16.8732 16.5516 17.0976 15.9743C17.3146 15.4158 17.463 14.7777 17.5057 13.8432C17.5483 12.9069 17.5585 12.6078 17.5585 10.2236C17.5585 7.83933 17.5483 7.54029 17.5057 6.60393C17.463 5.66949 17.3146 5.03135 17.0976 4.4729C16.8732 3.89553 16.573 3.40595 16.085 2.91788C15.5969 2.42981 15.1073 2.12967 14.5299 1.90525C13.9715 1.68823 13.3333 1.53981 12.3989 1.49715C11.4625 1.45449 11.1635 1.44434 8.77925 1.44434Z" fill="url(#paint0_radial)"/>
<path d="M59.2529 7.01405C59.4174 6.2354 59.5776 6.13243 60.3084 6.25514C60.4231 6.2744 60.5386 6.29417 60.6501 6.32606C61.3472 6.52524 61.4265 6.63486 61.4154 7.35419C61.3875 9.15219 61.3406 10.9503 61.3453 12.7482C61.3468 13.2969 61.4707 13.8493 61.5787 14.392C61.641 14.7049 61.8245 14.9723 62.1744 15.0395C62.548 15.1114 62.8358 14.9393 63.0457 14.6502C63.3955 14.1685 63.6114 13.649 63.5392 13.0246C63.3569 11.4501 63.477 9.89808 63.9924 8.39185C64.2331 7.68841 64.5918 7.05346 65.1388 6.52609C66.0989 5.60045 67.9142 5.60567 68.7226 6.82997C68.7543 6.87799 68.81 6.91014 68.8326 6.93018C68.942 6.70764 68.9953 6.39055 69.1551 6.32222C69.4046 6.21551 69.7264 6.26695 70.0172 6.27255C70.1431 6.27498 70.2709 6.32131 70.3927 6.3629C70.9781 6.5627 71.0357 6.64232 71.027 7.25143C70.9986 9.24383 70.9679 11.2362 70.9384 13.2286C70.9365 13.3538 70.9381 13.4791 70.9381 13.6512C71.0263 13.606 71.0823 13.5959 71.1049 13.5629C72.1003 12.1146 72.9053 10.5762 73.3485 8.86261C73.4108 8.62152 73.3878 8.47111 73.193 8.29021C72.7286 7.85901 72.6521 7.1015 72.9603 6.45082C73.2267 5.88827 73.8027 5.58133 74.4659 5.64839C74.992 5.70158 75.2543 5.97213 75.2815 6.50464C75.2926 6.72286 75.2833 6.94213 75.2833 7.23481C75.5269 7.19927 75.7861 7.16692 76.0433 7.12275C76.501 7.04417 76.9562 6.95091 77.4146 6.87726C78.452 6.7106 78.976 7.24987 78.7759 8.28486C78.6166 9.10917 78.4217 9.9269 78.2756 10.7534C78.0987 11.7544 78.0666 12.7628 78.3111 13.7588C78.384 14.0555 78.4976 14.3555 78.6559 14.6154C79.0001 15.1808 79.6205 15.2326 80.0496 14.7305C80.4397 14.2741 80.6153 13.761 80.5122 13.1233C80.1877 11.1175 80.369 9.16871 81.4295 7.38686C81.9634 6.48977 82.725 5.88621 83.847 5.88445C84.5712 5.88332 85.1469 6.16973 85.6134 6.70699C85.6862 6.79074 85.7639 6.8702 85.8562 6.96991C85.9446 6.28995 86.1495 6.13977 86.8071 6.23884C86.8966 6.25233 86.9856 6.26961 87.0743 6.28779C87.9321 6.46363 88.02 6.61883 88.0065 7.48717C87.976 9.45235 87.9689 11.4182 87.9808 13.3835C87.9831 13.75 88.0763 14.131 88.2022 14.4783C88.4531 15.1703 89.0947 15.2703 89.5502 14.6872C90.1037 13.9783 90.4427 13.1596 90.4638 12.2584C90.5075 10.3829 90.5051 8.50629 90.5217 6.63013C90.5267 6.07037 90.6127 6.00018 91.1734 6.10569C91.4401 6.15587 91.7069 6.20654 91.9715 6.26651C92.4594 6.37714 92.529 6.46831 92.5281 6.9859C92.5262 7.98224 92.5216 8.97858 92.5191 9.97493C92.519 10.0355 92.5279 10.0961 92.6127 10.1837C92.6646 10.0528 92.7192 9.92306 92.7679 9.79106C93.139 8.785 93.4795 7.76636 93.8889 6.77615C94.199 6.02585 94.4753 5.93227 95.2638 6.14526C95.413 6.18557 95.5585 6.24343 95.7011 6.30396C96.2305 6.52858 96.4879 6.91171 96.5068 7.50638C96.5493 8.85002 96.6339 10.1923 96.7047 11.535C96.7089 11.6153 96.7422 11.694 96.8461 11.7776C96.8874 11.5599 96.909 11.3361 96.9731 11.1253C97.4161 9.66878 97.8445 8.20718 98.3269 6.76366C98.5596 6.06723 98.8771 5.95198 99.5963 6.14079C99.7211 6.17356 99.8442 6.21486 99.9655 6.25926C101.024 6.64666 101.158 6.88043 101.138 8.00284C101.109 9.60573 101.083 11.2102 101.126 12.8121C101.141 13.3524 101.34 13.8957 101.507 14.4209C101.608 14.7349 101.843 14.9989 102.214 14.999C102.59 14.999 102.802 14.7162 102.919 14.4127C103.095 13.9569 103.209 13.4773 103.353 13.0091C103.391 12.887 103.418 12.7469 103.498 12.6572C103.561 12.5853 103.709 12.5317 103.797 12.5542C103.879 12.5748 103.985 12.7045 103.99 12.7916C104.045 13.7015 103.893 14.5767 103.421 15.3655C102.843 16.3307 101.503 16.5678 100.604 15.8858C99.7299 15.2232 99.3917 14.2675 99.3213 13.2438C99.2186 11.7495 99.2228 10.2479 99.181 8.74947C99.1787 8.66571 99.1724 8.58206 99.1623 8.39069C99.0575 8.53603 99.0009 8.59268 98.9697 8.66092C98.0652 10.6337 97.5171 12.6939 97.489 14.8735C97.4844 15.2299 97.3379 15.3844 97.0159 15.4626C96.291 15.6387 95.57 15.292 95.365 14.543C95.1685 13.8253 95.0492 13.0786 94.9766 12.3368C94.8671 11.2176 94.8285 10.0914 94.7569 8.96843C94.7491 8.8463 94.7229 8.72536 94.7052 8.60386C94.6718 8.59085 94.6383 8.57787 94.6048 8.56486C94.5113 8.6851 94.3959 8.79409 94.3278 8.9273C93.5402 10.4666 93.083 12.0992 92.9813 13.8266C92.9455 14.4333 92.9376 15.0415 92.9131 15.6489C92.8955 16.0832 92.7715 16.2561 92.3323 16.2577C91.8737 16.2594 91.4119 16.1824 90.9569 16.1073C90.6642 16.059 90.525 15.8563 90.5455 15.5452C90.561 15.3109 90.5486 15.0747 90.4839 14.8089C90.0048 15.7848 89.3522 16.4354 88.2047 16.2733C87.1134 16.1192 86.5585 15.3937 86.2764 14.2877C85.6412 15.3291 84.8934 16.1181 83.6925 16.2732C82.46 16.4323 81.563 15.925 80.9626 14.7829C80.8314 14.9925 80.7419 15.1428 80.6455 15.2886C79.8526 16.4877 78.3405 16.6493 77.2968 15.6603C76.6769 15.0728 76.354 14.3451 76.2172 13.5198C75.9647 11.9966 76.186 10.5027 76.5049 9.01615C76.6238 8.46181 76.6001 8.48836 76.0546 8.43147C75.2175 8.3442 74.7993 8.63121 74.5006 9.46355C73.7568 11.536 72.5858 13.383 71.1748 15.0769C71.0485 15.2287 70.9644 15.4637 70.961 15.6618C70.9402 16.8503 70.9964 18.042 70.9298 19.2271C70.8889 19.9554 70.7329 20.6909 70.5268 21.3932C70.1089 22.8178 68.8246 23.7645 67.4213 23.7679C65.2235 23.7733 64.0193 21.7587 65.1209 19.8585C65.4598 19.2738 65.9106 18.7369 66.3859 18.2523C67.1279 17.4958 67.907 16.7695 68.724 16.0954C69.198 15.7042 69.0575 15.2803 69.0429 14.7591C67.4251 16.927 65.059 16.8087 63.9565 14.6903C63.426 15.5752 62.853 16.4094 61.6581 16.276C60.5277 16.1497 59.9546 15.4095 59.6905 14.2652C58.9299 15.5402 57.9842 16.3862 56.4835 16.2869C54.8839 16.1811 54.3562 14.9802 53.8767 13.6029C53.7887 13.8121 53.7416 13.934 53.6868 14.0523C53.3577 14.764 52.9527 15.4208 52.3159 15.9042C51.5008 16.5228 50.4631 16.4342 49.7676 15.6798C49.0635 14.9161 48.8649 13.9567 48.7421 12.9708C48.7326 12.8943 48.7297 12.8169 48.7171 12.741C48.7136 12.7201 48.6861 12.7031 48.6306 12.6398C48.5776 12.7342 48.5289 12.8088 48.4917 12.8889C48.0118 13.9236 47.4081 14.871 46.4548 15.5316C44.9693 16.561 43.3609 16.5846 41.7127 16.0087C41.3821 15.8931 40.9826 15.7092 40.9842 15.2874C40.9861 14.7676 41.2807 14.3423 41.7247 14.0861C41.8734 14.0003 42.1546 14.0633 42.34 14.1416C42.5856 14.2454 42.7924 14.438 43.0234 14.5802C43.8701 15.1018 44.6656 14.7347 44.8345 13.7484C44.9332 13.1719 44.756 12.6464 44.4026 12.225C43.8667 11.5863 43.2622 11.0051 42.6373 10.3474C42.4957 10.5607 42.4096 10.6821 42.3319 10.8086C41.5746 12.0429 40.8553 13.3028 40.046 14.502C39.6771 15.0485 39.1563 15.5042 38.6546 15.9442C38.4256 16.145 38.0862 16.2562 37.7784 16.3232C37.2013 16.4488 36.6383 16.1853 36.4635 15.6194C36.2565 14.9491 36.0762 14.2375 36.0745 13.5433C36.07 11.7728 36.1729 10.0021 36.2264 8.23127C36.2304 8.10053 36.1827 7.96823 36.1591 7.83663C36.0378 7.91421 35.8878 7.96773 35.7996 8.073C34.6812 9.40755 34.003 10.9702 33.5423 12.6255C33.2451 13.6934 33.055 14.7907 32.7935 15.8692C32.7544 16.0303 32.6158 16.2395 32.4737 16.2917C31.5373 16.6359 30.829 16.1877 30.716 15.2028C30.6836 14.9208 30.6673 14.6351 30.6691 14.3513C30.6854 11.7763 30.7069 9.20142 30.7283 6.62652C30.7323 6.15132 30.7949 6.09448 31.2783 6.1213C31.4066 6.12841 31.5362 6.14468 31.6613 6.17376C32.632 6.39946 32.6775 6.451 32.6658 7.43224C32.6512 8.66126 32.6254 9.89014 32.6064 11.1191C32.6053 11.19 32.6213 11.2611 32.7142 11.3533C32.7584 11.2321 32.8058 11.1119 32.8462 10.9894C33.2476 9.7717 33.6576 8.55162 34.3948 7.49046C34.6904 7.06493 35.078 6.67416 35.4988 6.37209C36.0283 5.99195 36.6415 6.00013 37.2248 6.32553C37.4279 6.43885 37.6215 6.56906 37.82 6.69071C38.1975 6.92206 38.3636 7.25946 38.3453 7.70013C38.2916 8.99257 38.2264 10.2849 38.1993 11.5779C38.1847 12.2746 38.2365 12.9729 38.2645 13.6703C38.2691 13.7846 38.2931 13.902 38.3302 14.0105C38.4608 14.3926 38.6707 14.4724 38.9565 14.1965C39.242 13.9209 39.5123 13.6108 39.7153 13.2716C40.3859 12.1512 41.029 11.0141 41.6636 9.87278C41.7237 9.76469 41.7019 9.54673 41.6295 9.43959C41.1001 8.65577 41.0844 7.77892 41.6137 6.97C42.1267 6.18597 43.066 5.77748 43.9216 5.96631C44.3694 6.06513 44.5464 6.29253 44.562 6.7537C44.5856 7.4482 44.2166 7.98347 43.8591 8.5234C43.7389 8.70487 43.6001 8.87394 43.441 9.08723C43.945 9.46866 44.4408 9.83429 44.9257 10.2139C45.3121 10.5164 45.714 10.8072 46.0579 11.154C46.7003 11.8016 47.0332 12.5778 46.8653 13.5143C46.859 13.5496 46.8697 13.5884 46.8762 13.6249C46.8779 13.6345 46.8937 13.6415 46.9496 13.6908C47.1131 13.5075 47.2852 13.327 47.4433 13.135C48.2328 12.1762 48.7034 11.1139 48.6588 9.8315C48.6143 8.55205 48.6441 7.26961 48.6608 5.98875C48.6647 5.68244 48.567 5.58354 48.2635 5.58648C47.6946 5.59203 47.1252 5.54255 46.5563 5.54943C46.1874 5.55391 46.068 5.38637 46.1007 5.05203C46.1107 4.94909 46.1176 4.84527 46.1369 4.74393C46.2615 4.0906 46.3672 4.00546 47.0253 4.01938C47.491 4.02922 47.9584 4.01833 48.4218 4.0567C48.7277 4.08204 48.8006 3.9588 48.8059 3.688C48.8203 2.95086 48.8413 2.21352 48.8799 1.47731C48.9113 0.878118 49.0761 0.737024 49.6671 0.850287C50.0962 0.932535 50.522 1.0619 50.9264 1.22632C51.055 1.27861 51.1863 1.51128 51.1862 1.66136C51.1859 2.37231 51.1541 3.08422 51.1045 3.79374C51.0848 4.07546 51.1845 4.15756 51.4457 4.16828C52.2211 4.20018 52.9958 4.25018 53.7709 4.29049C54.0528 4.30515 54.2857 4.35397 54.2741 4.72357C54.2586 5.22017 54.0377 5.59455 53.7096 5.60397C52.9465 5.62586 52.183 5.64607 51.4198 5.64602C51.1336 5.64602 51.0482 5.74907 51.04 6.03185C50.9847 7.94543 50.8867 9.85812 50.8588 11.7719C50.8487 12.4626 50.9792 13.1575 51.0753 13.8463C51.1046 14.0562 51.2115 14.2648 51.3206 14.452C51.5547 14.8536 51.8476 14.9223 52.2249 14.6452C52.4399 14.4872 52.6375 14.2868 52.793 14.0698C53.3846 13.2435 53.7523 12.337 53.7674 11.299C53.787 9.95139 54.0069 8.64728 54.7045 7.46141C55.4341 6.22111 56.662 5.61627 57.8975 5.98805C58.3059 6.11096 58.6502 6.45442 59.0149 6.70982C59.1019 6.77077 59.153 6.88303 59.2529 7.01405ZM86.013 10.6847C85.985 10.6791 85.9568 10.6734 85.9288 10.6677C85.9116 10.306 85.9381 9.93544 85.8667 9.5848C85.7672 9.09594 85.6656 8.58475 85.4378 8.14967C85.003 7.31944 84.0459 7.24188 83.4508 7.96802C83.211 8.26068 83.0281 8.62302 82.9034 8.9828C82.485 10.1909 82.4221 11.4487 82.5882 12.7008C82.6696 13.3143 82.857 13.9434 83.1381 14.4929C83.476 15.1534 84.1422 15.2392 84.6497 14.694C85.0253 14.2905 85.3622 13.7813 85.5192 13.2598C85.7699 12.4274 85.8568 11.5456 86.013 10.6847ZM59.2865 10.4561C59.2777 10.2806 59.3034 9.93575 59.2341 9.61113C59.1273 9.11073 59.0294 8.58522 58.795 8.1403C58.3646 7.32328 57.4416 7.25439 56.8305 7.94683C56.6628 8.13692 56.5264 8.36747 56.4246 8.60082C55.8595 9.89592 55.7912 11.2659 55.9476 12.6376C56.0191 13.2641 56.2093 13.9089 56.4927 14.4714C56.8421 15.165 57.518 15.2282 58.0623 14.6664C58.3605 14.3586 58.6027 13.9702 58.7813 13.5777C59.207 12.6418 59.2718 11.6306 59.2865 10.4561ZM65.5521 11.9203C65.5606 12.0928 65.559 12.3913 65.5931 12.6858C65.6724 13.3705 65.8053 14.0423 66.2459 14.604C66.6641 15.1373 67.2511 15.2186 67.7117 14.7277C68.029 14.3896 68.3047 13.9685 68.465 13.535C68.9526 12.2164 69.0332 10.8363 68.8759 9.44846C68.8272 9.01896 68.7217 8.57545 68.5404 8.18573C68.1659 7.38086 67.2662 7.24397 66.6594 7.89284C66.4103 8.15912 66.2178 8.50034 66.0745 8.83915C65.6763 9.78052 65.5755 10.783 65.5521 11.9203ZM69.1707 17.2762C69.0645 17.3203 69.0198 17.325 68.9983 17.3497C68.3054 18.1475 67.558 18.9065 66.9456 19.7621C66.5913 20.2572 66.3933 20.8925 66.2387 21.4939C66.0944 22.0547 66.4119 22.545 66.8962 22.7622C67.3531 22.9671 67.9064 22.8589 68.2654 22.4337C68.469 22.1926 68.6403 21.9029 68.7494 21.6068C69.26 20.2199 69.1751 18.773 69.1707 17.2762Z" fill="#303030"/>
<path d="M28.6205 8.06915C28.6205 10.1123 28.6579 12.1564 28.6069 14.1983C28.5749 15.4767 28.2378 16.6901 27.2457 17.5986C26.9871 17.8353 26.6581 18.02 26.3302 18.1497C25.9366 18.3056 25.8023 18.155 25.9008 17.7344C26.0477 17.1069 26.2168 16.4842 26.3463 15.8533C26.4054 15.565 26.4076 15.262 26.4099 14.9655C26.442 10.8781 26.4695 6.79065 26.4982 2.70322C26.4985 2.65148 26.5098 2.59671 26.4967 2.54857C26.4617 2.41981 26.4163 2.29392 26.3749 2.16689C26.2666 2.22634 26.1406 2.26672 26.0529 2.34831C25.3735 2.98058 24.9501 3.77716 24.6392 4.63578C24.2461 5.7213 24.042 6.84308 24.2953 7.98423C24.4073 8.48869 24.694 8.95305 24.8846 9.44217C24.9448 9.59684 24.9504 9.77284 24.9809 9.93907C24.8133 9.96047 24.6318 10.0348 24.4802 9.99497C23.1251 9.63926 22.1089 8.06116 22.312 6.58113C22.6479 4.13421 23.9766 2.3352 26.0511 1.06773C26.8276 0.593356 27.7517 0.693563 28.4325 1.29411C28.5871 1.43055 28.6771 1.71848 28.6791 1.93775C28.6973 3.98142 28.6899 6.02527 28.6899 8.06909C28.6668 8.06906 28.6436 8.06912 28.6205 8.06915Z" fill="#303030"/>
<defs>
<radialGradient id="paint0_radial" cx="0" cy="0" r="1" gradientUnits="userSpaceOnUse" gradientTransform="translate(2.62158 19.0638) scale(22.4354)">
<stop stop-color="#FFB140"/>
<stop offset="0.2559" stop-color="#FF5445"/>
<stop offset="0.599" stop-color="#FC2B82"/>
<stop offset="1" stop-color="#8E40B7"/>
</radialGradient>
</defs>
</svg>
