<svg width="28" height="20" viewBox="0 0 28 20" fill="none" xmlns="http://www.w3.org/2000/svg">
<g filter="url(#filter0_f_3095_2188)">
<path d="M20.8517 13.0069C20.8173 12.9767 20.7316 12.1251 17.6305 12.1859C14.5294 12.2467 16.1529 12.3634 14.2258 12.1717C12.2985 11.9801 11.9683 11.897 9.395 11.9094C6.82165 11.9218 5.96369 11.8406 5.41029 12.1948C5.41029 12.1948 3.95007 14.0556 6.14099 14.1766C6.18068 14.1828 9.63964 13.7653 13.2829 14.1308C15.6985 14.3781 19.5509 15.2762 21.1874 15.0161C21.1874 15.0161 22.7703 14.7314 21.6201 13.853C21.6068 13.8199 21.3874 13.4748 20.8517 13.0069V13.0069Z" fill="#06243C"/>
</g>
<g filter="url(#filter1_f_3095_2188)">
<path d="M6.31641 14.0541C8.00499 13.8015 12.7958 13.9763 12.7958 13.9763C14.208 14.0286 18.7761 14.8498 18.7761 14.8498C19.3833 14.93 20.0701 15.1391 21.3364 14.8508C22.6023 14.5626 20.3545 12.7288 20.3545 12.7288C20.3545 12.7288 20.4991 12.4882 19.4826 12.3357C18.466 12.1832 19.364 12.4099 19.6812 12.6458C19.9985 12.8818 20.4744 13.1659 20.2641 13.4968C20.0537 13.8276 19.8837 14.4203 18.3258 14.2134C16.7682 14.0064 14.2998 13.772 13.0198 13.7947C11.7397 13.8175 10.3935 13.7446 9.79984 13.8135C9.20612 13.8825 6.80402 13.8368 6.31641 14.0541V14.0541Z" fill="#06243C"/>
</g>
<g filter="url(#filter2_f_3095_2188)">
<path d="M12.3913 12.2581C12.3913 12.2581 7.71733 11.8992 6.59 12.1537C5.46258 12.4082 5.23298 12.6422 5.46361 12.8136C5.69425 12.9852 6.93625 12.5326 7.81072 12.4138C8.68515 12.295 13.7501 12.4994 12.3913 12.2581V12.2581Z" fill="#06243C"/>
</g>
<path d="M3.31406 10.0565C3.31406 10.0565 3.49642 8.62471 5.29005 7.07736C7.08368 5.53005 6.60925 4.27583 7.68385 4.03961C8.75847 3.80339 11.0315 1.42171 12.6423 1.54478C14.2532 1.66782 14.9125 0.356608 15.9262 0.657225C16.94 0.957899 19.7443 1.02398 21.5891 3.23609C23.4338 5.44816 25.338 7.77966 25.9331 8.49706C26.5281 9.2146 27.3027 9.69371 26.7628 11.0052C26.2227 12.3168 26.3989 13.5106 25.6216 14.2249C24.8442 14.939 24.9024 15.5957 24.1308 13.7441C23.3594 11.8925 23.0033 11.0563 22.1117 9.56243C21.22 8.06858 21.3979 8.54636 20.5033 8.36532C19.6086 8.18423 19.6099 7.6472 20.2037 8.84197C20.7978 10.0368 21.4514 11.2914 21.4506 11.5898C21.45 11.8881 15.6635 11.1588 12.9185 11.2121C10.1735 11.2656 3.19266 10.9513 3.31406 10.0565V10.0565Z" fill="#E20513"/>
<path d="M3.95788 8.98395C3.95788 8.98395 6.004 7.41741 6.44968 6.37668C6.89538 5.33582 6.83075 4.67185 7.31635 4.59243C7.80198 4.513 8.81761 3.81899 9.39726 3.32816C9.97691 2.8375 11.8922 1.76518 12.6193 1.84253C13.3463 1.91975 14.0946 1.56276 14.2729 1.5776C14.4513 1.59236 14.085 3.1188 13.8027 3.63419C13.5204 4.14966 11.5484 5.06367 11.1028 6.10439C10.6571 7.14518 10.6671 7.50525 10.6128 8.1594C10.5584 8.81353 10.1821 9.74029 10.1821 9.74029C10.1821 9.74029 6.17448 10.371 5.55198 10.3165C4.92949 10.2622 3.75966 9.20701 3.95788 8.98395V8.98395Z" fill="url(#paint0_linear_3095_2188)"/>
<path d="M20.134 8.13279C19.9385 7.83297 20.6377 7.74719 20.6846 7.03267C20.7313 6.31814 20.8212 4.94874 20.8367 4.71052C20.8524 4.4723 20.9588 3.76171 21.1618 4.3133C21.3649 4.86478 21.3297 5.40066 21.6207 6.43625C21.9115 7.4719 21.7485 7.22206 21.9165 8.30942C22.0843 9.39684 22.6172 10.3885 22.3987 10.0752C22.18 9.76191 21.6743 8.35331 21.1981 8.32205C20.7216 8.29098 20.297 8.3827 20.134 8.13279Z" fill="url(#paint1_linear_3095_2188)"/>
<path d="M16.4819 1.40236C16.4819 1.40236 16.0954 1.72943 15.9898 2.04001C15.8841 2.35063 15.8149 2.70417 15.8514 3.22609C15.8878 3.74809 15.9606 3.83393 16.1358 4.12788C16.3109 4.42181 16.1721 4.64986 15.9079 4.46817C15.6436 4.28659 15.3858 4.02565 15.3988 3.38802C15.4119 2.75045 15.144 2.12944 15.4578 1.7164C15.7716 1.30349 16.4322 1.03888 16.4819 1.40236Z" fill="url(#paint2_linear_3095_2188)"/>
<path d="M19.7376 7.8404C19.7376 7.8404 18.0422 5.90331 17.1005 4.9869C16.1587 4.07035 15.8217 3.80279 15.8612 3.32716C15.9006 2.85138 15.6725 1.99417 15.9896 1.78106C16.3067 1.56782 16.3832 0.646135 16.7851 2.29612C17.1869 3.94623 18.2052 3.94095 18.7606 5.18463C19.316 6.42824 20.0744 7.3894 19.7376 7.8404V7.8404Z" fill="#771613" fill-opacity="0.501961"/>
<path d="M19.7049 7.79053C19.7049 7.79053 18.06 5.91109 17.1463 5.022C16.2325 4.13272 15.9055 3.87311 15.9439 3.41163C15.9822 2.95003 15.7608 2.11832 16.0685 1.91157C16.3762 1.70467 16.4559 0.808174 16.8458 2.40906C17.2356 4.01007 18.2181 4.0072 18.757 5.2138C19.2958 6.42039 20.0316 7.35297 19.7049 7.79053Z" fill="#721513" fill-opacity="0.501961"/>
<path d="M19.6703 7.74161C19.6703 7.74161 18.0758 5.91988 17.1902 5.05798C16.3044 4.19601 15.9875 3.94444 16.0246 3.49705C16.0618 3.04961 15.8472 2.24343 16.1454 2.04301C16.4436 1.84247 16.5267 0.971219 16.9046 2.52299C17.2825 4.07484 18.2292 4.07432 18.7515 5.24397C19.2738 6.41355 19.987 7.31748 19.6703 7.74161V7.74161Z" fill="#6D1313" fill-opacity="0.501961"/>
<path d="M19.6337 7.69367C19.6337 7.69367 18.0897 5.92959 17.2321 5.09495C16.3744 4.26031 16.0674 4.01668 16.1035 3.58345C16.1394 3.15016 15.9316 2.3695 16.2204 2.17544C16.5091 1.98124 16.5955 1.13524 16.9614 2.63791C17.3273 4.14059 18.2382 4.14247 18.7439 5.27505C19.2497 6.40763 19.9404 7.28295 19.6337 7.69367V7.69367Z" fill="#671311" fill-opacity="0.501961"/>
<path d="M19.5991 7.64576C19.5991 7.64576 18.1056 5.93934 17.2759 5.13202C16.4463 4.32463 16.1494 4.08895 16.1842 3.66997C16.219 3.25078 16.018 2.49562 16.2973 2.30792C16.5766 2.12006 16.6662 1.29925 17.0201 2.75275C17.3742 4.20646 18.2492 4.21061 18.7384 5.30625C19.2276 6.40176 19.8958 7.24848 19.5991 7.64576V7.64576Z" fill="#621311" fill-opacity="0.501961"/>
<path d="M19.5664 7.59686C19.5664 7.59686 18.1233 5.94808 17.3218 5.16808C16.5202 4.38795 16.2333 4.16022 16.267 3.7554C16.3005 3.35036 16.1063 2.6208 16.3763 2.43936C16.6461 2.25786 16.739 1.46229 17.081 2.86671C17.423 4.27125 18.2621 4.27778 18.7348 5.33635C19.2075 6.39492 19.8531 7.213 19.5664 7.59686V7.59686Z" fill="#5D1111" fill-opacity="0.501961"/>
<path d="M19.5318 7.54792C19.5318 7.54792 18.1392 5.95681 17.3656 5.20407C16.592 4.45126 16.3152 4.23147 16.3477 3.84082C16.3801 3.44994 16.1927 2.7459 16.4531 2.57082C16.7136 2.39566 16.8097 1.62534 17.1397 2.98067C17.4698 4.33603 18.2731 4.3449 18.7293 5.36647C19.1855 6.38802 19.8085 7.1775 19.5318 7.54792Z" fill="#59110F" fill-opacity="0.501961"/>
<path d="M19.4971 7.50011C19.4971 7.50011 18.155 5.96657 17.4095 5.24108C16.6639 4.51561 16.3971 4.30376 16.4284 3.92727C16.4597 3.55054 16.2791 2.87196 16.5301 2.70328C16.781 2.53448 16.8804 1.78935 17.1984 3.09556C17.5166 4.40184 18.284 4.41313 18.7237 5.39768C19.1634 6.38215 19.7637 7.14303 19.4971 7.50011V7.50011Z" fill="#540F0F" fill-opacity="0.501961"/>
<path d="M19.4625 7.45117C19.4625 7.45117 18.1709 5.97541 17.4534 5.27718C16.7359 4.57896 16.4791 4.37508 16.5092 4.01274C16.5393 3.65025 16.3654 2.99719 16.6071 2.83479C16.8486 2.67232 16.9512 1.95239 17.2573 3.2095C17.5635 4.46666 18.2951 4.4803 18.7182 5.42789C19.1413 6.3753 19.7191 7.1076 19.4625 7.45117V7.45117Z" fill="#4F0F0F" fill-opacity="0.501961"/>
<path d="M19.4259 7.40232C19.4259 7.40232 18.1847 5.98416 17.4953 5.31325C16.8058 4.64229 16.5591 4.44642 16.588 4.09816C16.6169 3.74979 16.4499 3.1223 16.682 2.96626C16.9141 2.81013 17.0199 2.11545 17.3141 3.32344C17.6083 4.53145 18.304 4.54749 18.7107 5.45803C19.1172 6.36848 19.6725 7.07212 19.4259 7.40232Z" fill="#490F0E" fill-opacity="0.501961"/>
<path d="M19.3913 7.3544C19.3913 7.3544 18.2006 5.99388 17.5391 5.3503C16.8777 4.70658 16.641 4.51867 16.6688 4.18458C16.6965 3.85038 16.5362 3.24841 16.7589 3.0987C16.9817 2.94892 17.0907 2.27949 17.3729 3.4384C17.6551 4.5973 18.3151 4.6156 18.7051 5.48912C19.0952 6.36258 19.6279 7.03763 19.3913 7.3544Z" fill="#440E0C" fill-opacity="0.501961"/>
<path d="M19.3586 7.30652C19.3586 7.30652 18.2183 6.00365 17.5849 5.38733C16.9516 4.77094 16.7248 4.59097 16.7514 4.27104C16.778 3.951 16.6246 3.37455 16.8378 3.23119C17.0511 3.08776 17.1633 2.44351 17.4336 3.55331C17.7039 4.66312 18.328 4.68383 18.7015 5.52033C19.0751 6.35672 19.5851 7.00317 19.3586 7.30652V7.30652Z" fill="#3F0C0C" fill-opacity="0.501961"/>
<path d="M19.324 7.25667C19.324 7.25667 18.2341 6.01145 17.6288 5.42237C17.0234 4.83332 16.8067 4.66128 16.8322 4.35553C16.8576 4.04971 16.7109 3.4987 16.9147 3.36171C17.1186 3.22461 17.2341 2.60562 17.4924 3.66626C17.7507 4.72696 18.3389 4.75007 18.6959 5.5495C19.053 6.34895 19.5405 6.96674 19.324 7.25667V7.25667Z" fill="#3A0C0C" fill-opacity="0.501961"/>
<path d="M19.2893 7.20778C19.2893 7.20778 18.2499 6.02021 17.6726 5.45845C17.0953 4.89664 16.8887 4.73258 16.9129 4.44098C16.9372 4.14924 16.7973 3.62385 16.9916 3.49325C17.186 3.36244 17.3048 2.76869 17.5512 3.78024C17.7976 4.79176 18.3499 4.81722 18.6904 5.57965C19.0309 6.34208 19.4958 6.93129 19.2893 7.20778Z" fill="#340A0A" fill-opacity="0.501961"/>
<path d="M19.2547 7.1609C19.2547 7.1609 18.2658 6.03097 17.7165 5.49648C17.1672 4.96199 16.9707 4.80594 16.9937 4.52844C17.0168 4.25093 16.8837 3.75098 17.0686 3.62672C17.2535 3.50227 17.3756 2.93371 17.61 3.89614C17.8443 4.85858 18.3609 4.88637 18.6848 5.61186C19.0088 6.33721 19.4512 6.89782 19.2547 7.1609V7.1609Z" fill="#2F0A0A" fill-opacity="0.501961"/>
<path d="M19.2181 7.11206C19.2181 7.11206 18.2797 6.03988 17.7585 5.53263C17.2372 5.02539 17.0506 4.87728 17.0725 4.61401C17.0944 4.3506 16.9681 3.87625 17.1436 3.75827C17.3191 3.64016 17.4444 3.09677 17.6668 4.01012C17.8892 4.92345 18.37 4.95366 18.6774 5.64213C18.9848 6.33039 19.4046 6.86242 19.2181 7.11206V7.11206Z" fill="#2A0A0A" fill-opacity="0.501961"/>
<path d="M19.1835 7.06319C19.1835 7.06319 18.2955 6.04866 17.8023 5.56873C17.3091 5.08875 17.1326 4.94859 17.1533 4.69948C17.174 4.45025 17.0545 4.00139 17.2205 3.88978C17.3867 3.77801 17.5151 3.25988 17.7256 4.12412C17.9361 4.98829 18.381 5.02083 18.6718 5.67228C18.9627 6.32362 19.36 6.82697 19.1835 7.06319Z" fill="#260808" fill-opacity="0.501961"/>
<path d="M19.1508 7.01435C19.1508 7.01435 18.3133 6.05745 17.8482 5.60481C17.3829 5.15215 17.2164 5.01994 17.236 4.78498C17.2555 4.54991 17.1428 4.12659 17.2994 4.0213C17.4561 3.91589 17.5878 3.42301 17.7863 4.23808C17.9849 5.05314 18.3939 5.08808 18.6682 5.70246C18.9426 6.3168 19.3173 6.79156 19.1508 7.01435V7.01435Z" fill="#210808" fill-opacity="0.501961"/>
<path d="M19.1162 6.96652C19.1162 6.96652 18.3291 6.06734 17.892 5.64187C17.4548 5.21653 17.2983 5.09228 17.3167 4.87149C17.3351 4.65059 17.2292 4.25271 17.3763 4.15384C17.5235 4.05477 17.6586 3.58708 17.8451 4.3531C18.0316 5.119 18.4049 5.15634 18.6626 5.73372C18.9205 6.31097 19.2726 6.75715 19.1162 6.96652V6.96652Z" fill="#1C0708" fill-opacity="0.501961"/>
<path d="M19.0815 6.91772C19.0815 6.91772 18.345 6.0762 17.9359 5.67804C17.5268 5.27997 17.3803 5.16372 17.3974 4.95703C17.4147 4.75029 17.3155 4.37798 17.4533 4.28539C17.591 4.19266 17.7293 3.75024 17.9039 4.4671C18.0785 5.18396 18.4158 5.22358 18.6571 5.76395C18.8984 6.30427 19.228 6.72178 19.0815 6.91772V6.91772Z" fill="#160707" fill-opacity="0.501961"/>
<path d="M19.0449 6.86895C19.0449 6.86895 18.3589 6.08507 17.9778 5.71424C17.5967 5.34343 17.4603 5.23513 17.4762 5.0426C17.4923 4.85001 17.4 4.50324 17.5282 4.41699C17.6566 4.33061 17.7981 3.91336 17.9607 4.5812C18.1234 5.2489 18.4249 5.29092 18.6496 5.79427C18.8744 6.29752 19.1813 6.68644 19.0449 6.86895Z" fill="#110507" fill-opacity="0.501961"/>
<path d="M19.0123 6.82115C19.0123 6.82115 18.3766 6.09492 18.0236 5.75135C17.6705 5.40785 17.5441 5.3075 17.559 5.12914C17.5739 4.95071 17.4883 4.62946 17.6071 4.54957C17.726 4.46952 17.8708 4.07753 18.0214 4.6962C18.1721 5.31479 18.4378 5.35916 18.646 5.82551C18.8543 6.29172 19.1387 6.65206 19.0123 6.82115V6.82115Z" fill="#0C0505" fill-opacity="0.501961"/>
<path d="M3.31406 10.0565C3.31406 10.0565 3.49642 8.62471 5.29005 7.07736C7.08368 5.53005 6.60925 4.27583 7.68385 4.03961C8.75847 3.80339 11.0315 1.42171 12.6423 1.54478C14.2532 1.66782 14.9125 0.356608 15.9262 0.657225C16.94 0.957899 19.7443 1.02398 21.5891 3.23609C23.4338 5.44816 25.338 7.77966 25.9331 8.49706C26.5281 9.2146 27.3027 9.69371 26.7628 11.0052C26.2227 12.3168 26.3989 13.5106 25.6216 14.2249C24.8442 14.939 24.9024 15.5957 24.1308 13.7441C23.3594 11.8925 23.0033 11.0563 22.1117 9.56243C21.22 8.06858 21.3979 8.54636 20.5033 8.36532C19.6086 8.18423 19.6099 7.6472 20.2037 8.84197C20.7978 10.0368 21.4514 11.2914 21.4506 11.5898C21.45 11.8881 15.6635 11.1588 12.9185 11.2121C10.1735 11.2656 3.19266 10.9513 3.31406 10.0565V10.0565Z" fill="#E20513" fill-opacity="0.360784"/>
<path d="M21.7992 11.4022C21.7563 11.3319 21.6498 9.3458 17.7922 9.48756C13.9346 9.62931 15.9541 9.9014 13.5569 9.45443C11.1595 9.00751 10.7488 8.81377 7.54775 8.84264C4.34667 8.87144 3.27942 8.68224 2.59103 9.50833C2.59103 9.50833 0.774607 13.8482 3.49997 14.1303C3.54934 14.1448 7.85207 13.171 12.384 14.0234C15.3889 14.6003 20.181 16.6948 22.2167 16.0883C22.2167 16.0883 24.1858 15.4242 22.755 13.3755C22.7384 13.2983 22.4655 12.4935 21.7992 11.4022V11.4022Z" fill="white"/>
<path d="M11.2728 9.65632C11.2728 9.65632 5.45868 8.81933 4.05635 9.41296C2.65391 10.0065 2.3683 10.5522 2.65519 10.952C2.9421 11.3521 4.48707 10.2965 5.57485 10.0195C6.66258 9.74249 12.9631 10.2191 11.2728 9.65632V9.65632Z" fill="white"/>
<path d="M23.9124 14.8586C23.9124 14.8586 23.4745 15.0706 23.1724 15.7779C22.9663 16.2604 22.7375 16.9951 22.984 17.5186C23.2503 18.0842 24.0227 19.3647 25.4545 19.0058C26.8863 18.6467 27.9939 17.6462 27.9799 17.0233C27.9657 16.4004 27.4643 15.211 27.2516 14.8433C26.7731 14.0161 25.1776 14.1682 25.1776 14.1682C25.1776 14.1682 24.2402 14.6246 23.9124 14.8586V14.8586Z" fill="white"/>
<path d="M23.7941 18.2595C23.7156 18.1922 27.7447 17.9082 26.6354 14.6582C26.6354 14.6582 28.3494 16.1409 27.4808 17.6434C27.4808 17.6434 25.6963 19.8884 23.7941 18.2595Z" fill="url(#paint3_linear_3095_2188)"/>
<defs>
<filter id="filter0_f_3095_2188" x="0.933594" y="7.9082" width="25.1055" height="11.1543" filterUnits="userSpaceOnUse" color-interpolation-filters="sRGB">
<feFlood flood-opacity="0" result="BackgroundImageFix"/>
<feBlend mode="normal" in="SourceGraphic" in2="BackgroundImageFix" result="shape"/>
<feGaussianBlur stdDeviation="2" result="effect1_foregroundBlur_3095_2188"/>
</filter>
<filter id="filter1_f_3095_2188" x="2.31641" y="8.28613" width="23.4062" height="10.7119" filterUnits="userSpaceOnUse" color-interpolation-filters="sRGB">
<feFlood flood-opacity="0" result="BackgroundImageFix"/>
<feBlend mode="normal" in="SourceGraphic" in2="BackgroundImageFix" result="shape"/>
<feGaussianBlur stdDeviation="2" result="effect1_foregroundBlur_3095_2188"/>
</filter>
<filter id="filter2_f_3095_2188" x="1.38281" y="8.0625" width="15.2383" height="8.78906" filterUnits="userSpaceOnUse" color-interpolation-filters="sRGB">
<feFlood flood-opacity="0" result="BackgroundImageFix"/>
<feBlend mode="normal" in="SourceGraphic" in2="BackgroundImageFix" result="shape"/>
<feGaussianBlur stdDeviation="2" result="effect1_foregroundBlur_3095_2188"/>
</filter>
<linearGradient id="paint0_linear_3095_2188" x1="8.73731" y1="10.6478" x2="9.51818" y2="1.2492" gradientUnits="userSpaceOnUse">
<stop stop-color="#5D0A00"/>
<stop offset="0.988235" stop-color="#BC1621"/>
<stop offset="1" stop-color="#BC1621"/>
</linearGradient>
<linearGradient id="paint1_linear_3095_2188" x1="20.036" y1="7.03992" x2="22.5141" y2="7.20234" gradientUnits="userSpaceOnUse">
<stop stop-color="#BC1621"/>
<stop offset="1" stop-color="#5D0A00"/>
</linearGradient>
<linearGradient id="paint2_linear_3095_2188" x1="15.7563" y1="4.53036" x2="16.0303" y2="1.23308" gradientUnits="userSpaceOnUse">
<stop stop-color="#F6B8A8"/>
<stop offset="0.270588" stop-color="white"/>
<stop offset="0.490196" stop-color="white"/>
<stop offset="0.768627" stop-color="white"/>
<stop offset="1" stop-color="#F6B8A8"/>
</linearGradient>
<linearGradient id="paint3_linear_3095_2188" x1="23.7489" y1="17.6127" x2="27.7705" y2="15.8977" gradientUnits="userSpaceOnUse">
<stop stop-color="white"/>
<stop offset="0.4" stop-color="#A8C6D8"/>
<stop offset="0.45098" stop-color="#A8C6D8"/>
<stop offset="0.560784" stop-color="#A8C6D8"/>
<stop offset="1" stop-color="white"/>
</linearGradient>
</defs>
</svg>
