<svg width="161" height="53" viewBox="0 0 161 53" fill="none" xmlns="http://www.w3.org/2000/svg">
<path d="M40.7629 10.1274H42.2225C42.355 8.79393 42.7902 7.76405 43.5275 7.03534C44.2642 6.3074 45.2755 5.94336 46.5611 5.94336C47.3265 5.94336 47.9878 6.0694 48.5455 6.31981C49.1035 6.57011 49.5611 6.92172 49.9211 7.37563C50.2803 7.82953 50.5469 8.37343 50.7216 9.00677C50.8967 9.63978 50.9847 10.3398 50.9847 11.1053C50.9847 12.7509 50.6085 14.0227 49.8571 14.9207C49.1058 15.8193 48.0119 16.2677 46.5748 16.2677C45.9036 16.2677 45.3135 16.1639 44.8027 15.9561C44.2929 15.748 43.8557 15.4573 43.4919 15.084C43.1277 14.7103 42.8394 14.2591 42.6266 13.7292C42.4138 13.2002 42.2794 12.6141 42.2225 11.9705H40.7629V16.0693H38.6646V6.14225H40.7629V10.1274ZM44.3498 11.1053C44.3498 11.5977 44.387 12.0465 44.4629 12.4528C44.5381 12.8594 44.6655 13.2098 44.8458 13.5024C45.0248 13.7959 45.2542 14.0227 45.5327 14.1836C45.8117 14.344 46.1589 14.4246 46.5748 14.4246C47.3218 14.4246 47.8721 14.1664 48.2274 13.6509C48.5811 13.1361 48.7586 12.2876 48.7586 11.1053C48.7586 10.6333 48.7253 10.1956 48.6591 9.7936C48.5935 9.39211 48.475 9.04203 48.3053 8.74437C48.1344 8.44627 47.91 8.21257 47.6317 8.04237C47.352 7.87216 47.0002 7.78734 46.5748 7.78734C45.8284 7.78734 45.2712 8.05434 44.9027 8.58857C44.5334 9.12302 44.3498 9.96226 44.3498 11.1053Z" fill="#67768C"/>
<path d="M57.6647 10.3832H54.5734V16.0701H52.4754V8.62451H57.6647V10.3832Z" fill="#67768C"/>
<path d="M58.2992 12.3542C58.2992 11.1254 58.6255 10.161 59.2776 9.46096C59.9294 8.76125 60.8609 8.41162 62.0702 8.41162C62.7034 8.41162 63.2564 8.51051 63.7294 8.70939C64.2022 8.90816 64.594 9.18417 64.9058 9.53886C65.2174 9.89432 65.4518 10.3099 65.608 10.7871C65.7641 11.2646 65.8416 11.7867 65.8416 12.3542C65.8416 12.96 65.7564 13.505 65.5863 13.9927C65.4166 14.4795 65.1701 14.8931 64.8489 15.2335C64.5281 15.5735 64.1328 15.8336 63.6651 16.013C63.1978 16.1932 62.6658 16.2827 62.0702 16.2827C61.4278 16.2827 60.8706 16.1832 60.3975 15.9855C59.9251 15.7862 59.5326 15.5099 59.2207 15.1559C58.9087 14.8009 58.677 14.3849 58.5263 13.9071C58.3751 13.4299 58.2992 12.912 58.2992 12.3542ZM60.3405 12.3542C60.3405 12.6666 60.3734 12.96 60.4401 13.2337C60.5059 13.5082 60.6078 13.7465 60.745 13.9497C60.8822 14.1535 61.0589 14.3164 61.2766 14.4389C61.494 14.5622 61.7587 14.6229 62.0702 14.6229C63.223 14.6229 63.8004 13.8671 63.8004 12.3542C63.8004 12.0235 63.7693 11.7185 63.7081 11.4394C63.6465 11.1607 63.5473 10.9191 63.4101 10.7161C63.2734 10.5129 63.0932 10.3553 62.8719 10.2416C62.6492 10.1277 62.3826 10.0707 62.0702 10.0707C61.5317 10.0707 61.1089 10.251 60.8016 10.6098C60.4944 10.9693 60.3405 11.5511 60.3405 12.3542Z" fill="#67768C"/>
<path d="M67.2605 8.62435H68.6783L68.9193 9.54578H69.0894C69.3824 9.1678 69.7225 8.88454 70.1101 8.695C70.4976 8.50612 70.9509 8.41162 71.4713 8.41162C72.4734 8.41162 73.2243 8.71159 73.7257 9.31207C74.2264 9.91245 74.477 10.8653 74.477 12.1697C74.477 12.7937 74.3964 13.3584 74.236 13.8643C74.0745 14.3705 73.8389 14.8054 73.5269 15.1695C73.215 15.5338 72.8298 15.8121 72.3714 16.0063C71.9131 16.1998 71.3864 16.2967 70.7905 16.2967C70.4692 16.2967 70.1899 16.266 69.9543 16.2044C69.7175 16.1428 69.4816 16.0602 69.2452 15.9567V18.8922H67.2605V8.62435ZM70.8614 10.0707C70.4081 10.0707 70.0585 10.1722 69.8125 10.3753C69.5664 10.5792 69.3777 10.8932 69.2452 11.3188V14.2117C69.4063 14.3442 69.585 14.4484 69.7842 14.524C69.9825 14.5993 70.2329 14.6372 70.5355 14.6372C71.1779 14.6372 71.6554 14.4372 71.9673 14.0349C72.2796 13.6329 72.4353 12.9921 72.4353 12.113C72.4353 11.4796 72.3153 10.9808 72.0739 10.6175C71.8324 10.2532 71.429 10.0707 70.8614 10.0707Z" fill="#67768C"/>
<path d="M81.5866 15.616C81.2657 15.8336 80.8802 15.9986 80.4311 16.1118C79.9819 16.2254 79.5166 16.2824 79.035 16.2824C78.3917 16.2824 77.8512 16.1874 77.4118 15.9986C76.972 15.8098 76.6124 15.5401 76.3342 15.1904C76.0552 14.8404 75.8536 14.4268 75.7313 13.9493C75.6084 13.4717 75.5468 12.9402 75.5468 12.3534C75.5468 11.1153 75.8521 10.149 76.4617 9.45392C77.0708 8.75894 77.9569 8.41162 79.1198 8.41162C79.6867 8.41162 80.1521 8.45578 80.5167 8.5461C80.8802 8.63609 81.2038 8.75158 81.4874 8.89343L81.0053 10.4816C80.7593 10.3777 80.5167 10.3002 80.2753 10.2475C80.0343 10.1959 79.753 10.1703 79.4313 10.1703C78.8362 10.1703 78.3797 10.3428 78.0635 10.6874C77.7469 11.0332 77.5884 11.5882 77.5884 12.3534C77.5884 12.6565 77.6261 12.9379 77.7024 13.1977C77.7779 13.4581 77.8961 13.6872 78.0566 13.8856C78.2169 14.0837 78.4196 14.24 78.6668 14.3532C78.9118 14.4671 79.1997 14.5241 79.5309 14.5241C79.9278 14.5241 80.242 14.4881 80.4737 14.4171C80.7054 14.3461 80.9248 14.2497 81.1331 14.1268L81.5866 15.616Z" fill="#67768C"/>
<path d="M85.5106 12.9783H84.8158V16.0696H82.8312V8.62451H84.8158V11.8437L85.454 11.5739L87.3536 8.62451H89.4943C89.1635 9.07765 88.8403 9.5342 88.5237 9.99239C88.2068 10.4513 87.8875 10.9072 87.5662 11.3611L86.6308 11.9856L87.6232 12.595C87.9824 13.1814 88.3463 13.7601 88.7151 14.3322C89.0836 14.9044 89.4471 15.4839 89.8067 16.0696H87.5096L85.5106 12.9783Z" fill="#67768C"/>
<path d="M95.7268 12.7086L95.8117 11.4464L94.919 12.6946L91.9837 16.07H90.793V8.62451H92.7777V12.1271L92.7071 13.1481H92.8773C92.9904 12.9877 93.1059 12.817 93.2245 12.638C93.3427 12.4582 93.4581 12.288 93.5717 12.1271L96.5204 8.62451H97.7116V16.07H95.7268V12.7086Z" fill="#67768C"/>
<path d="M104.481 12.7086L104.566 11.4465L103.673 12.6947L100.738 16.07H99.5473V8.62457H101.532V12.1272L101.461 13.1482H101.631C101.745 12.9877 101.86 12.8171 101.978 12.6381C102.096 12.4582 102.212 12.288 102.326 12.1272L105.274 8.62457H106.465V16.07H104.481V12.7086ZM102.099 5.97168C102.175 6.36933 102.307 6.63842 102.496 6.78027C102.685 6.92245 102.93 6.99311 103.233 6.99311C103.545 6.99311 103.793 6.91982 103.977 6.77368C104.162 6.62634 104.291 6.36472 104.367 5.98673L105.842 6.36932C105.719 6.9931 105.412 7.46129 104.92 7.77291C104.429 8.0854 103.843 8.24121 103.162 8.24121C102.832 8.24121 102.517 8.20791 102.219 8.14199C101.921 8.07573 101.65 7.96673 101.405 7.81554C101.158 7.66479 100.948 7.47096 100.773 7.23451C100.598 6.99805 100.478 6.70929 100.412 6.36932L102.099 5.97168Z" fill="#67768C"/>
<path d="M43.9526 27.4011H40.8616V33.088H38.7634V25.6421H43.9526V27.4011Z" fill="#67768C"/>
<path d="M44.5873 29.3722C44.5873 28.1435 44.9132 27.1786 45.5658 26.4789C46.2174 25.7793 47.1487 25.4297 48.358 25.4297C48.9911 25.4297 49.5445 25.5285 50.0172 25.7273C50.4899 25.9258 50.8816 26.2022 51.194 26.5569C51.5055 26.9119 51.7396 27.3278 51.8957 27.805C52.0519 28.2833 52.1297 28.8047 52.1297 29.3722C52.1297 29.9777 52.0445 30.5231 51.874 31.0103C51.7047 31.4976 51.4578 31.9107 51.137 32.2511C50.8158 32.591 50.4205 32.8523 49.9533 33.031C49.4859 33.2108 48.954 33.3004 48.358 33.3004C47.7155 33.3004 47.1583 33.2012 46.6856 33.003C46.2133 32.8043 45.8207 32.5278 45.5088 32.1731C45.1968 31.8186 44.9652 31.4026 44.814 30.9247C44.6629 30.4478 44.5873 29.93 44.5873 29.3722ZM46.6286 29.3722C46.6286 29.6843 46.6612 29.9777 46.7282 30.2517C46.7937 30.5262 46.8956 30.7646 47.0328 30.9677C47.1703 31.1716 47.347 31.334 47.5644 31.4568C47.7818 31.5797 48.0465 31.6413 48.358 31.6413C49.5112 31.6413 50.088 30.8855 50.088 29.3722C50.088 29.0412 50.0571 28.7365 49.9959 28.4574C49.9343 28.1787 49.8354 27.9368 49.6979 27.734C49.5611 27.531 49.3809 27.3728 49.16 27.2596C48.9373 27.1457 48.6707 27.0887 48.358 27.0887C47.8198 27.0887 47.3966 27.2686 47.0893 27.6275C46.782 27.9872 46.6286 28.5687 46.6286 29.3722Z" fill="#67768C"/>
<path d="M59.2393 32.6345C58.9185 32.852 58.5329 33.0167 58.0838 33.1306C57.6347 33.2434 57.1694 33.3004 56.6876 33.3004C56.0444 33.3004 55.5039 33.2054 55.0646 33.0167C54.6248 32.8274 54.2652 32.5585 53.9869 32.2085C53.7079 31.8592 53.5064 31.4452 53.384 30.9677C53.2611 30.4901 53.1995 29.9583 53.1995 29.3718C53.1995 28.1338 53.5049 27.1674 54.1145 26.4723C54.7235 25.7773 55.6097 25.4297 56.7726 25.4297C57.3399 25.4297 57.8048 25.4742 58.1695 25.5645C58.5329 25.6541 58.8564 25.77 59.1401 25.9118L58.658 27.5C58.412 27.3961 58.1695 27.3186 57.928 27.2659C57.6871 27.2143 57.4057 27.1883 57.084 27.1883C56.4889 27.1883 56.0325 27.3612 55.7162 27.7058C55.3997 28.0516 55.2412 28.6066 55.2412 29.3718C55.2412 29.6749 55.2784 29.9563 55.3551 30.2156C55.4303 30.4762 55.5488 30.7053 55.7093 30.9041C55.8697 31.1021 56.0728 31.2584 56.3192 31.372C56.5641 31.4859 56.8524 31.5429 57.1841 31.5429C57.5804 31.5429 57.8948 31.5065 58.1264 31.4352C58.3582 31.3646 58.5774 31.2677 58.7859 31.1448L59.2393 32.6345Z" fill="#67768C"/>
<path d="M63.7235 29.7693L64.0358 30.9603H64.1773L64.4462 29.7693L65.709 25.6426H67.7359L65.2692 32.3795C65.0611 32.9373 64.8651 33.4378 64.6806 33.8823C64.4966 34.3269 64.295 34.7044 64.0784 35.0173C63.8603 35.329 63.6178 35.567 63.348 35.7325C63.0783 35.8984 62.7595 35.9817 62.391 35.9817C62.1449 35.9817 61.9112 35.96 61.6892 35.9174C61.4668 35.8748 61.2758 35.8108 61.115 35.7259L61.5261 34.1944C61.6682 34.2409 61.814 34.2653 61.9655 34.2653C62.0976 34.2653 62.2259 34.251 62.3484 34.2219C62.4712 34.1944 62.5851 34.1397 62.6893 34.0595C62.7923 33.9788 62.8889 33.8649 62.9795 33.7187C63.0687 33.5723 63.1469 33.3765 63.2128 33.1308L59.8106 25.6426H62.2069L63.7235 29.7693Z" fill="#67768C"/>
<path d="M76.1425 34.7754H74.7534L74.498 33.0881H68.8554L68.5865 34.7754H67.1969V31.3294H68.1332C68.218 31.2167 68.3331 31.027 68.4803 30.7619C68.6264 30.498 68.7686 30.1382 68.9054 29.684C69.0418 29.2309 69.1604 28.6707 69.2596 28.004C69.3591 27.3373 69.413 26.5501 69.4232 25.6426H74.9518V31.3294H76.1425V34.7754ZM72.9671 31.4291V27.3021H71.1098C71.0908 27.6706 71.0528 28.0536 70.9963 28.4502C70.9394 28.8478 70.8689 29.2309 70.784 29.5998C70.6987 29.9682 70.5999 30.3131 70.4864 30.6348C70.3725 30.9562 70.2496 31.2209 70.1174 31.4291H72.9671Z" fill="#67768C"/>
<path d="M77.5105 26.1538C77.9364 25.9647 78.4579 25.8089 79.077 25.6856C79.6963 25.5626 80.336 25.501 80.9979 25.501C81.5179 25.501 81.9549 25.5626 82.3095 25.6856C82.664 25.8089 82.945 25.986 83.1531 26.2174C83.3603 26.4496 83.5099 26.7279 83.5999 27.0542C83.6885 27.3802 83.7343 27.7419 83.7343 28.1393C83.7343 28.6214 83.7153 29.0986 83.6773 29.5715C83.6397 30.044 83.6207 30.5452 83.6207 31.0751C83.6207 31.4341 83.6448 31.7837 83.6917 32.1248C83.7389 32.4652 83.8148 32.7911 83.918 33.1031H82.3021L81.9762 31.9961H81.8061C81.5605 32.3275 81.2481 32.6116 80.8707 32.8473C80.4925 33.0841 80.0058 33.2016 79.41 33.2016C79.0507 33.2016 78.7229 33.15 78.4249 33.0462C78.1269 32.9422 77.8716 32.793 77.6592 32.6C77.4465 32.4058 77.2811 32.1767 77.1633 31.9116C77.0447 31.6465 76.9858 31.358 76.9858 31.046C76.9858 30.2053 77.2671 29.5695 77.8294 29.1389C78.3916 28.7086 79.2449 28.4935 80.3887 28.4935C80.653 28.4935 80.9173 28.5156 81.1819 28.5575C81.4469 28.5998 81.631 28.6311 81.7348 28.6505C81.7632 28.4509 81.7782 28.2814 81.7782 28.1393C81.7782 27.7798 81.6876 27.5147 81.5085 27.3449C81.3284 27.1744 80.9924 27.0895 80.5023 27.0895C80.0477 27.0895 79.606 27.1445 79.1762 27.2528C78.7462 27.3612 78.3664 27.4961 78.0348 27.657L77.5105 26.1538ZM80.1047 31.6139C80.5483 31.6139 80.9037 31.5104 81.1684 31.3014C81.4322 31.0941 81.6264 30.8762 81.7495 30.6491V29.7986C81.7023 29.7793 81.6287 29.7611 81.5295 29.742C81.4311 29.723 81.3218 29.704 81.2032 29.685C81.0854 29.666 80.9676 29.6521 80.8494 29.6424C80.7312 29.6332 80.6236 29.6281 80.5298 29.6281C80.0198 29.6281 79.6413 29.7203 79.3956 29.9049C79.1503 30.0894 79.0271 30.3188 79.0271 30.5928C79.0271 30.9328 79.1239 31.1879 79.3181 31.358C79.5115 31.5278 79.7742 31.6139 80.1047 31.6139Z" fill="#67768C"/>
<path d="M85.5347 25.6425H86.9521L87.1935 26.5643H87.3637C87.6562 26.186 87.9968 25.9026 88.3843 25.7131C88.7718 25.5239 89.2248 25.4297 89.7452 25.4297C90.7476 25.4297 91.4981 25.7298 91.9999 26.3301C92.5006 26.9306 92.7509 27.8834 92.7509 29.1877C92.7509 29.8118 92.6703 30.377 92.5098 30.8824C92.3487 31.3883 92.1131 31.8236 91.8008 32.188C91.4892 32.5523 91.1041 32.8302 90.6453 33.024C90.1868 33.2171 89.6603 33.3148 89.0647 33.3148C88.7435 33.3148 88.4641 33.2841 88.2281 33.2226C87.9914 33.1613 87.7555 33.078 87.5194 32.9748V35.9103H85.5347V25.6425ZM89.1352 27.0887C88.6818 27.0887 88.3323 27.1903 88.0867 27.3934C87.8403 27.5977 87.652 27.9116 87.5194 28.3365V31.2297C87.6802 31.3631 87.8593 31.4666 88.0584 31.5418C88.2564 31.6174 88.5068 31.6557 88.8094 31.6557C89.4522 31.6557 89.9296 31.455 90.2415 31.053C90.5535 30.651 90.7092 30.0103 90.7092 29.1312C90.7092 28.4974 90.5887 27.9989 90.3476 27.6353C90.1067 27.2713 89.7026 27.0887 89.1352 27.0887Z" fill="#67768C"/>
<path d="M99.8601 32.6345C99.5393 32.852 99.1541 33.0167 98.705 33.1306C98.2555 33.2434 97.7901 33.3004 97.3085 33.3004C96.6657 33.3004 96.1247 33.2054 95.6857 33.0167C95.2455 32.8274 94.8863 32.5585 94.6077 32.2085C94.3291 31.8592 94.1276 31.4452 94.0052 30.9677C93.8824 30.4901 93.8208 29.9583 93.8208 29.3718C93.8208 28.1338 94.1261 27.1674 94.7352 26.4723C95.3443 25.7773 96.2305 25.4297 97.3934 25.4297C97.9602 25.4297 98.4256 25.4742 98.7903 25.5645C99.1541 25.6541 99.4777 25.77 99.7613 25.9118L99.2789 27.5C99.0331 27.3961 98.7903 27.3186 98.5489 27.2659C98.3078 27.2143 98.0269 27.1883 97.7049 27.1883C97.1101 27.1883 96.6533 27.3612 96.3375 27.7058C96.0205 28.0516 95.862 28.6066 95.862 29.3718C95.862 29.6749 95.8996 29.9563 95.9759 30.2156C96.0515 30.4762 96.1697 30.7053 96.3301 30.9041C96.4905 31.1021 96.6931 31.2584 96.9404 31.372C97.1853 31.4859 97.4735 31.5429 97.8048 31.5429C98.2012 31.5429 98.5155 31.5065 98.7472 31.4352C98.9786 31.3646 99.1982 31.2677 99.4067 31.1448L99.8601 32.6345Z" fill="#67768C"/>
<path d="M107.275 27.4011H104.964V33.088H102.894V27.4011H100.583V25.6421H107.275V27.4011Z" fill="#67768C"/>
<path d="M108.324 25.6427C108.711 25.614 109.164 25.5857 109.684 25.557C110.205 25.5291 110.776 25.5151 111.4 25.5151C112.572 25.5151 113.404 25.6706 113.895 25.9827C114.387 26.2943 114.632 26.7579 114.632 27.3726C114.632 27.7227 114.524 28.0584 114.306 28.3793C114.089 28.7011 113.748 28.9426 113.286 29.1034V29.2166C113.872 29.3391 114.299 29.5495 114.569 29.8476C114.838 30.145 114.973 30.5306 114.973 31.0031C114.973 31.7408 114.661 32.294 114.037 32.6626C113.413 33.0312 112.421 33.2157 111.06 33.2157C110.615 33.2157 110.145 33.2038 109.65 33.18C109.153 33.1568 108.711 33.1262 108.324 33.0882V25.6427ZM111.471 28.6774C111.849 28.6774 112.156 28.6046 112.393 28.4577C112.629 28.3119 112.747 28.12 112.747 27.8836C112.747 27.6285 112.645 27.4289 112.442 27.2881C112.239 27.146 111.873 27.0754 111.343 27.0754C111.155 27.0754 110.998 27.0796 110.876 27.0889C110.752 27.0983 110.639 27.1083 110.535 27.118C110.497 27.118 110.45 27.1196 110.394 27.1246C110.337 27.1292 110.294 27.1316 110.266 27.1316V28.6774H111.471ZM110.266 31.5711C110.455 31.609 110.618 31.6323 110.755 31.6412C110.892 31.6513 111.055 31.6559 111.244 31.6559C111.887 31.6559 112.333 31.5772 112.584 31.4217C112.834 31.2656 112.96 31.0411 112.96 30.7481C112.96 30.4834 112.851 30.2682 112.634 30.1031C112.416 29.9376 112.019 29.855 111.443 29.855H110.266V31.5711Z" fill="#67768C"/>
<path d="M122.749 32.4066C122.427 32.6532 121.991 32.8628 121.438 33.0384C120.884 33.2129 120.292 33.3009 119.658 33.3009C118.382 33.3009 117.447 32.9516 116.851 32.2508C116.256 31.5519 115.958 30.5921 115.958 29.3719C115.958 28.0776 116.293 27.0958 116.965 26.4295C117.636 25.7627 118.581 25.4297 119.8 25.4297C120.197 25.4297 120.589 25.479 120.977 25.5782C121.364 25.6778 121.709 25.8429 122.012 26.0748C122.314 26.3062 122.558 26.6178 122.742 27.0105C122.926 27.4035 123.018 27.8877 123.018 28.4644C123.018 28.663 123.007 28.8807 122.983 29.1172C122.959 29.3533 122.919 29.5995 122.862 29.8545H117.9C117.948 30.4976 118.134 30.9721 118.46 31.2794C118.786 31.5868 119.318 31.7403 120.055 31.7403C120.5 31.7403 120.899 31.6771 121.253 31.5488C121.607 31.4217 121.879 31.2922 122.068 31.1593L122.749 32.4066ZM119.772 26.9892C119.186 26.9892 118.751 27.1477 118.468 27.4644C118.184 27.7815 118.018 28.1862 117.971 28.6769H121.175C121.213 28.1571 121.119 27.7461 120.892 27.4431C120.665 27.1407 120.291 26.9892 119.772 26.9892Z" fill="#67768C"/>
<path d="M129.392 30.2088H126.571V33.0881H124.587V25.6426H126.571V28.4075H129.392V25.6426H131.377V33.0881H129.392V30.2088Z" fill="#67768C"/>
<path d="M138.019 30.2088H135.198V33.0881H133.213V25.6426H135.198V28.4075H138.019V25.6426H140.004V33.0881H138.019V30.2088Z" fill="#67768C"/>
<path d="M143.824 28.3087C144.116 28.261 144.407 28.228 144.696 28.2094C144.984 28.1904 145.227 28.1815 145.426 28.1815C145.965 28.1815 146.416 28.2404 146.78 28.3579C147.143 28.4764 147.439 28.6396 147.666 28.8474C147.893 29.0559 148.055 29.3013 148.155 29.5851C148.254 29.8688 148.304 30.1715 148.304 30.4929C148.304 30.9375 148.24 31.3267 148.112 31.6631C147.985 31.9992 147.777 32.2794 147.489 32.5062C147.2 32.7333 146.827 32.904 146.369 33.0179C145.91 33.1307 145.35 33.1877 144.689 33.1877C144.065 33.1877 143.528 33.1803 143.079 33.1659C142.63 33.1524 142.217 33.1307 141.839 33.102V25.6426H143.824V28.3087ZM143.824 31.429C144.003 31.467 144.18 31.4934 144.355 31.5069C144.53 31.5213 144.693 31.5274 144.845 31.5274C145.355 31.5274 145.719 31.448 145.936 31.2871C146.154 31.1267 146.262 30.8666 146.262 30.5069C146.262 30.2049 146.154 29.9708 145.936 29.8053C145.719 29.6397 145.374 29.5568 144.901 29.5568C144.505 29.5568 144.145 29.5998 143.824 29.6847V31.429ZM149.367 25.6426H151.352V33.0885H149.367V25.6426Z" fill="#67768C"/>
<path d="M158.122 29.7271L158.207 28.465L157.314 29.7128L154.379 33.0883H153.188V25.6427H155.173V29.1453L155.102 30.1663H155.272C155.386 30.0062 155.501 29.8356 155.619 29.6565C155.737 29.4767 155.854 29.3066 155.967 29.1453L158.915 25.6427H160.107V33.0883H158.122V29.7271ZM155.74 22.9902C155.816 23.3876 155.948 23.6569 156.136 23.7987C156.326 23.9407 156.571 24.0116 156.875 24.0116C157.186 24.0116 157.434 23.9379 157.619 23.7922C157.803 23.6449 157.932 23.3833 158.008 23.0053L159.483 23.3876C159.36 24.0116 159.053 24.4794 158.561 24.7915C158.07 25.104 157.484 25.2593 156.803 25.2593C156.472 25.2593 156.158 25.2264 155.86 25.1605C155.562 25.0942 155.291 24.9853 155.046 24.8341C154.8 24.6833 154.589 24.4895 154.414 24.2527C154.239 24.0163 154.119 23.7278 154.053 23.3876L155.74 22.9902Z" fill="#67768C"/>
<path d="M41.4854 46.7882L41.7976 47.9793H41.9391L42.2084 46.7882L43.4708 42.6611H45.4974L43.031 49.3981C42.823 49.9566 42.6269 50.4571 42.4425 50.9017C42.2584 51.3455 42.057 51.7234 41.8404 52.0358C41.6221 52.3479 41.3796 52.5863 41.1099 52.7526C40.8402 52.9169 40.5217 53.0002 40.1528 53.0002C39.9068 53.0002 39.6731 52.9789 39.4515 52.936C39.229 52.8933 39.0376 52.8301 38.8768 52.7444L39.2879 51.2133C39.4302 51.2606 39.5762 51.2843 39.7274 51.2843C39.8595 51.2843 39.9877 51.2706 40.1102 51.2416C40.233 51.2133 40.3469 51.1587 40.4511 51.078C40.5543 50.9986 40.6507 50.8846 40.7414 50.7381C40.8309 50.5919 40.9091 50.3958 40.9746 50.1501L37.5726 42.6611H39.9687L41.4854 46.7882Z" fill="#67768C"/>
<path d="M51.2577 47.2275H48.436V50.1075H46.4514V42.6616H48.436V45.4274H51.2577V42.6616H53.2425V50.1075H51.2577V47.2275Z" fill="#67768C"/>
<path d="M60.0122 46.7457L60.097 45.4836L59.2042 46.7321L56.269 50.1076H55.0787V42.6621H57.063V46.1638L56.9921 47.1849H57.1625C57.2761 47.0248 57.3912 46.8542 57.5097 46.6752C57.6276 46.4953 57.7438 46.3256 57.8569 46.1638L60.8058 42.6621H61.9969V50.1076H60.0122V46.7457Z" fill="#67768C"/>
<path d="M63.8323 42.6607C64.2198 42.6327 64.6731 42.6037 65.1928 42.5758C65.7127 42.5472 66.2851 42.5332 66.9086 42.5332C68.0808 42.5332 68.9122 42.6893 69.4036 43.0014C69.895 43.3134 70.141 43.7767 70.141 44.391C70.141 44.7411 70.0325 45.0772 69.8151 45.3977C69.5973 45.7199 69.2571 45.961 68.7948 46.1218V46.2346C69.3804 46.3578 69.8081 46.5684 70.0771 46.8657C70.3464 47.1638 70.4816 47.5487 70.4816 48.0212C70.4816 48.7596 70.1692 49.3119 69.5458 49.6813C68.9219 50.0504 67.9292 50.2338 66.5684 50.2338C66.1239 50.2338 65.6535 50.2225 65.158 50.1981C64.6615 50.1748 64.2198 50.1442 63.8323 50.1073V42.6607ZM66.9795 45.6961C67.3577 45.6961 67.6646 45.6233 67.9009 45.4756C68.1373 45.3303 68.2555 45.1387 68.2555 44.902C68.2555 44.6462 68.1544 44.4473 67.9505 44.3065C67.7475 44.1643 67.3813 44.0941 66.8516 44.0941C66.6628 44.0941 66.5068 44.0984 66.3843 44.1078C66.2611 44.1178 66.1476 44.1263 66.0437 44.1364C66.0057 44.1364 65.9588 44.1383 65.9022 44.1426C65.8457 44.1472 65.803 44.1504 65.7744 44.1504V45.6961H66.9795ZM65.7744 48.5898C65.9631 48.627 66.1262 48.6503 66.2638 48.66C66.401 48.6692 66.5637 48.674 66.7524 48.674C67.3953 48.674 67.842 48.5961 68.0927 48.4398C68.3426 48.2843 68.4682 48.0592 68.4682 47.7665C68.4682 47.5018 68.3593 47.2866 68.1419 47.1211C67.9246 46.956 67.5274 46.8738 66.9512 46.8738H65.7744V48.5898Z" fill="#67768C"/>
<path d="M78.2577 49.4265C77.9361 49.6722 77.4991 49.883 76.9465 50.0571C76.3931 50.2327 75.8003 50.3203 75.1664 50.3203C73.8915 50.3203 72.9554 49.9707 72.3602 49.2698C71.7643 48.5705 71.4666 47.6107 71.4666 46.3909C71.4666 45.0971 71.8022 44.1155 72.4733 43.4484C73.1438 42.7825 74.0891 42.4492 75.3086 42.4492C75.7057 42.4492 76.0975 42.4988 76.4854 42.5972C76.8729 42.6969 77.2178 42.8631 77.52 43.0945C77.823 43.3256 78.0663 43.6372 78.2504 44.0303C78.4348 44.4225 78.5266 44.9071 78.5266 45.4838C78.5266 45.6827 78.5154 45.9002 78.4918 46.1371C78.4677 46.3727 78.4279 46.6184 78.3709 46.8736H73.4091C73.4564 47.517 73.6424 47.9915 73.9691 48.2996C74.2953 48.607 74.8266 48.7605 75.5639 48.7605C76.0084 48.7605 76.4075 48.6961 76.7616 48.5687C77.1162 48.4407 77.3875 48.3112 77.577 48.1787L78.2577 49.4265ZM75.2803 44.0089C74.6945 44.0089 74.2597 44.1675 73.976 44.4842C73.6927 44.8017 73.5273 45.2056 73.4801 45.6971H76.6842C76.7214 45.1765 76.6276 44.766 76.4001 44.4625C76.1734 44.1598 75.8003 44.0089 75.2803 44.0089Z" fill="#67768C"/>
<path d="M80.0747 42.6612H81.4925L81.7331 43.5829H81.9036C82.1962 43.2054 82.5368 42.9213 82.9243 42.7325C83.3117 42.5429 83.7651 42.4492 84.2856 42.4492C85.2875 42.4492 86.0385 42.7489 86.5399 43.3492C87.0405 43.95 87.2913 44.9025 87.2913 46.2064C87.2913 46.8309 87.2102 47.3957 87.0499 47.9019C86.8886 48.4081 86.653 48.8423 86.3408 49.2066C86.0293 49.5711 85.6441 49.849 85.1857 50.0436C84.7272 50.2369 84.2007 50.3335 83.6047 50.3335C83.2835 50.3335 83.0041 50.3036 82.7681 50.242C82.5318 50.18 82.2957 50.0978 82.0595 49.9936V52.9291H80.0747V42.6612ZM83.6752 44.1083C83.2222 44.1083 82.8724 44.2101 82.6267 44.4125C82.3806 44.6164 82.1919 44.9307 82.0595 45.3559V48.2485C82.2206 48.3818 82.3992 48.4853 82.5984 48.5613C82.7968 48.6361 83.0467 48.6745 83.3497 48.6745C83.9922 48.6745 84.4695 48.4744 84.7815 48.0717C85.0939 47.6705 85.2496 47.0297 85.2496 46.1506C85.2496 45.5168 85.1291 45.018 84.8877 44.6548C84.6467 44.2908 84.2429 44.1083 83.6752 44.1083Z" fill="#67768C"/>
<path d="M94.4005 49.6533C94.0797 49.8712 93.6945 50.0366 93.2453 50.1494C92.7963 50.2634 92.3305 50.32 91.8489 50.32C91.2061 50.32 90.6651 50.2254 90.2261 50.0366C89.7859 49.8479 89.4267 49.5784 89.1481 49.2276C88.8695 48.8784 88.668 48.4652 88.5456 47.9869C88.4228 47.5101 88.3611 46.9786 88.3611 46.391C88.3611 45.1529 88.6665 44.1869 89.276 43.492C89.8847 42.7973 90.7709 42.4492 91.9341 42.4492C92.5011 42.4492 92.966 42.4934 93.3307 42.5841C93.6945 42.6733 94.0181 42.7892 94.3017 42.9315L93.8192 44.5195C93.5736 44.4157 93.3307 44.3381 93.0893 44.2854C92.8483 44.2339 92.5673 44.2079 92.2457 44.2079C91.6505 44.2079 91.194 44.3804 90.8779 44.7258C90.5609 45.0708 90.4024 45.6266 90.4024 46.391C90.4024 46.6937 90.4404 46.9755 90.5163 47.2353C90.5919 47.4961 90.7105 47.7248 90.8705 47.9237C91.0309 48.1213 91.234 48.2779 91.4808 48.3911C91.7257 48.5047 92.0139 48.5617 92.3452 48.5617C92.7421 48.5617 93.0559 48.5253 93.2881 48.4552C93.5194 48.3846 93.7386 48.2877 93.9475 48.164L94.4005 49.6533Z" fill="#67768C"/>
<path d="M100.579 46.7457L100.664 45.4836L99.7713 46.7321L96.836 50.1076H95.6456V42.6621H97.63V46.1638L97.5594 47.1849H97.7296C97.843 47.0248 97.9586 46.8542 98.0768 46.6752C98.195 46.4953 98.3107 46.3256 98.4243 46.1638L101.373 42.6621H102.564V50.1076H100.579V46.7457Z" fill="#67768C"/>
<path d="M110.297 44.4202H107.986V50.1071H105.916V44.4202H103.605V42.6616H110.297V44.4202Z" fill="#67768C"/>
<path d="M117.785 49.4265C117.464 49.6722 117.027 49.883 116.474 50.0571C115.921 50.2327 115.328 50.3203 114.694 50.3203C113.419 50.3203 112.483 49.9707 111.888 49.2698C111.292 48.5705 110.995 47.6107 110.995 46.3909C110.995 45.0971 111.33 44.1155 112.001 43.4484C112.672 42.7825 113.618 42.4492 114.836 42.4492C115.234 42.4492 115.626 42.4988 116.013 42.5972C116.401 42.6969 116.746 42.8631 117.048 43.0945C117.351 43.3256 117.594 43.6372 117.778 44.0303C117.962 44.4225 118.055 44.9071 118.055 45.4838C118.055 45.6827 118.043 45.9002 118.019 46.1371C117.996 46.3727 117.956 46.6184 117.899 46.8736H112.937C112.984 47.517 113.17 47.9915 113.497 48.2996C113.823 48.607 114.355 48.7605 115.092 48.7605C115.536 48.7605 115.936 48.6961 116.289 48.5687C116.644 48.4407 116.915 48.3112 117.105 48.1787L117.785 49.4265ZM114.808 44.0089C114.222 44.0089 113.787 44.1675 113.504 44.4842C113.221 44.8017 113.055 45.2056 113.008 45.6971H116.212C116.249 45.1765 116.155 44.766 115.928 44.4625C115.701 44.1598 115.328 44.0089 114.808 44.0089Z" fill="#67768C"/>
<path d="M125.621 44.4202H123.31V50.1071H121.24V44.4202H118.929V42.6616H125.621V44.4202Z" fill="#67768C"/>
<path d="M24.7972 21.6318H18.6193L18.5907 31.9092C18.5907 35.3392 15.812 38.1204 12.3845 38.1204C9.09563 38.1204 6.40567 35.5599 6.19336 32.3221H6.20629V21.6318H0.0293796L0.00282992 31.9092C0.00256792 31.9434 0.00012207 31.977 0.00012207 32.0118C0.00012207 38.8558 5.54518 44.4047 12.3845 44.4047C19.0337 44.4047 24.4577 39.1596 24.7534 32.5779L24.7972 21.6318Z" fill="#0B9C5B"/>
<path d="M24.7891 13.4037L20.6576 9.26637L12.3971 17.5376L4.13209 9.2627L0 13.4L9.31855 22.7302V34.069H15.4958V22.709L24.7891 13.4037Z" fill="#0068A3"/>
<path d="M10.329 3.0612L12.3944 0.994141L14.4605 3.0612L12.3944 5.12833L14.4605 7.19547L16.5263 5.12833L18.5917 7.19547L12.3944 13.3971L6.19743 7.19547L8.26287 5.12833L10.329 7.19547L12.3944 5.12833L10.329 3.0612Z" fill="#0B9C5B"/>
</svg>
