<svg width="54" height="63" viewBox="0 0 54 63" fill="none" xmlns="http://www.w3.org/2000/svg">
<path d="M48.1372 49.5002C49.4812 46.2741 49.8414 42.7227 49.1725 39.2924C48.5037 35.8622 46.8356 32.7062 44.3781 30.2213C45.0544 28.5177 45.1828 26.6456 44.7455 24.8656C44.3082 23.0856 43.3269 21.4862 41.9382 20.2898L48.184 14.0441C49.0266 13.1994 49.4999 12.055 49.4999 10.8619C49.4999 9.66877 49.0266 8.52437 48.184 7.67971L41.8205 1.31626C40.976 0.473383 39.8315 0 38.6384 0C37.4452 0 36.3007 0.473383 35.4562 1.31626L5.81827 30.9542C4.97573 31.7989 4.50257 32.9433 4.50257 34.1363C4.50257 35.3294 4.97573 36.4738 5.81827 37.3185L12.1817 43.682C13.0264 44.5247 14.1708 44.9979 15.3639 44.9979C16.557 44.9979 17.7014 44.5247 18.5461 43.682L29.2896 32.9373C30.813 34.7001 32.9701 35.7909 35.2927 35.9732C37.6154 36.1554 39.9162 35.4143 41.6959 33.9107C43.5455 36.0269 44.6814 38.6721 44.9423 41.4705C45.2032 44.269 44.5759 47.0785 43.1494 49.5002H27V58.5002H0V63.0002H54V49.5002H48.1372ZM15.3632 40.5002L9 34.1359L13.2271 29.9095L19.5907 36.2727L15.3632 40.5002ZM27 27.0002C27.0033 27.5687 27.0607 28.1356 27.1715 28.6931L22.7725 33.091L16.4086 26.7278L38.6386 4.49776L45.0023 10.8612L37.6924 18.1717C36.3905 17.913 35.0474 17.9471 33.7603 18.2717C32.4732 18.5963 31.2744 19.2031 30.2509 20.0482C29.2273 20.8934 28.4046 21.9556 27.8423 23.158C27.2801 24.3604 26.9923 25.6729 27 27.0002ZM36 31.5002C35.11 31.5002 34.24 31.2363 33.4999 30.7418C32.7599 30.2474 32.1831 29.5446 31.8425 28.7223C31.5019 27.9 31.4128 26.9952 31.5865 26.1223C31.7601 25.2494 32.1887 24.4476 32.818 23.8183C33.4474 23.1889 34.2492 22.7603 35.1221 22.5867C35.995 22.4131 36.8998 22.5022 37.7221 22.8428C38.5443 23.1834 39.2471 23.7601 39.7416 24.5002C40.2361 25.2402 40.5 26.1102 40.5 27.0002C40.4986 28.1933 40.0241 29.3371 39.1805 30.1807C38.3369 31.0243 37.1931 31.4989 36 31.5002ZM49.5 58.5002H31.5V54.0002H49.5V58.5002Z" fill="white"/>
</svg>
