<svg width="64" height="54" viewBox="0 0 64 54" fill="none" xmlns="http://www.w3.org/2000/svg">
<path d="M47.75 22.5C51.4766 22.5 54.5 19.4766 54.5 15.75C54.5 12.0234 51.4766 9 47.75 9C44.0234 9 41 12.0234 41 15.75C41 19.4766 44.0234 22.5 47.75 22.5Z" fill="#BAC6D2"/>
<path d="M59.5625 0H4.4375C2.24375 0 0.5 1.78594 0.5 3.97969V50.0203C0.5 52.2141 2.24375 54 4.4375 54H59.5625C61.7563 54 63.5 52.2141 63.5 50.0203V3.97969C63.5 1.78594 61.7563 0 59.5625 0ZM45.0641 27.8016C44.6422 27.3094 43.9953 26.9297 43.2641 26.9297C42.5469 26.9297 42.0406 27.2672 41.4641 27.7313L38.8344 29.9531C38.2859 30.3469 37.85 30.6141 37.2172 30.6141C36.6125 30.6141 36.0641 30.3891 35.6703 30.0375C35.5297 29.9109 35.2766 29.6719 35.0656 29.4609L27.5 21.2766C26.9375 20.6297 26.0938 20.2219 25.1516 20.2219C24.2094 20.2219 23.3375 20.6859 22.7891 21.3188L5 42.7781V6.14531C5.14062 5.18906 5.88594 4.5 6.84219 4.5H57.1437C58.1141 4.5 58.9016 5.21719 58.9578 6.1875L59 42.8062L45.0641 27.8016Z" fill="#BAC6D2"/>
</svg>
