<svg width="62" height="60" viewBox="0 0 62 60" fill="none" xmlns="http://www.w3.org/2000/svg">
<path d="M28.1667 48.9993H10.3734L16.1534 38.9127L16.975 41.406L22.3584 39.5927L18.8734 29.166H8.33338V34.8327H11.96L0.626709 54.666H28.1667V48.9993Z" fill="white"/>
<path d="M42.7017 33.4163L51.6267 48.9997H40.6617L41.5117 48.178L37.4884 44.1547L29.8384 51.833L37.4884 59.5113L41.5117 55.488L40.6617 54.6663H61.3734L47.6317 30.583L42.7017 33.4163Z" fill="white"/>
<path d="M32.9267 26.1914L44.1183 29.9314L47.8583 18.7397L42.475 16.9264L41.6533 19.4197L31 0.776367L17.2017 24.9164L22.1317 27.7497L31 12.223L36.185 21.2897L34.74 20.808L32.9267 26.1914Z" fill="white"/>
</svg>
