<svg width="38" height="50" viewBox="0 0 38 50" fill="none" xmlns="http://www.w3.org/2000/svg">
<path fill-rule="evenodd" clip-rule="evenodd" d="M38 13.1578V46.0523C38 48.2328 36.2396 50 34.0689 50H3.93106C1.75963 50 0 48.2328 0 46.0523V3.94766C0 1.76719 1.75963 0 3.93106 0H24.8962L38 13.1578Z" fill="#CB0606"/>
<path fill-rule="evenodd" clip-rule="evenodd" d="M37.9999 12.4211V14.0586H27.2877C25.0698 14.0586 24.0469 12.2461 24.0469 10.0109V0H25.6692L37.9999 12.4211Z" fill="#FB8D8D"/>
<path fill-rule="evenodd" clip-rule="evenodd" d="M29.1636 26.5994C28.8255 26.4869 28.4998 26.4299 28.1857 26.4299C27.829 26.4299 27.5839 26.5041 27.4498 26.6525C27.3164 26.801 27.2497 27.0635 27.2497 27.4408V28.1619H28.7487V29.6104H27.2497V35.5752H25.4334V29.6104H24.4974V28.1619H25.4334V27.4408C25.4334 26.5221 25.6599 25.858 26.1128 25.4479C26.5657 25.0377 27.2466 24.833 28.157 24.833C28.5843 24.833 29.0372 24.8916 29.5157 25.0096L29.1636 26.5994ZM21.5559 34.8541C21.2178 35.1416 20.861 35.3705 20.4857 35.54C20.1103 35.7096 19.6838 35.7939 19.2053 35.7939C18.2763 35.7939 17.5651 35.4572 17.0727 34.7838C16.5794 34.1096 16.3336 33.158 16.3336 31.9283C16.3336 30.6705 16.6043 29.6932 17.1463 28.9955C17.6884 28.2986 18.4492 27.9494 19.4302 27.9494C19.7776 27.9494 20.1336 28.0213 20.4996 28.165C20.8657 28.3088 21.1689 28.4916 21.4078 28.7127V25.0518H23.224V35.5752H21.5559V34.8541ZM21.4078 30.2182C21.2154 30.0439 20.9774 29.8893 20.6935 29.7549C20.4097 29.6213 20.1196 29.5541 19.8242 29.5541C19.3364 29.5541 18.9447 29.765 18.6493 30.1861C18.353 30.608 18.2057 31.1791 18.2057 31.9002C18.2057 32.6119 18.3267 33.1697 18.5678 33.5752C18.8098 33.9807 19.1836 34.183 19.6908 34.183C19.9909 34.183 20.2972 34.1135 20.609 33.9744C20.9207 33.8354 21.1875 33.6643 21.4078 33.4619V30.2182ZM13.6449 35.3135C13.199 35.6338 12.667 35.7939 12.0474 35.7939C11.2307 35.7939 10.5343 35.5377 9.95736 35.0236V38.3666H8.14111V28.1619H9.81622V28.8893C10.1543 28.5971 10.5095 28.3674 10.8825 28.2002C11.2556 28.033 11.6836 27.9494 12.1668 27.9494C13.1005 27.9494 13.8116 28.2791 14.2994 28.9393C14.7872 29.5986 15.0315 30.5572 15.0315 31.815C15.0315 32.6119 14.9121 33.3135 14.6725 33.9213C14.4328 34.5291 14.0908 34.9932 13.6449 35.3135ZM12.7864 30.158C12.5375 29.7549 12.1668 29.5541 11.6743 29.5541C11.3789 29.5541 11.0749 29.6236 10.7631 29.7619C10.4506 29.901 10.1823 30.0721 9.95736 30.2744V33.5182C10.1497 33.6932 10.3878 33.8471 10.6716 33.9814C10.9554 34.1158 11.247 34.183 11.5479 34.183C12.045 34.183 12.4382 33.9697 12.7267 33.5432C13.0152 33.1166 13.1594 32.5502 13.1594 31.8439C13.1594 31.1229 13.0346 30.5611 12.7864 30.158Z" fill="white"/>
</svg>
