<svg width="11" height="14" viewBox="0 0 11 14" fill="none" xmlns="http://www.w3.org/2000/svg">
<path d="M10.3226 5.66044L2.03735 0.207405C1.83074 0.0714451 1.59636 -8.95818e-05 1.35779 8.41909e-08C1.11921 8.97502e-05 0.88487 0.0718008 0.67834 0.207916C0.471809 0.34403 0.300377 0.539747 0.181296 0.77537C0.0622151 1.01099 -0.000314214 1.27821 1.18729e-06 1.55013V12.4499C-0.000314214 12.7218 0.0622151 12.989 0.181296 13.2246C0.300377 13.4603 0.471809 13.656 0.67834 13.7921C0.88487 13.9282 1.11921 13.9999 1.35779 14C1.59636 14.0001 1.83074 13.9286 2.03735 13.7926L10.3226 8.33956C10.5286 8.20354 10.6996 8.00819 10.8185 7.77308C10.9374 7.53797 11 7.27137 11 7C11 6.72863 10.9374 6.46203 10.8185 6.22692C10.6996 5.99182 10.5286 5.79646 10.3226 5.66044Z" fill="#126CD6"/>
</svg>
