<svg width="1156" height="248" viewBox="0 0 1156 248" fill="none" xmlns="http://www.w3.org/2000/svg">
<g clip-path="url(#clip0_305_119)">
<path d="M64.0381 39.9198C64.0381 46.2627 64.1782 52.198 64.4843 57.7204H49.4865V32.0343H27.9203V57.7204H12.9242C13.2597 51.3758 13.4361 45.4405 13.4361 39.9198C13.4361 34.3991 13.2597 28.469 12.9242 22.126H64.4843C64.1782 27.6537 64.0381 33.582 64.0381 39.9198Z" fill="#34302F"/>
<path d="M102.397 22.1692C110.865 22.1692 116.747 23.3197 120.072 25.6292C123.391 27.9335 125.044 31.1758 125.044 35.3612C125.044 38.2373 124.391 40.6816 123.068 42.687C121.755 44.7029 119.431 46.2748 116.119 47.3976C112.8 48.536 108.224 49.0853 102.397 49.0853H89.1203V57.7204H73.4169C73.7576 51.3758 73.9288 45.4405 73.9288 39.9198C73.9288 34.3991 73.7576 28.469 73.4169 22.126H89.1203V22.1692H102.397ZM97.9249 39.6279C101.451 39.6279 104.111 39.5173 105.868 39.31C107.638 39.0976 108.876 38.7123 109.578 38.1579C110.273 37.6034 110.628 36.7811 110.628 35.7084C110.628 34.6357 110.297 33.8135 109.633 33.278C108.974 32.7408 107.76 32.3694 105.996 32.1811C104.234 31.979 101.536 31.8823 97.9249 31.8823H89.1203V39.6279H97.9249Z" fill="#34302F"/>
<path d="M138.323 53.3277C133.723 50.0785 131.43 45.5148 131.43 39.6278C131.43 33.8152 133.718 29.2636 138.294 25.9971C142.863 22.7237 150.044 21.0844 159.824 21.0844C169.654 21.0844 176.859 22.7237 181.428 25.9971C185.997 29.2636 188.292 33.8152 188.292 39.6278C188.292 45.5458 186.016 50.1096 181.464 53.3571C176.914 56.5942 169.702 58.2145 159.824 58.2145C150.087 58.2145 142.918 56.5821 138.323 53.3277ZM170.043 46.1245C172.124 44.7357 173.168 42.5661 173.168 39.6278C173.168 36.7518 172.124 34.6133 170.043 33.2054C167.957 31.7976 164.552 31.0911 159.824 31.0911C155.151 31.0911 151.765 31.7976 149.684 33.2054C147.598 34.6133 146.554 36.7518 146.554 39.6278C146.554 42.535 147.598 44.6977 149.684 46.1003C151.765 47.5082 155.151 48.2146 159.824 48.2146C164.552 48.2146 167.957 47.5133 170.043 46.1245Z" fill="#34302F"/>
<path d="M234.832 53.3605L234.977 57.7239H218.175L218.248 53.3052C210.274 52.654 204.405 51.0683 200.628 48.5515C196.851 46.0295 194.978 42.732 194.978 38.6502C194.978 34.5977 196.846 31.295 200.592 28.7661C204.35 26.2372 210.225 24.6394 218.248 23.9812L218.175 19.4728H234.977C234.923 20.4228 234.904 21.9343 234.904 23.9812C242.976 24.6394 248.901 26.2372 252.702 28.7661C256.497 31.295 258.394 34.5977 258.394 38.6502C258.394 47.218 250.535 52.1168 234.832 53.3605ZM213.404 41.7387C214.447 42.5437 216.114 43.1586 218.388 43.549V38.1078V33.7928C214.026 34.5494 211.837 36.1575 211.837 38.6502C211.837 39.8921 212.368 40.9165 213.404 41.7387ZM239.92 41.7888C240.994 40.9648 241.525 39.9181 241.525 38.6502C241.525 36.1575 239.34 34.5494 234.977 33.7928L234.904 38.1078C234.856 39.3135 234.832 41.1549 234.832 43.6043C237.156 43.2087 238.853 42.5989 239.92 41.7888Z" fill="#34302F"/>
<path d="M280.273 48.7467C296.447 48.6793 308.167 48.5031 315.44 48.2164C315.147 49.5516 314.964 50.9335 314.897 52.3534C314.836 53.7803 314.805 55.5664 314.805 57.7221H265.222C265.557 51.3792 265.728 45.4439 265.728 39.9232C265.728 34.3956 265.557 28.4724 265.222 22.1226H314.805V31.0082H280.273V35.7049C282.322 35.743 285.344 35.7481 289.339 35.7481C296.106 35.7481 303.104 35.6566 310.34 35.4562V43.8893C303.104 43.6941 296.106 43.6025 289.339 43.6025C285.344 43.6025 282.322 43.6215 280.273 43.6457V48.7467Z" fill="#34302F"/>
<path d="M328.656 53.5022C324.104 50.3704 321.823 45.8861 321.823 40.0666C321.823 34.2211 324.104 29.59 328.656 26.1906C333.208 22.7963 340.29 21.0896 349.901 21.0896C363.347 21.0896 372.346 24.6359 376.898 31.7354C373.067 32.7477 368.582 34.2643 363.427 36.2992C362.194 34.4664 360.26 33.107 357.593 32.2295C354.934 31.333 352.225 30.8942 349.455 30.8942C345.373 30.8942 342.335 31.7303 340.334 33.3747C338.327 35.033 337.333 37.061 337.333 39.481C337.333 42.0945 338.405 44.2348 340.553 45.8861C342.701 47.5306 345.989 48.3598 350.42 48.3598C353.951 48.3598 356.758 47.9089 358.839 47.0072C360.919 46.1055 362.457 44.6787 363.427 42.7233C366.922 44.1605 371.389 45.7704 376.83 47.5738C374.701 51.5278 371.163 54.2829 366.179 55.8549C361.199 57.4268 355.776 58.2127 349.901 58.2127C340.29 58.2127 333.208 56.6408 328.656 53.5022Z" fill="#34302F"/>
<path d="M390.107 53.5022C385.557 50.3704 383.274 45.8861 383.274 40.0666C383.274 34.2211 385.557 29.59 390.107 26.1906C394.659 22.7963 401.743 21.0896 411.364 21.0896C424.805 21.0896 433.798 24.6359 438.35 31.7354C434.53 32.7477 430.04 34.2643 424.89 36.2992C423.658 34.4664 421.706 33.107 419.058 32.2295C416.391 31.333 413.683 30.8942 410.912 30.8942C406.831 30.8942 403.792 31.7303 401.791 33.3747C399.79 35.033 398.791 37.061 398.791 39.481C398.791 42.0945 399.858 44.2348 402.011 45.8861C404.164 47.5306 407.447 48.3598 411.871 48.3598C415.404 48.3598 418.209 47.9089 420.296 47.0072C422.382 46.1055 423.92 44.6787 424.89 42.7233C428.38 44.1605 432.847 45.7704 438.295 47.5738C436.166 51.5278 432.615 54.2829 427.641 55.8549C422.652 57.4268 417.241 58.2127 411.364 58.2127C401.743 58.2127 394.659 56.6408 390.107 53.5022Z" fill="#34302F"/>
<path d="M460.371 22.1692L459.285 49.6691L474.8 22.1692H498.277C497.985 27.6951 497.838 33.6131 497.838 39.9198C497.838 46.2627 497.985 52.198 498.277 57.7204H481.884L483.031 30.9443L467.59 57.7204H444.74C445.076 51.3757 445.247 45.4405 445.247 39.9198C445.247 34.4284 445.076 28.5173 444.74 22.1692H460.371Z" fill="#34302F"/>
<path d="M511.561 53.3277C506.961 50.0785 504.666 45.5148 504.666 39.6278C504.666 33.8152 506.949 29.2636 511.523 25.9971C516.099 22.7237 523.28 21.0844 533.06 21.0844C542.896 21.0844 550.088 22.7237 554.664 25.9971C559.241 29.2636 561.529 33.8152 561.529 39.6278C561.529 45.5458 559.247 50.1096 554.701 53.3571C550.144 56.5942 542.932 58.2145 533.06 58.2145C523.318 58.2145 516.155 56.5821 511.561 53.3277ZM543.274 46.1245C545.36 44.7357 546.405 42.5661 546.405 39.6278C546.405 36.7518 545.36 34.6133 543.274 33.2054C541.187 31.7976 537.788 31.0911 533.06 31.0911C528.382 31.0911 525.001 31.7976 522.915 33.2054C520.828 34.6133 519.792 36.7518 519.792 39.6278C519.792 42.535 520.828 44.6977 522.915 46.1003C525.001 47.5082 528.382 48.2146 533.06 48.2146C537.788 48.2146 541.187 47.5133 543.274 46.1245Z" fill="#34302F"/>
<path d="M622.67 22.1226C622.371 27.6502 622.212 33.5803 622.212 39.918C622.212 46.261 622.371 52.1963 622.67 57.7239H607.672V44.3833H584.183V57.7239H569.187C569.522 51.3792 569.693 45.4439 569.693 39.918C569.693 34.3956 569.522 28.4724 569.187 22.1226H584.183V35.4562H607.672V22.1226H622.67Z" fill="#34302F"/>
<path d="M669.317 57.7204C668.516 55.8566 667.425 53.5281 666.058 50.7124H645.705L642.514 57.7204H626.499L644.363 22.1208H667.845L685.85 57.7204H669.317ZM662.428 43.0653C660.811 39.6279 659.151 36.1973 657.444 32.7615L655.919 29.5797C654.423 32.5542 652.233 37.0454 649.347 43.0653H662.428Z" fill="#34302F"/>
<path d="M743.157 57.7204H727.008V31.7372H712.719L712.659 34.5822C712.659 37.0627 712.579 39.2444 712.432 41.1272C712.28 43.0049 711.969 44.9171 711.505 46.8863C710.656 50.4447 708.491 53.3035 705.025 55.4662C701.561 57.6237 696.722 58.6964 690.504 58.6964V49.1405C692.165 48.8849 693.483 48.2941 694.434 47.3976C695.385 46.5028 696.123 45.0518 696.637 43.0653C697.021 41.4623 697.209 37.8193 697.209 32.1276L697.137 22.1208L743.157 22.1692V57.7204Z" fill="#34302F"/>
<path d="M767.731 22.1692L766.645 49.6691L782.148 22.1692H805.637C805.345 27.6951 805.191 33.6131 805.191 39.9198C805.191 46.2627 805.345 52.198 805.637 57.7204H789.237L790.391 30.9443L774.943 57.7204H752.088C752.436 51.3757 752.606 45.4405 752.606 39.9198C752.606 34.4284 752.436 28.5173 752.088 22.1692H767.731Z" fill="#34302F"/>
<path d="M866.837 32.4143C860.157 32.2554 853.671 32.1586 847.374 32.1275V57.7221H831.42V32.1275C825.082 32.1586 818.613 32.2554 812.019 32.4143V22.1226H866.837V32.4143Z" fill="#34302F"/>
<path d="M888.279 48.7467C904.448 48.6793 916.173 48.5031 923.446 48.2164C923.147 49.5516 922.97 50.9335 922.903 52.3534C922.842 53.7803 922.811 55.5664 922.811 57.7221H873.216C873.556 51.3792 873.727 45.4439 873.727 39.9232C873.727 34.3956 873.556 28.4724 873.216 22.1226H922.811V31.0082H888.279V35.7049C890.316 35.743 893.343 35.7481 897.345 35.7481C904.105 35.7481 911.11 35.6566 918.339 35.4562V43.8893C911.11 43.6941 904.105 43.6025 897.345 43.6025C893.343 43.6025 890.316 43.6215 888.279 43.6457V48.7467Z" fill="#34302F"/>
<path d="M984.649 32.4143C977.969 32.2554 971.483 32.1586 965.181 32.1275V57.7221H949.232V32.1275C942.887 32.1586 936.413 32.2554 929.831 32.4143V22.1226H984.649V32.4143Z" fill="#34302F"/>
<path d="M175.204 181.639C162.952 193.189 157.84 209.422 159.921 224.924C175.289 227.916 191.817 223.779 204.068 212.224C216.332 200.684 221.456 184.443 219.364 168.953C203.996 165.955 187.467 170.099 175.204 181.639Z" fill="#44B490"/>
<path d="M375.62 187.749L359.409 167.67C356.658 164.056 352.284 163.367 347.001 167.316C341.698 171.272 315.36 192.233 307.495 198.004C319.355 198.682 322.833 204.318 326.915 208.706L335.915 219.742C344.761 230.692 360.814 232.41 371.789 223.568C382.752 214.738 384.467 198.694 375.62 187.749Z" fill="#EE741D"/>
<path d="M531.62 193.284C531.62 178.152 519.337 165.891 504.201 165.891C496.989 165.891 490.46 168.682 485.575 173.21L481.443 166.081C481.078 166.262 480.724 166.457 480.357 166.659C467.241 174.227 462.749 190.974 470.328 204.081C473.922 210.309 479.613 214.563 485.983 216.531L481.858 223.666C482.213 223.893 482.553 224.105 482.908 224.306C496.031 231.868 512.798 227.384 520.375 214.276C523.981 208.047 524.828 201.003 523.341 194.513H531.588C531.607 194.106 531.62 193.691 531.62 193.284Z" fill="#527396"/>
<path d="M678.969 220.243L672.769 172.059C672.605 170.378 671.14 169.05 669.505 169.05H667.468V166.21C667.468 165.241 666.686 164.455 665.716 164.455H642.05C641.075 164.455 640.286 165.241 640.286 166.21V169.05H638.249C636.62 169.05 635.15 170.378 634.985 172.059L628.78 220.243C628.452 223.528 630.079 224.82 632.447 224.82H640.286V227.66C640.286 228.634 641.075 229.415 642.05 229.415H665.716C666.686 229.415 667.468 228.634 667.468 227.66V224.82H675.32C677.68 224.82 679.31 223.528 678.969 220.243Z" fill="#FCC300"/>
<path d="M1135.06 180.007C1135.04 179.99 1135.03 179.965 1135.01 179.946C1123.17 168.131 1104 168.131 1092.17 179.946C1080.35 191.75 1080.35 210.91 1092.17 222.725C1092.2 222.749 1092.22 222.761 1092.23 222.78L1135.06 180.007Z" fill="#A94592"/>
<path d="M1146.69 171.085C1146.7 171.102 1146.72 171.126 1146.74 171.139C1158.58 182.956 1158.58 202.114 1146.74 213.929C1134.92 225.734 1115.74 225.734 1103.91 213.929C1103.89 213.912 1103.88 213.888 1103.85 213.869L1146.69 171.085Z" fill="#A94592"/>
<path d="M-0.38916 196.882H34.8744V161.653C15.4007 161.653 -0.38916 177.424 -0.38916 196.882Z" fill="#363789"/>
<path d="M70.1915 196.996H34.928V232.217C54.4085 232.217 70.1915 216.446 70.1915 196.996Z" fill="#363789"/>
<path d="M111.256 248.307V156.843H113.085V248.307H111.256ZM423.577 248.307V156.843H425.407V248.307H423.577ZM735.913 248.307V156.843H737.742V248.307H735.913ZM579.74 248.307V156.843H581.57V248.307H579.74ZM892.075 248.307V156.843H893.905V248.307H892.075ZM1048.25 248.307V156.843H1050.08V248.307H1048.25ZM267.404 248.307V156.843H269.234V248.307H267.404Z" fill="#312F2D"/>
<path d="M969.745 229.417C952.369 229.417 938.228 214.846 938.228 196.937C938.228 179.021 952.369 164.452 969.745 164.452C987.128 164.452 1001.26 179.021 1001.26 196.937C1001.26 214.846 987.128 229.417 969.745 229.417ZM969.745 179.088C960.204 179.088 952.437 187.096 952.437 196.937C952.437 206.773 960.204 214.774 969.745 214.774C979.293 214.774 987.053 206.773 987.053 196.937C987.053 187.096 979.293 179.088 969.745 179.088Z" fill="#20599D"/>
<path d="M969.745 204.767C973.942 204.767 977.347 201.257 977.347 196.932C977.347 192.61 973.942 189.107 969.745 189.107C965.547 189.107 962.142 192.61 962.142 196.932C962.142 201.257 965.547 204.767 969.745 204.767Z" fill="#20599D"/>
<path d="M820.893 168.698H857.14L813.645 227.98H777.399L820.893 168.698Z" fill="#E63D24"/>
</g>
<defs>
<clipPath id="clip0_305_119">
<rect width="1156" height="248" fill="white"/>
</clipPath>
</defs>
</svg>
