<svg width="25" height="43" viewBox="0 0 25 43" fill="none" xmlns="http://www.w3.org/2000/svg">
<path fill-rule="evenodd" clip-rule="evenodd" d="M14.312 2.06313L12.2518 0L10.1916 2.06313L12.2518 4.12626L14.312 2.06313ZM16.3722 4.12626L14.312 6.18939L12.2518 4.12626L10.3001 6.18939L8.23987 4.12626L6.17969 6.18939L12.2518 12.2702L18.4324 6.18939L16.3722 4.12626Z" fill="#0B9C5B"/>
<path fill-rule="evenodd" clip-rule="evenodd" d="M24.5054 12.2698L20.385 8.14355L12.2527 16.3961L4.12037 8.14355L0 12.2698L9.21662 21.4996V32.684H15.2888V21.4996L24.5054 12.2698Z" fill="#025FA6"/>
<path fill-rule="evenodd" clip-rule="evenodd" d="M24.5054 20.4141H18.4332L18.3248 30.6211C18.3248 33.9873 15.614 36.8105 12.2527 36.8105C8.99976 36.8105 6.28899 34.2045 6.07213 31.0555H6.18056V20.4141H0V30.6211V30.7297C0 37.462 5.42154 42.9999 12.2527 42.9999C18.867 42.9999 24.1801 37.7878 24.5054 31.2726V20.4141Z" fill="#0B9C5B"/>
</svg>
