<svg width="59" height="74" viewBox="0 0 59 74" fill="none" xmlns="http://www.w3.org/2000/svg">
<path d="M55.3665 29.9195L10.9276 1.09628C9.81943 0.377638 8.56228 -0.000473504 7.28267 4.45009e-07C6.00305 0.000474394 4.74612 0.379518 3.63837 1.09898C2.53061 1.81845 1.61112 2.85295 0.972407 4.09838C0.333699 5.34382 -0.00168533 6.75625 6.3682e-06 8.19353V65.8065C-0.00168533 67.2438 0.333699 68.6562 0.972407 69.9016C1.61112 71.1471 2.53061 72.1816 3.63837 72.901C4.74612 73.6205 6.00305 73.9995 7.28267 74C8.56228 74.0005 9.81943 73.6224 10.9276 72.9037L55.3665 44.0805C56.4715 43.3616 57.3889 42.329 58.0266 41.0863C58.6643 39.8435 59 38.4344 59 37C59 35.5656 58.6643 34.1565 58.0266 32.9137C57.3889 31.671 56.4715 30.6384 55.3665 29.9195Z" fill="white"/>
</svg>
