<svg width="155" height="112" viewBox="0 0 155 112" fill="none" xmlns="http://www.w3.org/2000/svg">
<path d="M142.212 10.4558C151.225 20.0283 156.063 30.7645 156.063 48.1683C156.063 78.7933 134.565 106.242 103.301 119.813L95.487 107.756C124.668 91.9708 130.373 71.487 132.648 58.572C127.95 61.0045 121.798 61.8533 115.77 61.2933C99.9845 59.832 87.542 46.8733 87.542 30.7645C87.542 22.6423 90.7686 14.8527 96.5119 9.10938C102.255 3.36608 110.045 0.139526 118.167 0.139526C127.556 0.139526 136.533 4.42703 142.212 10.4558ZM54.712 10.4558C63.7245 20.0283 68.5633 30.7645 68.5633 48.1683C68.5633 78.7933 47.0645 106.242 15.8008 119.813L7.98703 107.756C37.1683 91.9708 42.8733 71.487 45.1483 58.572C40.4495 61.0045 34.2983 61.8533 28.2695 61.2933C12.4845 59.832 0.0507812 46.8733 0.0507812 30.7645C0.0507813 22.6423 3.27733 14.8527 9.02063 9.10938C14.7639 3.36608 22.5535 0.139526 30.6758 0.139526C40.0645 0.139526 49.042 4.42703 54.7208 10.4558H54.712Z" fill="#E1EFFB"/>
</svg>
