<svg width="31" height="31" viewBox="0 0 31 31" fill="none" xmlns="http://www.w3.org/2000/svg">
<rect width="31" height="31" rx="5" fill="#ED802C"/>
<path fill-rule="evenodd" clip-rule="evenodd" d="M10.2651 19.9346C10.694 20.3627 10.9553 20.9433 10.9567 21.5901C10.9553 22.2363 10.694 22.8169 10.267 23.2432L10.2651 23.2443C9.83777 23.6702 9.25348 23.9303 8.60357 23.9303C7.95451 23.9303 7.37165 23.6694 6.94355 23.2432C6.51686 22.8169 6.25415 22.2367 6.25415 21.5901C6.25415 20.9433 6.51686 20.3613 6.94355 19.9342V19.9346C7.37165 19.5083 7.95451 19.2463 8.60357 19.2463C9.25309 19.2459 9.83662 19.5087 10.2651 19.9346ZM10.2651 19.9338V19.9346H10.2663L10.2651 19.9338ZM6.94317 23.2439V23.2428H6.94279L6.94317 23.2439ZM6.25567 12.2719V15.6516C8.462 15.6527 10.5487 16.5195 12.11 18.0834C13.6713 19.6421 14.5343 21.7318 14.538 23.946H14.5392V23.9523H17.9323C17.9298 20.7331 16.621 17.8174 14.5056 15.7004C12.3899 13.5835 9.47517 12.2737 6.25566 12.2719L6.25567 12.2719ZM6.26168 6.25395V9.63181C14.1483 9.63742 20.5587 16.0578 20.5646 23.9519H23.9522C23.9499 19.0727 21.9668 14.653 18.7621 11.4462C15.5565 8.24037 11.1386 6.25572 6.26166 6.25391L6.26168 6.25395Z" fill="white"/>
</svg>
