<svg width="53" height="48" viewBox="0 0 53 48" fill="none" xmlns="http://www.w3.org/2000/svg">
<path d="M3.625 47.2705H49.125C50.7108 47.2705 52 45.9813 52 44.3955V12.0205C52 10.4347 50.7108 9.14551 49.125 9.14551H3.625C2.03924 9.14551 0.75 10.4347 0.75 12.0205V44.3955C0.75 45.9813 2.03924 47.2705 3.625 47.2705ZM3 12.0205C3 11.676 3.28051 11.3955 3.625 11.3955H49.125C49.4695 11.3955 49.75 11.676 49.75 12.0205V44.3955C49.75 44.74 49.4695 45.0205 49.125 45.0205H3.625C3.28051 45.0205 3 44.74 3 44.3955V12.0205Z" fill="white" stroke="white" stroke-width="0.5"/>
<path d="M37.7914 2.11489L37.7913 2.11467L35.4107 1.40708L35.3234 1.17281L35.3233 1.17283C35.3233 1.17286 35.3232 1.1729 35.3231 1.17293L13.7324 9.21664C13.7324 9.21666 13.7324 9.21667 13.7323 9.21668C13.1501 9.43332 12.8537 10.0813 13.0709 10.6636C13.2397 11.1164 13.6685 11.3963 14.125 11.3963C14.2561 11.3963 14.389 11.3731 14.5179 11.3249L35.9031 3.35787L39.8173 10.7945C40.1063 11.3439 40.7868 11.5563 41.3368 11.2659C41.8871 10.977 42.0975 10.2963 41.8081 9.7466L37.7914 2.11489Z" fill="white" stroke="white" stroke-width="0.5"/>
<path d="M51.75 34.1455H52V33.8955V22.5205V22.2705H51.75H33.375C31.7892 22.2705 30.5 23.5597 30.5 25.1455V31.2705C30.5 32.8563 31.7892 34.1455 33.375 34.1455H51.75ZM32.75 25.1455C32.75 24.801 33.0305 24.5205 33.375 24.5205H49.75V31.8955H33.375C33.0305 31.8955 32.75 31.615 32.75 31.2705V25.1455Z" fill="white" stroke="white" stroke-width="0.5"/>
<path d="M36.4375 30.833C34.9898 30.833 33.8125 29.6557 33.8125 28.208C33.8125 26.7603 34.9898 25.583 36.4375 25.583C37.8852 25.583 39.0625 26.7603 39.0625 28.208C39.0625 29.6557 37.8852 30.833 36.4375 30.833ZM36.4375 27.333C35.9549 27.333 35.5625 27.7254 35.5625 28.208C35.5625 28.6906 35.9549 29.083 36.4375 29.083C36.9201 29.083 37.3125 28.6906 37.3125 28.208C37.3125 27.7254 36.9201 27.333 36.4375 27.333Z" fill="white"/>
</svg>
