<svg width="44" height="44" viewBox="0 0 44 44" fill="none" xmlns="http://www.w3.org/2000/svg">
<path d="M32.8125 23.5937C32.8125 23.2812 32.8125 23.125 32.8125 22.8125C32.8125 12.3438 26.5625 3.125 17.5 0.15625C15.9375 0.46875 14.375 0.9375 12.9688 1.5625C18.9062 6.25 22.5 13.2812 22.8125 20.9375C26.0938 22.6562 29.5312 23.4375 32.8125 23.5937Z" fill="white"/>
<path d="M21.5625 23.75C18.5938 25.625 16.0937 28.125 14.375 31.0938C14.5312 31.25 14.8438 31.4063 15 31.4063C24.2188 36.7188 35.4687 35.7813 42.5 29.2188C42.9687 27.8125 43.4375 26.25 43.5937 24.6875C40.4687 26.0938 37.0312 26.7188 33.5937 26.7188C29.375 26.7188 25.3125 25.7813 21.5625 23.75Z" fill="white"/>
<path d="M36.0938 22.8125C36.0938 22.9688 36.0938 23.2812 36.0938 23.4375C38.75 23.125 41.4062 22.3438 43.75 21.0938C43.4375 10.1562 35 1.09375 24.2188 0C31.25 4.6875 36.0938 13.2813 36.0938 22.8125Z" fill="white"/>
<path d="M15 8.90625C15.1563 8.75 15.3125 8.75 15.4688 8.59375C14.0625 6.5625 12.1875 4.6875 10.1563 3.28125C4.0625 7.1875 0 14.0625 0 21.7188C0 24.2188 0.46875 26.7188 1.25 28.9063C2.34375 20.9375 7.1875 13.2813 15 8.90625Z" fill="white"/>
<path d="M27.5 37.9687C22.6563 37.9687 17.8125 36.7187 13.2813 34.0625C13.125 33.9062 12.9687 33.9063 12.8125 33.75C11.875 35.9375 11.25 38.2813 10.9375 40.625C14.0625 42.5 17.8125 43.5938 21.7188 43.5938C28.5938 43.5938 34.8438 40.3125 38.75 35.3125C35.4688 37.0313 31.5625 37.9687 27.5 37.9687Z" fill="white"/>
<path d="M19.8438 21.0937C19.6875 17.6562 18.75 14.2187 17.1875 11.25C17.0313 11.4062 16.7188 11.4062 16.5625 11.5625C7.81253 16.5625 3.12503 25.9375 4.37503 34.8437C5.46878 36.25 6.71878 37.6562 8.12503 38.75C9.37503 31.5625 13.5938 25 19.8438 21.0937Z" fill="white"/>
</svg>
