<svg width="47" height="48" viewBox="0 0 47 48" fill="none" xmlns="http://www.w3.org/2000/svg">
<path d="M47 23.7969C47 16.8387 43.9615 10.5781 39.1422 6.27285C39.0779 6.20859 39.0137 6.14434 38.9402 6.09844C34.8094 2.49082 29.4025 0.296875 23.5 0.296875C17.5883 0.296875 12.1723 2.5 8.03223 6.1168C7.98633 6.15352 7.93125 6.19941 7.89453 6.24531C3.05684 10.5506 0 16.8203 0 23.7969C0 30.7459 3.03848 37.0064 7.84863 41.3117C7.84863 41.3117 7.84863 41.3209 7.85781 41.3209C7.92207 41.3943 7.98633 41.4494 8.05977 41.5045C12.1906 45.1121 17.5975 47.2969 23.5 47.2969C29.4117 47.2969 34.8277 45.1029 38.9586 41.477C39.0137 41.4402 39.0596 41.3943 39.1147 41.3393C43.9523 37.034 47 30.7643 47 23.7969ZM38.2609 39.0811C37.0492 38.108 35.7549 37.2543 34.3963 36.5475C35.5713 33.1877 36.2781 29.2221 36.3883 24.9168H44.7326C44.4389 30.4613 42.0154 35.4551 38.2609 39.0811ZM24.6199 36.1344C26.9975 36.2629 29.3199 36.777 31.5047 37.6674C29.7697 41.6238 27.3279 44.341 24.6199 44.9377V36.1344ZM24.6199 33.8945V24.9168H34.1484C34.0383 28.8182 33.3773 32.4809 32.3125 35.5836C29.8799 34.5922 27.282 34.023 24.6199 33.8945ZM24.6199 22.677V13.6992C27.282 13.5707 29.8799 13.0016 32.3125 12.0102C33.3773 15.1129 34.0383 18.7756 34.1484 22.677H24.6199ZM24.6199 11.4594V2.65605C27.3279 3.25273 29.7697 5.96074 31.5047 9.92637C29.3199 10.8076 26.9975 11.3309 24.6199 11.4594ZM30.2104 3.61992C32.5236 4.39102 34.6625 5.54766 36.5443 7.01641C35.608 7.75078 34.6074 8.39336 33.5701 8.95332C32.6338 6.83281 31.4955 5.02441 30.2104 3.61992ZM22.3801 2.65605V11.4594C20.0025 11.3309 17.6709 10.8168 15.4953 9.92637C17.2303 5.96992 19.6721 3.25273 22.3801 2.65605ZM13.4299 8.95332C12.3926 8.39336 11.4012 7.75078 10.4557 7.01641C12.3375 5.54766 14.4764 4.39102 16.7896 3.61992C15.5045 5.02441 14.3662 6.83281 13.4299 8.95332ZM22.3801 13.6992V22.677H12.8516C12.9617 18.7756 13.6227 15.1129 14.6875 12.0102C17.1201 13.0016 19.718 13.5707 22.3801 13.6992ZM22.3801 24.9168V33.8945C19.718 34.023 17.1201 34.5922 14.6875 35.5836C13.6227 32.4809 12.9617 28.8182 12.8516 24.9168H22.3801ZM22.3801 36.1344V44.9377C19.6721 44.341 17.2303 41.633 15.4953 37.6674C17.6801 36.7861 20.0025 36.2629 22.3801 36.1344ZM16.7988 43.9738C14.4855 43.2027 12.3467 42.0461 10.4648 40.5773C11.4012 39.843 12.4018 39.2004 13.4391 38.6404C14.3662 40.7609 15.5045 42.5693 16.7988 43.9738ZM33.5701 38.6404C34.6074 39.2004 35.5988 39.843 36.5443 40.5773C34.6625 42.0461 32.5236 43.2027 30.2104 43.9738C31.4955 42.5693 32.6338 40.7609 33.5701 38.6404ZM44.7326 22.677H36.3883C36.2781 18.3717 35.5713 14.4061 34.3963 11.0463C35.7549 10.3303 37.0492 9.48574 38.2609 8.5127C42.0154 12.1387 44.4389 17.1324 44.7326 22.677ZM8.73906 8.5127C9.95078 9.48574 11.2451 10.3395 12.6037 11.0463C11.4287 14.4061 10.7219 18.3717 10.6117 22.677H2.26738C2.56113 17.1324 4.98457 12.1387 8.73906 8.5127ZM2.26738 24.9168H10.6117C10.7219 29.2221 11.4287 33.1877 12.6037 36.5475C11.2451 37.2635 9.95078 38.108 8.73906 39.0811C4.98457 35.4551 2.56113 30.4613 2.26738 24.9168Z" fill="white"/>
</svg>
