<svg width="165" height="164" viewBox="0 0 165 164" fill="none" xmlns="http://www.w3.org/2000/svg">
<path d="M11.3345 22.7212C12.2855 23.8394 13.2063 24.8668 14.0795 25.7962L11.5391 27.9576L7.68599 23.4229L4.026 26.5239L7.87913 31.0628L5.33728 33.2243C4.44245 32.0542 3.58365 30.9822 2.75511 30.0052C1.92656 29.0354 1.00578 28.008 0 26.936L8.74222 19.5137C9.52033 20.531 10.3849 21.5987 11.3345 22.7212Z" fill="white"/>
<path d="M18.1243 18.2051C18.79 17.793 19.2785 17.463 19.5883 17.2138C19.8981 16.9645 20.0868 16.7469 20.1473 16.5538C20.218 16.365 20.1877 16.1619 20.0508 15.9486C19.9182 15.7354 19.7555 15.6172 19.5682 15.5869C19.3794 15.5567 19.1056 15.623 18.7439 15.7901C18.388 15.9587 17.8649 16.2584 17.179 16.6749L15.5162 17.7066L16.4571 19.2325L18.1243 18.2051ZM16.8476 14.2454C18.4499 13.2598 19.705 12.7973 20.6142 12.8578C21.5249 12.9284 22.231 13.3708 22.7454 14.195C23.0898 14.7642 23.2627 15.3232 23.2584 15.8722C23.2526 16.4212 23.0048 17.0063 22.5163 17.6158C22.0235 18.2253 21.2252 18.8665 20.1215 19.5467L17.6113 21.0971L18.6574 22.8003L15.6848 24.6303C14.9773 23.345 14.2856 22.1548 13.6156 21.0625C12.9441 19.9746 12.1919 18.8262 11.3533 17.6201L14.3274 15.7858L14.3317 15.7901L16.8476 14.2454Z" fill="white"/>
<path d="M33.577 12.0854C33.8767 11.6127 33.8925 11.058 33.6289 10.4283C33.3695 9.81875 32.9617 9.45275 32.4084 9.33027C31.8536 9.21355 31.0913 9.35621 30.1259 9.76688C29.1648 10.1747 28.5394 10.6156 28.2397 11.094C27.94 11.5767 27.9198 12.1257 28.1792 12.7367C28.4386 13.3563 28.8493 13.7266 29.404 13.8491C29.9573 13.9658 30.7153 13.8188 31.6706 13.4168C32.6375 13.0061 33.273 12.5637 33.577 12.0854ZM27.7311 16.375C26.4919 16.0811 25.6114 15.303 25.0783 14.0522C24.5538 12.8073 24.61 11.643 25.2512 10.5508C25.8968 9.45275 27.2181 8.48155 29.2253 7.63284C31.2383 6.78412 32.8608 6.5089 34.0914 6.80861C35.3263 7.10833 36.2053 7.87636 36.7284 9.11701C37.263 10.3778 37.2125 11.5522 36.5713 12.6401C35.9258 13.7223 34.5986 14.6935 32.5755 15.5465C30.5784 16.3967 28.9617 16.6661 27.7311 16.375Z" fill="white"/>
<path d="M48.7674 6.52558C48.9663 6.28206 49.0268 6.01693 48.9606 5.73306C48.8237 5.17397 48.2487 4.92469 47.2271 4.99097L47.4403 5.96649C47.4965 6.24027 47.583 6.65238 47.7199 7.20715C48.2184 6.99389 48.5743 6.76478 48.7674 6.52558ZM42.7947 7.93338C43.0685 8.06018 43.4806 8.10629 44.0152 8.07603L43.7241 6.84547L43.4907 5.87427C42.5454 6.28206 42.1391 6.76478 42.276 7.3181C42.3423 7.59764 42.5152 7.80658 42.7947 7.93338ZM48.2386 9.40314L48.5037 10.3787L44.7256 11.2793L44.5022 10.2821C42.678 10.5573 41.2644 10.5156 40.2831 10.1496C39.2975 9.78932 38.6967 9.14377 38.4791 8.22301C38.2601 7.30801 38.5036 6.46938 39.2154 5.69704C39.9229 4.92469 41.1621 4.25321 42.9316 3.67395L42.678 2.66241L46.4547 1.76758C46.5008 1.98084 46.5714 2.31658 46.6838 2.78488C48.534 2.49958 49.9562 2.54569 50.9476 2.90593C51.9346 3.27769 52.5441 3.91747 52.7574 4.82814C53.22 6.75901 51.7113 8.28497 48.2386 9.40314Z" fill="white"/>
<path d="M58.5646 6.70616C62.1497 6.43094 64.752 6.19751 66.363 6.00874C66.3126 6.32431 66.3025 6.64997 66.3126 6.97562C66.3169 7.3056 66.3428 7.72203 66.3788 8.21483L55.3729 9.01888C55.3426 7.55488 55.2763 6.18165 55.1841 4.90642C55.0933 3.62974 54.9564 2.26229 54.7734 0.80405L65.778 0L65.9264 2.04903L58.2649 2.60812L58.347 3.69603C58.7994 3.67009 59.4695 3.62542 60.36 3.55914C61.8543 3.44674 63.409 3.31562 65.0113 3.15279L65.1526 5.09951C63.5473 5.17011 61.9912 5.26233 60.4911 5.36896C59.6021 5.43525 58.9306 5.48568 58.4781 5.52603L58.5646 6.70616Z" fill="white"/>
<path d="M69.2665 7.29987C68.3111 6.50159 67.8788 5.43385 67.9754 4.08657C68.0676 2.73928 68.6526 1.70324 69.7189 0.991412C70.7823 0.279585 72.3832 4.05948e-05 74.5129 0.152781C77.4971 0.366041 79.428 1.32571 80.3229 3.03467C79.4597 3.20758 78.4381 3.49145 77.258 3.8733C77.0188 3.43093 76.6124 3.09087 76.0374 2.84159C75.4639 2.59663 74.8689 2.44965 74.2536 2.40931C73.3487 2.34302 72.657 2.48567 72.1902 2.83582C71.7175 3.18741 71.4581 3.63987 71.4221 4.19896C71.3818 4.80271 71.5806 5.31136 72.033 5.72924C72.4797 6.13991 73.1959 6.38487 74.1772 6.45547C74.9611 6.51167 75.5908 6.44971 76.0692 6.27824C76.5461 6.10533 76.9078 5.79408 77.1571 5.35747C77.9035 5.74365 78.869 6.19179 80.0491 6.68891C79.5102 7.56933 78.6758 8.15291 77.5533 8.43821C76.4193 8.71776 75.2046 8.81863 73.9034 8.72208C71.7679 8.57078 70.2233 8.09671 69.2665 7.29987Z" fill="white"/>
<path d="M82.4626 8.54328C81.634 7.61819 81.3645 6.49425 81.6599 5.18299C81.9495 3.86164 82.6815 2.92647 83.84 2.37747C85 1.82847 86.6254 1.79245 88.7105 2.25499C91.6327 2.9063 93.4079 4.13542 94.0376 5.9611C93.1586 6.00721 92.1054 6.12825 90.8863 6.34151C90.7076 5.86888 90.3574 5.4683 89.8229 5.13688C89.2897 4.81123 88.7206 4.57779 88.1212 4.44523C87.2364 4.24782 86.5347 4.28384 86.0116 4.56339C85.4972 4.83717 85.1773 5.24927 85.0548 5.79827C84.9237 6.38762 85.0447 6.92221 85.4308 7.39916C85.8185 7.87179 86.4885 8.22338 87.4497 8.43664C88.2119 8.60379 88.8474 8.63981 89.346 8.53751C89.8445 8.43664 90.2508 8.18736 90.5606 7.7911C91.2465 8.2839 92.1371 8.86317 93.225 9.53465C92.5636 10.3228 91.6529 10.7753 90.4944 10.892C89.3358 11.003 88.1154 10.9165 86.8401 10.637C84.7551 10.1701 83.2911 9.47269 82.4626 8.54328Z" fill="white"/>
<path d="M100.322 5.84923L97.7841 11.7009L103.316 7.01351L108.181 8.90979C107.656 10.0798 107.127 11.345 106.598 12.7024C106.061 14.0698 105.597 15.3652 105.196 16.5814L101.79 15.2586L104.281 9.57551L98.8259 14.1058L94.0896 12.26C94.6934 10.9185 95.2279 9.65188 95.6905 8.45733C96.153 7.27288 96.6155 5.98756 97.0781 4.58984L100.322 5.84923Z" fill="white"/>
<path d="M115.75 19.4444C116.313 19.4041 116.766 19.0885 117.112 18.4992C117.453 17.9242 117.498 17.381 117.264 16.868C117.031 16.3493 116.462 15.8248 115.557 15.2974C114.656 14.7686 113.924 14.5294 113.361 14.5755C112.796 14.6202 112.344 14.9314 112.004 15.5049C111.662 16.0842 111.612 16.6332 111.851 17.1519C112.08 17.6649 112.649 18.1836 113.548 18.7124C114.453 19.2413 115.185 19.4848 115.75 19.4444ZM108.816 17.3147C108.318 16.1461 108.414 14.9761 109.1 13.8017C109.787 12.6374 110.759 11.9875 112.018 11.8507C113.279 11.7181 114.849 12.1965 116.726 13.2988C118.612 14.4026 119.806 15.5409 120.299 16.7095C120.792 17.8796 120.695 19.0381 120.015 20.2024C119.324 21.3811 118.352 22.0425 117.097 22.175C115.841 22.3062 114.266 21.8191 112.374 20.711C110.503 19.613 109.315 18.4833 108.816 17.3147Z" fill="white"/>
<path d="M133.491 25.7754C132.632 26.7249 131.737 27.7682 130.812 28.9065C129.881 30.0449 129.037 31.1328 128.28 32.1645L125.692 30.0607L127.645 27.6659L123.593 24.3661L121.642 26.761L119.054 24.6572C120.04 23.5635 120.94 22.5217 121.743 21.5303C122.557 20.539 123.395 19.4511 124.259 18.2666L126.851 20.3718L124.9 22.7652L128.95 26.065L130.903 23.6701L133.491 25.7754Z" fill="white"/>
<path d="M137.02 36.567C137.366 35.7644 137.711 34.9604 138.053 34.1477L138.373 33.3999C137.641 33.6146 136.537 33.9489 135.073 34.4013L137.02 36.567ZM135.526 39.9778C135.724 39.5556 135.964 39.0123 136.247 38.3509L133.213 34.9921L131.53 35.5512L129.146 32.9071L137.935 30.335L141.433 34.2183L137.987 42.7084L135.526 39.9778Z" fill="white"/>
<path d="M145.314 53.8188L143.353 50.8101L148.405 47.5262L146.667 44.8619L146.102 45.2077C145.625 45.5233 145.193 45.787 144.807 45.9959C144.425 46.2034 144.013 46.3864 143.576 46.5492C142.783 46.8389 141.965 46.7985 141.121 46.4282C140.282 46.0464 139.489 45.2841 138.736 44.1256L140.587 42.921C140.841 43.1947 141.111 43.3676 141.4 43.4339C141.696 43.4944 142.066 43.4483 142.514 43.2913C142.874 43.1645 143.602 42.738 144.704 42.0204L146.641 40.7451L152.217 49.3303L145.314 53.8188Z" fill="white"/>
<path d="M155.475 55.9184L149.547 58.2614L156.771 58.8507L158.876 63.6347C157.676 64.0871 156.411 64.6102 155.073 65.1995C153.726 65.7903 152.481 66.3739 151.337 66.9531L149.869 63.6145L155.648 61.3464L148.582 60.7009L146.533 56.0495C147.911 55.5322 149.181 55.0135 150.356 54.4947C151.52 53.9861 152.761 53.3967 154.072 52.7354L155.475 55.9184Z" fill="white"/>
<path d="M160.412 77.5182C160.081 76.1925 159.751 74.9057 159.415 73.6608L153.702 75.2357L152.833 72.0901L158.55 70.5137C158.194 69.2688 157.824 67.9921 157.428 66.7068L159.731 66.0713L162.709 76.8827L160.412 77.5182Z" fill="white"/>
<path d="M157.471 83.1583C157.929 86.4365 158.295 88.8054 158.559 90.2752C158.245 90.2492 157.924 90.2535 157.594 90.2896C157.268 90.3198 156.857 90.3717 156.359 90.4365L154.996 80.3816C156.46 80.2548 157.827 80.1078 159.098 79.9349C160.369 79.762 161.726 79.543 163.17 79.2793L164.532 89.3284L162.494 89.608L161.549 82.6036L160.465 82.7505C160.517 83.1684 160.592 83.7779 160.705 84.5906C160.888 85.9638 161.101 87.3774 161.346 88.8414L159.408 89.1008C159.261 87.6267 159.088 86.2074 158.901 84.8356C158.794 84.0215 158.708 83.4119 158.641 82.9998L157.471 83.1583Z" fill="white"/>
<path d="M162.395 102.816C162.425 101.448 162.445 100.121 162.445 98.8344L156.519 98.8604L156.503 95.5923L162.435 95.5707C162.419 94.2695 162.395 92.9482 162.349 91.6009L164.732 91.5908L164.778 102.806L162.395 102.816Z" fill="white"/>
<path d="M41.3366 43.5984C37.9302 46.8074 36.5123 51.3204 37.0916 55.6216C41.3611 56.4545 45.9462 55.3003 49.3526 52.0927C52.759 48.8852 54.1769 44.3765 53.5919 40.0709C49.3267 39.2381 44.7416 40.3908 41.3366 43.5984Z" fill="white"/>
<path d="M67.3586 31.0303V57.0609M20.3477 50.4888L38.7702 68.8954M0.873291 97.4636H26.9314M20.3477 144.444L38.7702 126.032M67.3586 163.898V137.866M114.37 144.444L95.9427 126.032M133.838 97.4636H107.787M114.37 50.4888L95.9427 68.8954" stroke="white" stroke-width="0.288" stroke-miterlimit="10"/>
<path d="M58.9435 103.478C58.9219 101.576 59.03 100.601 59.4061 99.5287C59.6799 98.7246 60.0415 98.069 60.4277 97.3528C60.6971 96.8182 60.824 96.5891 61.0776 95.9753C61.3571 95.2779 61.5661 94.749 61.5661 93.651V91.0545C61.5661 90.7792 61.5055 90.2461 61.3974 89.9968C61.226 89.5948 60.9306 89.4939 60.677 89.4939C60.2548 89.4939 60.128 89.7216 60.02 89.9766C59.873 90.3787 59.8528 90.7331 59.8528 91.1957V94.4147H59.0502V91.9176C59.0502 91.0285 59.0905 90.5862 59.1366 90.3787C59.3239 89.1942 60.0199 88.6855 60.6554 88.6855C61.3571 88.6855 62.033 89.1726 62.2419 90.017C62.3024 90.2922 62.3687 90.8614 62.3687 91.1409V93.2303C62.3687 94.5617 62.1813 95.3643 62.0329 95.7865C61.8816 96.2491 61.4595 97.1799 61.1641 97.7534C60.824 98.3845 60.4277 99.0603 60.1482 99.9047C59.8528 100.794 59.7202 101.765 59.7461 102.674H62.3284V103.478H58.9435Z" fill="white"/>
<path d="M63.8066 102.824C63.6135 102.422 63.5718 101.893 63.5718 100.857V91.3094C63.5718 90.2734 63.6135 89.7388 63.8066 89.3425C64.1467 88.6206 64.6957 88.4736 65.2245 88.4736C65.7533 88.4736 66.3024 88.6206 66.6424 89.3425C66.8312 89.7388 66.8758 90.2734 66.8758 91.3094V100.857C66.8758 101.893 66.8312 102.422 66.6424 102.824C66.3024 103.54 65.7533 103.693 65.2245 103.693C64.6957 103.693 64.1467 103.54 63.8066 102.824ZM65.9666 102.422C66.0272 102.249 66.0675 102.021 66.0675 101.004V91.1581C66.0675 90.1466 66.0272 89.9117 65.9666 89.7388C65.7937 89.3223 65.4781 89.2762 65.2245 89.2762C64.9493 89.2762 64.6755 89.3223 64.5026 89.7388C64.4421 89.9117 64.3801 90.1667 64.3801 91.1581V101.004C64.3801 101.995 64.4421 102.249 64.5026 102.422C64.6755 102.844 64.9493 102.885 65.2245 102.885C65.4781 102.885 65.7937 102.844 65.9666 102.422Z" fill="white"/>
<path d="M67.9726 103.478C67.9524 101.576 68.059 100.601 68.4351 99.5287C68.7103 98.7246 69.0706 98.069 69.4524 97.3528C69.7262 96.8182 69.8544 96.5891 70.108 95.9753C70.3876 95.2779 70.5965 94.749 70.5965 93.651V91.0545C70.5965 90.7792 70.5302 90.2461 70.4279 89.9968C70.255 89.5948 69.961 89.4939 69.706 89.4939C69.2838 89.4939 69.157 89.7216 69.0504 89.9766C68.9034 90.3787 68.8832 90.7331 68.8832 91.1957V94.4147H68.0749V91.9176C68.0749 91.0285 68.1209 90.5862 68.1656 90.3787C68.3544 89.1942 69.0504 88.6855 69.6815 88.6855C70.3876 88.6855 71.0634 89.1726 71.2723 90.017C71.3328 90.2922 71.3991 90.8614 71.3991 91.1409V93.2303C71.3991 94.5617 71.2103 95.3643 71.0633 95.7865C70.9106 96.2491 70.4899 97.1799 70.1945 97.7534C69.8544 98.3845 69.4524 99.0603 69.1772 99.9047C68.8832 100.794 68.7507 101.765 68.7766 102.674H71.3588V103.478H67.9726Z" fill="white"/>
<path d="M72.3501 103.478C72.3299 101.576 72.4308 100.601 72.8126 99.5287C73.0864 98.7246 73.4481 98.069 73.8285 97.3528C74.1037 96.8182 74.2305 96.5891 74.4841 95.9753C74.7637 95.2779 74.9726 94.749 74.9726 93.651V91.0545C74.9726 90.7792 74.9063 90.2461 74.8055 89.9968C74.6326 89.5948 74.3371 89.4939 74.0835 89.4939C73.6613 89.4939 73.5345 89.7216 73.4279 89.9766C73.2795 90.3787 73.2593 90.7331 73.2593 91.1957V94.4147H72.451V91.9176C72.451 91.0285 72.497 90.5862 72.5432 90.3787C72.7305 89.1942 73.4279 88.6855 74.0576 88.6855C74.7637 88.6855 75.4409 89.1726 75.6441 90.017C75.7104 90.2922 75.7752 90.8614 75.7752 91.1409V93.2303C75.7752 94.5617 75.5879 95.3643 75.441 95.7865C75.2882 96.2491 74.866 97.1799 74.5706 97.7534C74.2306 98.3845 73.8285 99.0603 73.5547 99.9047C73.2593 100.794 73.1267 101.765 73.1527 102.674H75.7348V103.478H72.3501Z" fill="white"/>
<path d="M47.1637 154.941C42.3351 154.941 38.3999 151.011 38.3999 146.188C38.3999 141.354 42.3351 137.429 47.1637 137.429C51.9938 137.429 55.9275 141.354 55.9275 146.188C55.9275 151.011 51.9938 154.941 47.1637 154.941ZM47.1637 141.374C44.5109 141.374 42.351 143.534 42.351 146.188C42.351 148.837 44.5109 150.991 47.1637 150.991C49.8179 150.991 51.9779 148.837 51.9779 146.188C51.9779 143.534 49.8179 141.374 47.1637 141.374Z" fill="white"/>
<path d="M47.1637 148.296C48.3337 148.296 49.279 147.351 49.279 146.181C49.279 145.018 48.3337 144.077 47.1637 144.077C45.9951 144.077 45.0498 145.018 45.0498 146.181C45.0498 147.351 45.9951 148.296 47.1637 148.296Z" fill="white"/>
<path d="M119.842 67.4678H128.612L118.088 81.9493H109.32L119.842 67.4678Z" fill="white"/>
<path d="M105.378 45.2489L93.4427 45.0659C93.2539 43.2719 92.0594 41.9808 90.2712 41.6293L89.787 38.7128C89.7467 38.4736 89.5392 38.2949 89.2942 38.2949C89.0449 38.2949 88.8374 38.4736 88.7956 38.7128L88.3129 41.6293C86.5247 41.9808 85.3302 43.2719 85.1414 45.0659L73.206 45.2489C72.951 45.2547 72.7377 45.4478 72.7132 45.7014C72.6916 45.9564 72.8645 46.1841 73.1138 46.236L79.6975 47.5616C79.4424 47.8729 79.2912 48.2691 79.2912 48.7014C79.2912 49.7029 80.1082 50.5156 81.1154 50.5156C82.1212 50.5156 82.9454 49.7029 82.9454 48.7014C82.9454 48.5285 82.9152 48.3599 82.869 48.2028L86.1371 48.8585C86.1472 48.8628 86.1529 48.8628 86.163 48.8628C86.9613 49.9968 88.0997 50.6683 89.2942 50.6683C90.4945 50.6683 91.6329 49.9968 92.4513 48.8181L95.7194 48.1726C95.669 48.3397 95.643 48.5184 95.643 48.7014C95.643 49.7029 96.4615 50.5156 97.4687 50.5156C98.4745 50.5156 99.2987 49.7029 99.2987 48.7014C99.2987 48.2634 99.1402 47.857 98.8765 47.5472L105.47 46.236C105.718 46.1841 105.891 45.9564 105.871 45.7014C105.846 45.4478 105.637 45.2547 105.378 45.2489Z" fill="white"/>
<path d="M14.4858 111.77L12.8028 115.084L9.5448 108.685L1.76221 123.995H8.26955H17.3331H20.702L14.4858 111.77Z" fill="white"/>
<path d="M92.5983 144.769V140.997C92.5983 140.966 92.5724 140.94 92.5421 140.94H90.2294C90.1977 140.94 90.1732 140.916 90.1732 140.884V139.07C90.1732 139.04 90.1472 139.014 90.117 139.014H89.1414C89.1097 139.014 89.0853 138.989 89.0853 138.958V136.488C89.0853 136.458 89.0593 136.432 89.0291 136.432H86.2034C86.1717 136.432 86.1472 136.458 86.1472 136.488V138.958C86.1472 138.989 86.1212 139.014 86.091 139.014H85.0391C85.0088 139.014 84.9829 139.04 84.9829 139.07V140.884C84.9829 140.916 84.9569 140.94 84.9267 140.94H82.5333C82.5016 140.94 82.4771 140.966 82.4771 140.997V144.916C82.4771 144.932 82.467 144.952 82.4512 144.962L80.3618 146.39C80.3416 146.406 80.3315 146.43 80.3416 146.451L80.637 147.402L82.2321 152.469C82.2379 152.485 82.248 152.5 82.2638 152.505L84.2451 153.436L87.3013 154.879C87.3114 154.879 87.3158 154.879 87.3259 154.879H87.9368C87.9412 154.879 87.9512 154.879 87.9613 154.879L93.0148 152.505C93.0292 152.5 93.0393 152.485 93.045 152.469L94.9413 146.451C94.9456 146.43 94.9355 146.406 94.9154 146.39L92.6228 144.814C92.6084 144.804 92.5983 144.789 92.5983 144.769Z" fill="white"/>
<path fill-rule="evenodd" clip-rule="evenodd" d="M126.05 126.149H124.535C124.367 126.149 124.236 126.016 124.236 125.849V124.675C124.236 124.512 124.367 124.375 124.535 124.375H126.05C126.218 124.375 126.349 124.512 126.349 124.675V125.849C126.349 126.016 126.218 126.149 126.05 126.149Z" fill="white"/>
<path fill-rule="evenodd" clip-rule="evenodd" d="M128.442 118.427H127.227C126.978 118.427 126.775 118.23 126.775 117.98V114.895C126.775 114.646 126.978 114.447 127.227 114.447H128.442C128.691 114.447 128.889 114.646 128.889 114.895V117.98C128.889 118.23 128.691 118.427 128.442 118.427Z" fill="white"/>
<path fill-rule="evenodd" clip-rule="evenodd" d="M114.597 118.427H113.382C113.133 118.427 112.93 118.23 112.93 117.98V114.895C112.93 114.646 113.133 114.447 113.382 114.447H114.597C114.846 114.447 115.045 114.646 115.045 114.895V117.98C115.045 118.23 114.846 118.427 114.597 118.427Z" fill="white"/>
<path fill-rule="evenodd" clip-rule="evenodd" d="M117.547 126.149H116.031C115.864 126.149 115.731 126.016 115.731 125.849V124.675C115.731 124.512 115.864 124.375 116.031 124.375H117.547C117.714 124.375 117.846 124.512 117.846 124.675V125.849C117.846 126.016 117.714 126.149 117.547 126.149Z" fill="white"/>
<path d="M125.982 113.46V116.86V117.094C125.982 117.759 125.377 118.304 124.635 118.304H117.269C116.527 118.304 115.921 117.759 115.921 117.094V116.834V113.434V113.2C115.921 112.535 116.527 111.99 117.269 111.99H124.635C125.377 111.99 125.982 112.535 125.982 113.2V113.46ZM124.945 109.058H116.852C115.348 109.058 114.123 110.277 114.123 111.787V122.238V122.278C114.123 123.784 115.348 125.009 116.852 125.009H124.945C126.449 125.009 127.675 123.784 127.675 122.278V122.238V111.787C127.675 110.277 126.449 109.058 124.945 109.058Z" fill="white"/>
<path d="M8.05187 84.7697C7.85302 84.6688 7.65997 84.5564 7.47697 84.4339C5.23053 82.9699 4.0201 80.0679 4.56334 77.4453C4.75787 76.5347 5.12822 75.686 5.57059 74.8675C5.8559 74.3343 6.17581 73.8098 6.49138 73.2969L9.30693 68.6858C9.50001 68.376 9.68737 68.0662 9.87613 67.7608C10.1557 67.304 10.4309 66.8515 10.7104 66.3991C10.9741 65.9725 11.2335 65.5403 11.4929 65.1123C11.9396 65.9106 12.3877 66.7146 12.8344 67.5115C12.9367 67.6945 13.0232 67.8832 13.0938 68.0821C15.8791 75.9511 5.62675 80.0981 8.05187 84.7697Z" fill="white"/>
<path d="M15.5968 85.575C14.5046 86.2307 13.2236 86.5866 11.9526 86.5607C10.6054 86.5347 10.0405 85.9655 9.72058 85.3402C8.9223 83.8113 9.97417 82.2753 11.7537 79.8963C13.4512 77.6196 15.4801 74.9048 15.3432 71.4639C15.9023 72.4696 16.4657 73.4769 17.0305 74.4826C17.3259 75.0115 17.6199 75.5446 17.885 76.0893C18.2914 76.9222 18.6314 77.7867 18.7841 78.7017C19.2265 81.3502 17.8994 84.1975 15.5968 85.575Z" fill="white"/>
</svg>
