<svg width="71" height="44" viewBox="0 0 71 44" fill="none" xmlns="http://www.w3.org/2000/svg">
<path d="M3.67976 3.99189H21.8723C26.3044 3.99189 30.3662 5.57676 33.5221 8.21068C34.26 7.40017 35.059 6.64638 35.912 5.95665C32.1489 2.6981 27.2409 0.726562 21.8723 0.726562H0.414429V43.6423H21.8723C26.9796 43.6423 31.6702 41.858 35.3546 38.8787C34.5257 38.1609 33.7524 37.3807 33.0419 36.5454C29.959 38.9466 26.0827 40.377 21.8723 40.377H3.67976V3.99189Z" fill="white"/>
<path d="M31.7485 10.4383C29.0494 8.16234 25.5627 6.79074 21.7557 6.79074H6.24537V37.8113H21.7557C25.4214 37.8113 28.7901 36.5397 31.4447 34.4134C30.8377 33.489 30.3002 32.5149 29.8396 31.4985C27.683 33.3955 24.8537 34.546 21.7557 34.546H9.5107V10.0561H21.7557C24.9653 10.0561 27.8865 11.291 30.0701 13.3115C30.5561 12.3077 31.1181 11.3475 31.7485 10.4383Z" fill="white"/>
<path d="M23.9714 25.6812C23.3449 26.1231 22.5806 26.3827 21.7557 26.3827H17.9073V18.6859H21.7557C22.5806 18.6859 23.3449 18.9454 23.9714 19.3873C24.959 20.084 25.6041 21.2338 25.6041 22.5343C25.6041 23.8348 24.959 24.9846 23.9714 25.6812Z" fill="white"/>
<path fill-rule="evenodd" clip-rule="evenodd" d="M28.8816 16.3332C27.1499 14.3449 24.5995 13.0882 21.7557 13.0882H12.3095V31.9804H21.7557C24.5709 31.9804 27.0985 30.7489 28.8291 28.7951C28.2484 26.8486 27.9365 24.7862 27.9365 22.6509C27.9365 20.4521 28.2672 18.3305 28.8816 16.3332ZM21.7557 16.3535H15.5749V28.7151H21.7557C25.1692 28.7151 27.9365 25.9478 27.9365 22.5343C27.9365 19.1207 25.1692 16.3535 21.7557 16.3535Z" fill="white"/>
<path d="M0.414429 22.4177V43.6423H21.8723C33.6453 43.6423 43.2039 34.1611 43.3289 22.4177H40.0634C39.9385 32.3576 31.8419 40.377 21.8723 40.377H3.67976V22.4177H0.414429Z" fill="white"/>
<path d="M6.24537 22.4177V37.8113H21.7557C30.2829 37.8113 37.2029 30.9301 37.2655 22.4177H34.0001C33.9375 29.1267 28.4795 34.546 21.7557 34.546H9.5107V22.4177H6.24537Z" fill="white"/>
<path d="M12.3095 22.4177V31.9804H21.7557C26.9726 31.9804 31.2018 27.7512 31.2018 22.5343C31.2018 22.4954 31.2016 22.4565 31.2011 22.4177H27.9354C27.9361 22.4565 27.9365 22.4953 27.9365 22.5343C27.9365 25.9478 25.1692 28.7151 21.7557 28.7151H15.5749V22.4177H12.3095Z" fill="white"/>
<path d="M17.9073 22.4177V26.3827H21.7557C22.5806 26.3827 23.3449 26.1231 23.9714 25.6812C24.959 24.9846 25.6041 23.8348 25.6041 22.5343C25.6041 22.4953 25.6035 22.4564 25.6024 22.4177H17.9073Z" fill="white"/>
<path d="M67.5869 22.1844C67.5869 32.2319 59.4418 40.377 49.3944 40.377C45.0742 40.377 41.1058 38.8711 37.9853 36.3557C37.2609 37.1786 36.4745 37.9457 35.6334 38.6494C39.3586 41.7662 44.1574 43.6423 49.3944 43.6423C61.2452 43.6423 70.8523 34.0353 70.8523 22.1844C70.8523 10.3336 61.2452 0.726562 49.3944 0.726562C37.5435 0.726562 27.9365 10.3336 27.9365 22.1844C27.9365 22.2623 27.9369 22.34 27.9378 22.4177H31.2033C31.2023 22.34 31.2019 22.2623 31.2019 22.1844C31.2019 12.137 39.3469 3.99189 49.3944 3.99189C59.4418 3.99189 67.5869 12.137 67.5869 22.1844Z" fill="white"/>
<path d="M34.0011 22.4177C34.0008 22.3788 34.0007 22.34 34.0007 22.301C34.0007 13.7349 40.9449 6.79074 49.511 6.79074C58.0771 6.79074 65.0213 13.7349 65.0213 22.301C65.0213 30.8671 58.0771 37.8113 49.511 37.8113C45.7517 37.8113 42.3047 36.4739 39.62 34.2489C40.2427 33.3346 40.7966 32.3698 41.2742 31.3618C43.4492 33.3401 46.3393 34.546 49.511 34.546C56.2737 34.546 61.756 29.0638 61.756 22.301C61.756 15.5383 56.2737 10.0561 49.511 10.0561C42.7483 10.0561 37.266 15.5383 37.266 22.301C37.266 22.34 37.2662 22.3788 37.2666 22.4177H34.0011Z" fill="white"/>
<path fill-rule="evenodd" clip-rule="evenodd" d="M42.3316 28.6734C42.9579 26.6967 43.3058 24.5961 43.329 22.4177H40.0656C40.1281 17.2545 44.333 13.0882 49.511 13.0882C54.728 13.0882 58.9571 17.3173 58.9571 22.5343C58.9571 27.7512 54.728 31.9804 49.511 31.9804C46.6377 31.9804 44.0641 30.6976 42.3316 28.6734ZM49.511 28.7151C52.9246 28.7151 55.6918 25.9478 55.6918 22.5343C55.6918 19.1207 52.9246 16.3535 49.511 16.3535C46.0974 16.3535 43.3302 19.1207 43.3302 22.5343C43.3302 25.9478 46.0974 28.7151 49.511 28.7151Z" fill="white"/>
</svg>
