<svg width="52" height="52" viewBox="0 0 52 52" fill="none" xmlns="http://www.w3.org/2000/svg">
<path d="M38.864 12.8005C39.1742 12.8373 39.2557 12.8848 39.4052 12.9764C40.0245 13.3559 40.1707 14.3368 39.63 14.8773C39.4043 15.1032 39.0903 15.2216 38.7684 15.2344H19.092C18.7798 15.222 18.6949 15.1812 18.5387 15.1015C17.8629 14.7572 17.6659 13.718 18.2302 13.1538C18.4559 12.9281 18.7699 12.8095 19.092 12.7969H38.7684C38.8002 12.7981 38.8321 12.7993 38.864 12.8005V12.8005Z" fill="white"/>
<path d="M27.6517 19.2985C28.6695 19.3787 29.2602 20.9574 28.1973 21.5711C28.0683 21.6456 27.9257 21.6962 27.7784 21.7193C27.7154 21.7293 27.6517 21.7327 27.5879 21.7344H19.0891C18.0412 21.707 17.3957 20.086 18.4798 19.4602C18.6087 19.3856 18.7513 19.3353 18.8984 19.3119C18.9614 19.302 19.0251 19.2985 19.0891 19.2969H27.5879C27.6092 19.2975 27.6303 19.2981 27.6517 19.2985Z" fill="white"/>
<path d="M38.8217 19.2981C39.7203 19.3588 40.3425 20.5648 39.6848 21.3176C39.4567 21.5786 39.1174 21.7265 38.767 21.7344H32.617C31.7312 21.7145 31.0633 20.5806 31.6311 19.7992C31.8565 19.4892 32.2293 19.3056 32.617 19.2969H38.767C38.7853 19.2973 38.8034 19.2977 38.8217 19.2981Z" fill="white"/>
<path d="M38.8229 31.5872C39.729 31.6481 40.3347 32.864 39.686 33.6064C39.4578 33.8676 39.1186 34.0155 38.7682 34.0234H32.6182C31.6944 34.0027 31.0292 32.7712 31.7005 32.0028C31.9286 31.7417 32.2678 31.5937 32.6182 31.5859H38.7682C38.7865 31.5863 38.8046 31.5867 38.8229 31.5872Z" fill="white" fill-opacity="0.290196"/>
<path d="M27.6841 31.5876C28.5476 31.6556 29.1604 32.7582 28.6063 33.5209C28.3812 33.8307 28.0068 34.0133 27.6203 34.0234H19.0939C18.0549 33.9962 17.4133 32.3676 18.4845 31.7493C18.6135 31.6747 18.7561 31.6241 18.9032 31.601C18.9662 31.5908 19.0299 31.5876 19.0939 31.5859H27.6203C27.6416 31.5863 27.6627 31.587 27.6841 31.5876V31.5876Z" fill="white"/>
<path d="M38.8494 25.3427C39.7373 25.4321 40.3304 26.5982 39.6987 27.3455C39.4712 27.6146 39.2467 27.7615 38.768 27.7773H24.9516C24.0258 27.7465 23.3713 26.5401 24.0209 25.7719C24.2484 25.5027 24.4726 25.3559 24.9516 25.3398H38.768C38.795 25.3409 38.8222 25.3417 38.8494 25.3427V25.3427Z" fill="white" fill-opacity="0.290196"/>
<path d="M20.4543 40.4835C15.5064 40.6541 10.5855 41.0782 5.73829 41.7727C5.42222 41.8178 4.98002 41.8824 4.98002 41.8824C2.61118 42.1627 0.236646 40.2411 0.184849 37.708C0.126146 29.0882 0.184443 20.4893 0.185459 11.8863L0.185865 8.99768C0.185865 8.99768 0.211865 8.16934 0.449724 7.52482C1.09038 5.78973 2.94146 4.59597 4.83479 4.75501C18.2693 6.06212 31.9942 6.12204 45.5039 4.89618C46.0612 4.84561 46.6182 4.79097 47.175 4.73856C47.175 4.73856 47.3176 4.71947 47.6239 4.72312C49.8142 4.77695 51.7668 6.66134 51.8119 8.93167C51.8747 18.5212 51.8125 28.0935 51.8097 37.6804C51.8097 37.6804 51.7825 38.5296 51.5328 39.1877C50.8611 40.9594 48.9202 42.1448 46.9877 41.9025C41.6644 41.1613 36.2747 40.684 30.8785 40.4922L30.8787 40.5011V41.6951C34.1279 42.1296 37.3283 42.9356 40.4127 44.0185C40.4127 44.0185 41.2746 44.3879 41.338 45.1015C41.4028 45.8334 40.6744 46.5246 39.9423 46.4143C39.5937 46.3617 39.5369 46.2943 39.3756 46.238C30.7188 43.2439 21.1142 42.8322 12.3175 46.3412C12.3175 46.3412 11.6295 46.5065 11.2058 46.2335C10.4538 45.7489 10.4849 44.446 11.5204 44.0347C14.4083 42.8879 17.4062 42.101 20.4537 41.6833V40.5011L20.4543 40.4835V40.4835ZM47.5319 7.16001C46.2662 7.1787 44.8183 7.40843 43.43 7.52036C31.1269 8.51242 18.6727 8.49211 6.34644 7.35014C5.53313 7.27478 4.66924 7.04118 3.95221 7.24431C3.20186 7.45678 2.63941 8.18376 2.62357 8.97757C2.56019 18.5452 2.55694 28.1081 2.62215 37.6747C2.64307 38.6954 3.6006 39.5909 4.67696 39.4636C8.31371 38.9828 11.974 38.5264 15.6467 38.2712C25.9657 37.5542 36.3494 37.9735 46.6093 39.3882C47.8524 39.5597 49.3409 39.2324 49.3722 37.7011C49.4364 28.1373 49.4374 18.5511 49.3746 8.96376C49.3559 8.02878 48.5676 7.19718 47.6038 7.16082C47.5798 7.16022 47.5558 7.16001 47.5319 7.16001V7.16001Z" fill="white"/>
<path fill-rule="evenodd" clip-rule="evenodd" d="M16.259 13.037C16.259 12.8789 16.1962 12.7276 16.0847 12.6159C15.973 12.5042 15.8215 12.4414 15.6636 12.4414C15.1331 12.4414 14.3608 12.4414 13.8304 12.4414C13.6724 12.4414 13.5211 12.5042 13.4093 12.6159C13.2976 12.7276 13.2349 12.8789 13.2349 13.037C13.2349 13.585 13.2349 14.3934 13.2349 14.9415C13.2349 15.0993 13.2976 15.2508 13.4093 15.3625C13.5211 15.4741 13.6724 15.5368 13.8304 15.5368C14.3608 15.5368 15.1331 15.5368 15.6636 15.5368C15.8215 15.5368 15.973 15.4741 16.0847 15.3625C16.1962 15.2508 16.259 15.0993 16.259 14.9415C16.259 14.3934 16.259 13.585 16.259 13.037Z" fill="white"/>
<path fill-rule="evenodd" clip-rule="evenodd" d="M16.259 19.5368C16.259 19.3789 16.1962 19.2274 16.0847 19.1157C15.973 19.004 15.8215 18.9414 15.6636 18.9414C15.1331 18.9414 14.3608 18.9414 13.8304 18.9414C13.6724 18.9414 13.5211 19.004 13.4093 19.1157C13.2976 19.2274 13.2349 19.3789 13.2349 19.5368C13.2349 20.0848 13.2349 20.8932 13.2349 21.4413C13.2349 21.5993 13.2976 21.7506 13.4093 21.8623C13.5211 21.9741 13.6724 22.0368 13.8304 22.0368C14.3608 22.0368 15.1331 22.0368 15.6636 22.0368C15.8215 22.0368 15.973 21.9741 16.0847 21.8623C16.1962 21.7506 16.259 21.5993 16.259 21.4413C16.259 20.8932 16.259 20.0848 16.259 19.5368Z" fill="white"/>
<path fill-rule="evenodd" clip-rule="evenodd" d="M16.259 31.8768C16.259 31.7188 16.1962 31.5675 16.0847 31.4557C15.973 31.344 15.8215 31.2812 15.6636 31.2812C15.1331 31.2812 14.3608 31.2812 13.8304 31.2812C13.6724 31.2812 13.5211 31.344 13.4093 31.4557C13.2976 31.5675 13.2349 31.7188 13.2349 31.8768C13.2349 32.4248 13.2349 33.2333 13.2349 33.7813C13.2349 33.9391 13.2976 34.0907 13.4093 34.2024C13.5211 34.3139 13.6724 34.3767 13.8304 34.3767C14.3608 34.3767 15.1331 34.3767 15.6636 34.3767C15.8215 34.3767 15.973 34.3139 16.0847 34.2024C16.1962 34.0907 16.259 33.9391 16.259 33.7813C16.259 33.2333 16.259 32.4248 16.259 31.8768Z" fill="white"/>
<path fill-rule="evenodd" clip-rule="evenodd" d="M22.1179 25.5797C22.1179 25.4219 22.0551 25.2704 21.9434 25.1589C21.8317 25.0471 21.6803 24.9844 21.5223 24.9844C20.9917 24.9844 20.2197 24.9844 19.6891 24.9844C19.5313 24.9844 19.3798 25.0471 19.268 25.1589C19.1563 25.2704 19.0938 25.4219 19.0938 25.5797C19.0938 26.1278 19.0938 26.9364 19.0938 27.4842C19.0938 27.6423 19.1563 27.7938 19.268 27.9053C19.3798 28.017 19.5313 28.0798 19.6891 28.0798C20.2197 28.0798 20.9917 28.0798 21.5223 28.0798C21.6803 28.0798 21.8317 28.017 21.9434 27.9053C22.0551 27.7938 22.1179 27.6423 22.1179 27.4842C22.1179 26.9364 22.1179 26.1278 22.1179 25.5797Z" fill="white" fill-opacity="0.290196"/>
</svg>
