<svg width="90" height="21" viewBox="0 0 90 21" fill="none" xmlns="http://www.w3.org/2000/svg">
<g clip-path="url(#clip0_3211_1635)">
<path d="M40.7893 5.25419V0.289062L36.0547 0.894475V5.25419H34.2122V9.36257H36.0547C36.0547 12.403 36.0547 18.251 36.0547 20.5596H40.7893V9.36257H44.2218V5.25419H40.7893Z" fill="black"/>
<path d="M14.9136 12.6232C16.3559 11.4754 17.2815 9.90498 17.2815 7.93377V7.07635C17.2815 3.61488 14.4375 1.07162 10.9307 1.07162L0.901489 1.0332L0.907497 20.4565L5.64452 20.4933V13.9007H10.5135L13.6874 20.4933H19.2315L14.9136 12.6232ZM12.441 7.69823C12.441 9.07654 11.308 9.85888 9.91096 9.85888H5.64474V5.19448H9.91096C11.308 5.19448 12.441 6.16275 12.441 7.5415V7.69823Z" fill="black"/>
<path d="M68.1312 5.17287H65.6245V0.211914L60.9927 0.817107L60.9916 20.4935H68.1312C71.6395 20.4935 74.4824 17.8365 74.4824 14.3765V11.4388C74.4824 7.97845 71.6395 5.17287 68.1312 5.17287ZM69.9439 13.9834C69.9439 15.4407 68.9471 16.3054 67.4706 16.3054H65.6398V9.36401H67.4706C68.9471 9.36401 69.9439 10.2295 69.9439 11.6867V13.9834Z" fill="black"/>
<path d="M54.3465 5.25391V14.0928C54.3465 15.5494 53.8096 16.5342 52.3322 16.5342H52.259C50.7829 16.5342 50.2445 15.5494 50.2445 14.0928V5.25391H45.5713V14.4301C45.5713 17.891 47.1065 20.697 51.7719 20.697H52.6681C57.5818 20.697 59.0207 17.891 59.0207 14.4301V5.25391H54.3465Z" fill="black"/>
<path d="M28.0064 5.25391V14.0928C28.0064 15.5494 27.4688 16.5342 25.9919 16.5342H25.9187C24.4426 16.5342 23.9046 15.5494 23.9046 14.0928V5.25391H19.2314V14.4301C19.2314 17.891 20.7658 20.697 25.4312 20.697H26.3281C31.2407 20.697 32.68 17.891 32.68 14.4301V5.25391H28.0064Z" fill="black"/>
<path d="M86.3372 15.362C86.3372 15.362 84.97 17.0149 82.5663 16.8297C81.0686 16.7146 80.1806 15.9639 80.1806 14.5072V13.9995H89.3483V12.0338V11.9319V11.3766C89.3483 8.00157 86.8416 5.04102 82.5779 5.04102C78.3154 5.04102 75.8027 7.85274 75.8027 11.2279V11.9319V12.0338V14.383C75.8027 17.7602 78.3101 20.7205 82.5732 20.7205C87.3919 20.7205 89.4518 17.405 89.4518 17.405L86.3372 15.362ZM80.1806 10.5128C80.1806 9.09034 81.0998 8.23403 82.4679 8.19452H82.5861C84.0101 8.19452 84.9715 9.05983 84.9715 10.5163V10.6449H80.1806V10.5128Z" fill="black"/>
</g>
<defs>
<clipPath id="clip0_3211_1635">
<rect width="89" height="21" fill="white" transform="translate(0.605957)"/>
</clipPath>
</defs>
</svg>
