<svg width="137" height="33" viewBox="0 0 137 33" fill="none" xmlns="http://www.w3.org/2000/svg">
<path d="M47.332 23H50.41V12.208H54.666V9.7H43.076V12.208H47.332V23ZM65.0871 17.927C65.0871 14.64 62.7691 12.626 59.7671 12.626C56.6511 12.626 54.3141 14.83 54.3141 17.889C54.3141 20.929 56.6131 23.152 60.1471 23.152C61.9901 23.152 63.4151 22.582 64.3651 21.499L62.7881 19.789C62.0851 20.454 61.3061 20.777 60.2231 20.777C58.6651 20.777 57.5821 19.998 57.2971 18.725H65.0301C65.0491 18.478 65.0871 18.155 65.0871 17.927ZM59.7861 14.868C61.1161 14.868 62.0851 15.704 62.2941 16.996H57.2591C57.4681 15.685 58.4371 14.868 59.7861 14.868ZM67.0604 23H70.0244V8.902H67.0604V23ZM82.7882 17.927C82.7882 14.64 80.4702 12.626 77.4682 12.626C74.3522 12.626 72.0152 14.83 72.0152 17.889C72.0152 20.929 74.3142 23.152 77.8482 23.152C79.6912 23.152 81.1162 22.582 82.0662 21.499L80.4892 19.789C79.7862 20.454 79.0072 20.777 77.9242 20.777C76.3662 20.777 75.2832 19.998 74.9982 18.725H82.7312C82.7502 18.478 82.7882 18.155 82.7882 17.927ZM77.4872 14.868C78.8172 14.868 79.7862 15.704 79.9952 16.996H74.9602C75.1692 15.685 76.1382 14.868 77.4872 14.868ZM92.4946 12.778V14.089C91.7156 13.101 90.5376 12.626 89.1126 12.626C86.2816 12.626 84.0016 14.583 84.0016 17.566C84.0016 20.549 86.2816 22.506 89.1126 22.506C90.4426 22.506 91.5636 22.088 92.3426 21.233V21.67C92.3426 23.513 91.4306 24.463 89.3406 24.463C88.0296 24.463 86.6046 24.007 85.7306 23.304L84.5526 25.432C85.7496 26.363 87.6306 26.838 89.5686 26.838C93.2546 26.838 95.3066 25.09 95.3066 21.29V12.778H92.4946ZM89.7016 20.074C88.1436 20.074 87.0036 19.067 87.0036 17.566C87.0036 16.065 88.1436 15.058 89.7016 15.058C91.2596 15.058 92.3806 16.065 92.3806 17.566C92.3806 19.067 91.2596 20.074 89.7016 20.074ZM100.896 14.127V12.778H98.0653V23H101.029V18.174C101.029 16.217 102.112 15.324 103.746 15.324C103.974 15.324 104.164 15.343 104.411 15.362V12.626C102.834 12.626 101.618 13.139 100.896 14.127ZM110.241 12.626C108.607 12.626 106.954 13.063 105.833 13.861L106.897 15.932C107.638 15.343 108.759 14.982 109.842 14.982C111.438 14.982 112.198 15.723 112.198 16.996H109.842C106.726 16.996 105.453 18.25 105.453 20.055C105.453 21.822 106.878 23.152 109.272 23.152C110.773 23.152 111.837 22.658 112.388 21.727V23H115.162V17.167C115.162 14.07 113.357 12.626 110.241 12.626ZM110.013 21.157C108.968 21.157 108.341 20.663 108.341 19.922C108.341 19.238 108.778 18.725 110.165 18.725H112.198V19.77C111.856 20.701 111.001 21.157 110.013 21.157ZM130.936 12.626C129.397 12.626 128.067 13.253 127.25 14.298C126.528 13.177 125.312 12.626 123.887 12.626C122.576 12.626 121.436 13.082 120.676 13.956V12.778H117.845V23H120.809V17.87C120.809 16.046 121.74 15.191 123.051 15.191C124.286 15.191 124.989 15.951 124.989 17.604V23H127.953V17.87C127.953 16.046 128.884 15.191 130.214 15.191C131.411 15.191 132.152 15.951 132.152 17.604V23H135.116V17.148C135.116 14.032 133.368 12.626 130.936 12.626Z" fill="#272727"/>
<path d="M16.5 33C25.6127 33 33 25.6127 33 16.5C33 7.3873 25.6127 0 16.5 0C7.3873 0 0 7.3873 0 16.5C0 25.6127 7.3873 33 16.5 33Z" fill="url(#paint0_linear)"/>
<path d="M13.4749 24.0625C12.9403 24.0625 13.0312 23.8607 12.8468 23.3516L11.2749 18.1785L23.3749 11" fill="#C8DAEA"/>
<path d="M13.4751 24.062C13.8876 24.062 14.0698 23.8734 14.3001 23.6495L16.5001 21.5103L13.7559 19.8555" fill="#A9C9DD"/>
<path d="M13.7555 19.8564L20.405 24.7692C21.1639 25.1879 21.7114 24.971 21.9005 24.0648L24.6071 11.3098C24.8842 10.1988 24.1836 9.69477 23.4576 10.0244L7.56401 16.1529C6.47914 16.5881 6.4856 17.1933 7.36629 17.463L11.445 18.7361L20.8875 12.7789C21.3333 12.5086 21.7425 12.6538 21.4067 12.9519" fill="url(#paint1_linear)"/>
<defs>
<linearGradient id="paint0_linear" x1="22.011" y1="5.511" x2="13.761" y2="24.75" gradientUnits="userSpaceOnUse">
<stop stop-color="#37AEE2"/>
<stop offset="1" stop-color="#1E96C8"/>
</linearGradient>
<linearGradient id="paint1_linear" x1="18.5685" y1="16.5014" x2="21.1436" y2="22.3684" gradientUnits="userSpaceOnUse">
<stop stop-color="#EFF7FC"/>
<stop offset="1" stop-color="white"/>
</linearGradient>
</defs>
</svg>
