<svg width="114" height="33" viewBox="0 0 114 33" fill="none" xmlns="http://www.w3.org/2000/svg">
<path d="M47.332 12.208H43.076V9.7H54.666V12.208H50.41V23H47.332V12.208ZM71.9168 12.778L68.2118 23H65.3618L63.0628 16.654L60.6878 23H57.8378L54.1518 12.778H56.9448L59.3578 19.694L61.8658 12.778H64.3738L66.8058 19.694L69.2948 12.778H71.9168ZM73.2948 12.778H76.2588V23H73.2948V12.778ZM74.7768 11.353C74.2321 11.353 73.7888 11.1947 73.4468 10.878C73.1048 10.5613 72.9338 10.1687 72.9338 9.7C72.9338 9.23133 73.1048 8.83867 73.4468 8.522C73.7888 8.20533 74.2321 8.047 74.7768 8.047C75.3214 8.047 75.7648 8.199 76.1068 8.503C76.4488 8.807 76.6198 9.187 76.6198 9.643C76.6198 10.137 76.4488 10.5487 76.1068 10.878C75.7648 11.1947 75.3214 11.353 74.7768 11.353ZM85.6026 22.506C85.3113 22.7213 84.9503 22.886 84.5196 23C84.1016 23.1013 83.6583 23.152 83.1896 23.152C81.9736 23.152 81.0299 22.8417 80.3586 22.221C79.6999 21.6003 79.3706 20.6883 79.3706 19.485V15.286H77.7936V13.006H79.3706V10.517H82.3346V13.006H84.8806V15.286H82.3346V19.447C82.3346 19.8777 82.4423 20.2133 82.6576 20.454C82.8856 20.682 83.2023 20.796 83.6076 20.796C84.0763 20.796 84.4753 20.6693 84.8046 20.416L85.6026 22.506ZM93.6368 22.506C93.3454 22.7213 92.9844 22.886 92.5538 23C92.1358 23.1013 91.6924 23.152 91.2238 23.152C90.0078 23.152 89.0641 22.8417 88.3928 22.221C87.7341 21.6003 87.4048 20.6883 87.4048 19.485V15.286H85.8278V13.006H87.4048V10.517H90.3688V13.006H92.9148V15.286H90.3688V19.447C90.3688 19.8777 90.4764 20.2133 90.6918 20.454C90.9198 20.682 91.2364 20.796 91.6418 20.796C92.1104 20.796 92.5094 20.6693 92.8388 20.416L93.6368 22.506ZM104.998 17.927C104.998 17.965 104.979 18.231 104.941 18.725H97.2082C97.3475 19.3583 97.6769 19.8587 98.1962 20.226C98.7155 20.5933 99.3615 20.777 100.134 20.777C100.666 20.777 101.135 20.701 101.54 20.549C101.958 20.3843 102.345 20.131 102.699 19.789L104.276 21.499C103.314 22.601 101.908 23.152 100.058 23.152C98.9055 23.152 97.8859 22.9303 96.9992 22.487C96.1125 22.031 95.4285 21.404 94.9472 20.606C94.4659 19.808 94.2252 18.9023 94.2252 17.889C94.2252 16.8883 94.4595 15.989 94.9282 15.191C95.4095 14.3803 96.0619 13.7533 96.8852 13.31C97.7212 12.854 98.6522 12.626 99.6782 12.626C100.679 12.626 101.585 12.8413 102.395 13.272C103.206 13.7027 103.839 14.3233 104.295 15.134C104.764 15.932 104.998 16.863 104.998 17.927ZM99.6972 14.868C99.0259 14.868 98.4622 15.058 98.0062 15.438C97.5502 15.818 97.2715 16.3373 97.1702 16.996H102.205C102.104 16.35 101.825 15.837 101.369 15.457C100.913 15.0643 100.356 14.868 99.6972 14.868ZM109.803 14.127C110.157 13.633 110.632 13.2593 111.228 13.006C111.836 12.7527 112.532 12.626 113.318 12.626V15.362C112.988 15.3367 112.767 15.324 112.653 15.324C111.804 15.324 111.139 15.5647 110.658 16.046C110.176 16.5147 109.936 17.224 109.936 18.174V23H106.972V12.778H109.803V14.127Z" fill="#272727"/>
<path d="M16.5 33C25.6127 33 33 25.6127 33 16.5C33 7.3873 25.6127 0 16.5 0C7.3873 0 0 7.3873 0 16.5C0 25.6127 7.3873 33 16.5 33Z" fill="#1B9DF0"/>
<path d="M13.4804 25.2038C20.7981 25.2038 24.7994 19.14 24.7994 13.8848C24.7994 13.7115 24.7994 13.5383 24.7911 13.3733C25.5666 12.8123 26.2431 12.111 26.7794 11.3108C26.0699 11.6243 25.3026 11.8388 24.4941 11.9378C25.3191 11.4428 25.9461 10.6673 26.2431 9.73504C25.4759 10.1888 24.6261 10.5188 23.7186 10.7003C22.9926 9.92479 21.9614 9.44629 20.8146 9.44629C18.6201 9.44629 16.8381 11.2283 16.8381 13.4228C16.8381 13.7363 16.8711 14.0415 16.9454 14.3303C13.6371 14.1653 10.7084 12.5813 8.7449 10.1723C8.40665 10.758 8.20865 11.4428 8.20865 12.1688C8.20865 13.5465 8.9099 14.7675 9.9824 15.477C9.33065 15.4605 8.72015 15.279 8.1839 14.982C8.1839 14.9985 8.1839 15.015 8.1839 15.0315C8.1839 16.962 9.5534 18.5625 11.3766 18.9338C11.0466 19.0245 10.6919 19.074 10.3289 19.074C10.0731 19.074 9.82565 19.0493 9.57815 18.9998C10.0814 20.5838 11.5499 21.7305 13.2906 21.7635C11.9294 22.8278 10.2134 23.463 8.3489 23.463C8.02715 23.463 7.71365 23.4465 7.40015 23.4053C9.1409 24.5438 11.2364 25.2038 13.4804 25.2038Z" fill="white"/>
</svg>
