<svg width="117" height="26" viewBox="0 0 117 26" fill="none" xmlns="http://www.w3.org/2000/svg">
<path d="M36.3585 4.05897C35.9315 2.46112 34.6734 1.20304 33.0755 0.775949C30.1794 -2.8737e-06 18.5671 0 18.5671 0C18.5671 0 6.95492 -2.8737e-06 4.05874 0.775949C2.46112 1.20304 1.20282 2.46112 0.775725 4.05897C0 6.95491 0 12.9972 0 12.9972C0 12.9972 0 19.0393 0.775725 21.935C1.20282 23.5328 2.46112 24.7911 4.05874 25.2182C6.95492 25.9939 18.5671 25.9939 18.5671 25.9939C18.5671 25.9939 30.1794 25.9939 33.0755 25.2182C34.6734 24.7911 35.9315 23.5328 36.3585 21.935C37.1347 19.0393 37.1347 12.9972 37.1347 12.9972C37.1347 12.9972 37.1347 6.95491 36.3585 4.05897Z" fill="#ED1F24"/>
<path d="M14.8538 18.5673L24.5013 12.9971L14.8538 7.42676V18.5673Z" fill="white"/>
<path d="M58.017 21.095C58.2203 20.5644 58.3224 19.6968 58.3224 18.4929V13.4205C58.3224 12.2523 58.2203 11.3981 58.017 10.858C57.8134 10.3183 57.4548 10.0481 56.9417 10.0481C56.446 10.0481 56.096 10.3183 55.8927 10.858C55.6891 11.3981 55.5872 12.2523 55.5872 13.4205V18.4929C55.5872 19.6968 55.6843 20.5644 55.8795 21.095C56.0739 21.6263 56.4278 21.8917 56.9417 21.8917C57.4548 21.8917 57.8134 21.6263 58.017 21.095ZM53.9012 23.6446C53.1659 23.1495 52.6435 22.379 52.3342 21.334C52.0243 20.2899 51.8696 18.9 51.8696 17.165V14.8017C51.8696 13.0489 52.0463 11.6412 52.4007 10.5794C52.7545 9.51712 53.3076 8.74253 54.0604 8.25563C54.8127 7.76896 55.7996 7.52539 57.0213 7.52539C58.2253 7.52539 59.19 7.77328 59.9159 8.26905C60.6416 8.7646 61.1729 9.53941 61.5094 10.5924C61.8453 11.6462 62.0136 13.0489 62.0136 14.8017V17.165C62.0136 18.9 61.8499 20.2945 61.5224 21.3477C61.1947 22.4013 60.6635 23.1711 59.9291 23.6578C59.1941 24.1447 58.1987 24.388 56.9417 24.388C55.6489 24.388 54.6353 24.1401 53.9012 23.6446Z" fill="#272727"/>
<path d="M110.769 10.356C110.583 10.5864 110.459 10.9625 110.397 11.4845C110.335 12.0068 110.304 12.7992 110.304 13.8614V15.0301H112.986V13.8614C112.986 12.8169 112.95 12.0246 112.88 11.4845C112.809 10.9448 112.681 10.5645 112.495 10.3428C112.309 10.1215 112.021 10.0108 111.632 10.0108C111.242 10.0108 110.955 10.1261 110.769 10.356ZM110.304 17.2077V18.0309C110.304 19.0757 110.335 19.8587 110.397 20.3808C110.459 20.9032 110.587 21.2841 110.782 21.5232C110.977 21.762 111.277 21.8818 111.685 21.8818C112.233 21.8818 112.61 21.6689 112.814 21.2441C113.017 20.8193 113.128 20.1113 113.145 19.1196L116.306 19.3056C116.323 19.4477 116.332 19.642 116.332 19.8896C116.332 21.3947 115.921 22.519 115.097 23.2625C114.274 24.0059 113.11 24.3779 111.605 24.3779C109.8 24.3779 108.534 23.8114 107.808 22.678C107.082 21.5454 106.719 19.7927 106.719 17.4201V14.5783C106.719 12.1353 107.095 10.3519 107.848 9.22755C108.6 8.10319 109.888 7.54102 111.712 7.54102C112.968 7.54102 113.933 7.77116 114.606 8.23146C115.279 8.69221 115.752 9.40903 116.027 10.3826C116.301 11.3564 116.439 12.7021 116.439 14.4191V17.2077H110.304Z" fill="#272727"/>
<path d="M44.9771 16.9048L40.8079 1.84766H44.4459L45.9064 8.67226C46.2784 10.3547 46.5527 11.7886 46.7296 12.9743H46.836C46.9598 12.1247 47.2343 10.6999 47.6591 8.69887L49.1728 1.84766H52.811L48.5888 16.9048V24.1283H44.9771V16.9048Z" fill="#272727"/>
<path d="M73.8464 7.8457V24.1243H70.9784L70.6596 22.133H70.58C69.8008 23.6379 68.6324 24.3899 67.0745 24.3899C65.9948 24.3899 65.1981 24.0361 64.6846 23.3279C64.1711 22.62 63.9146 21.5131 63.9146 20.0085V7.8457H67.5792V19.7959C67.5792 20.522 67.659 21.0398 67.8182 21.3491C67.9776 21.6593 68.2432 21.8142 68.6148 21.8142C68.9337 21.8142 69.2391 21.7169 69.5309 21.522C69.8231 21.3271 70.0399 21.0796 70.1818 20.7785V7.8457H73.8464Z" fill="#272727"/>
<path d="M92.6437 7.8457V24.1243H89.7758L89.4569 22.133H89.3778C88.598 23.6379 87.4297 24.3899 85.8719 24.3899C84.7919 24.3899 83.9955 24.0361 83.482 23.3279C82.9682 22.62 82.7119 21.5131 82.7119 20.0085V7.8457H86.3765V19.7959C86.3765 20.522 86.4561 21.0398 86.6153 21.3491C86.775 21.6593 87.0406 21.8142 87.4122 21.8142C87.731 21.8142 88.0365 21.7169 88.3282 21.522C88.6205 21.3271 88.8372 21.0796 88.9791 20.7785V7.8457H92.6437Z" fill="#272727"/>
<path d="M83.8044 4.79545H80.1662V24.1281H76.5811V4.79545H72.9431V1.84766H83.8044V4.79545Z" fill="#272727"/>
<path d="M101.414 17.0908C101.414 18.2772 101.365 19.2067 101.268 19.8792C101.17 20.5523 101.007 21.0304 100.776 21.3133C100.546 21.5966 100.236 21.7381 99.8472 21.7381C99.5457 21.7381 99.2669 21.6674 99.0106 21.5257C98.7534 21.384 98.546 21.1716 98.3863 20.8882V11.6468C98.5102 11.2045 98.7227 10.8413 99.0238 10.558C99.3249 10.2753 99.6519 10.1331 100.006 10.1331C100.378 10.1331 100.665 10.2794 100.869 10.5712C101.073 10.8634 101.214 11.3546 101.294 12.0455C101.374 12.7357 101.414 13.7182 101.414 14.9928V17.0908ZM104.773 10.4508C104.551 9.42428 104.193 8.68062 103.697 8.21987C103.202 7.75981 102.52 7.52966 101.653 7.52966C100.98 7.52966 100.351 7.72023 99.7674 8.10071C99.1832 8.4814 98.7315 8.9815 98.4129 9.60099H98.3861L98.3863 1.02344H94.8545V24.1269H97.8817L98.2537 22.5868H98.3331C98.6162 23.1356 99.041 23.5693 99.6078 23.8881C100.174 24.2067 100.803 24.3661 101.494 24.3661C102.732 24.3661 103.644 23.7949 104.229 22.6532C104.813 21.5114 105.105 19.7279 105.105 17.3021V14.7265C105.105 12.9031 104.994 11.4779 104.773 10.4508Z" fill="#272727"/>
</svg>
