<svg width="166" height="29" viewBox="0 0 166 29" fill="none" xmlns="http://www.w3.org/2000/svg">
<path d="M32.8005 19.8653C35.5645 19.8653 37.7401 17.77 37.7401 15.1114C37.7401 12.4527 35.5645 10.3574 32.8005 10.3574C30.0364 10.3574 27.8608 12.4527 27.8608 15.1114C27.8608 17.77 30.0364 19.8653 32.8005 19.8653ZM32.8005 17.3651C31.5522 17.3651 30.5892 16.3967 30.5892 15.1114C30.5892 13.826 31.5522 12.8576 32.8005 12.8576C34.0488 12.8576 35.0117 13.826 35.0117 15.1114C35.0117 16.3967 34.0488 17.3651 32.8005 17.3651Z" fill="#EE8208"/>
<path d="M47.9848 17.2239H47.7173V11.8537C47.7173 11.0966 47.1823 10.5332 46.3799 10.5332H41.3511C40.5843 10.5332 40.0315 11.0966 40.0315 11.8537V12.2059C40.0315 15.4456 39.978 16.3084 39.3895 17.2239H39.3003C38.6584 17.2239 38.1947 17.7169 38.1947 18.3332V20.6221C38.1947 21.3264 38.7297 21.8546 39.443 21.8546C40.1563 21.8546 40.7091 21.3088 40.7091 20.6221V19.6889H46.576V20.6221C46.576 21.3264 47.1288 21.8546 47.8421 21.8546C48.5554 21.8546 49.0904 21.3264 49.0904 20.6221V18.3332C49.0904 17.7169 48.6268 17.2239 47.9848 17.2239ZM41.9574 17.2239C42.3854 16.3964 42.528 15.6041 42.5637 12.9982H45.0068V17.2239H41.9574Z" fill="#EE8208"/>
<path d="M57.985 10.5332C57.2004 10.5332 56.5941 11.079 56.5941 11.8713V13.8257H53.2772V11.8713C53.2772 11.079 52.6887 10.5332 51.9041 10.5332C51.1373 10.5332 50.5667 11.079 50.5667 11.8713V18.3508C50.5667 19.1255 51.1195 19.6889 51.9041 19.6889C52.6887 19.6889 53.2772 19.1431 53.2772 18.3508V16.326H56.5941V18.3508C56.5941 19.1431 57.2004 19.6889 57.985 19.6889C58.7518 19.6889 59.3046 19.1255 59.3046 18.3508V11.8713C59.3046 11.0966 58.7518 10.5332 57.985 10.5332Z" fill="#EE8208"/>
<path d="M65.8884 19.8653C68.6524 19.8653 70.828 17.77 70.828 15.1114C70.828 12.4527 68.6524 10.3574 65.8884 10.3574C63.1243 10.3574 60.9487 12.4527 60.9487 15.1114C60.9487 17.77 63.1243 19.8653 65.8884 19.8653ZM65.8884 17.3651C64.6401 17.3651 63.6771 16.3967 63.6771 15.1114C63.6771 13.826 64.6401 12.8576 65.8884 12.8576C67.1366 12.8576 68.0996 13.826 68.0996 15.1114C68.0996 16.3967 67.1366 17.3651 65.8884 17.3651Z" fill="#EE8208"/>
<path d="M80.3374 17.3648L78.1083 15.0758L80.2661 12.7341C80.5336 12.4348 80.6406 12.1355 80.6406 11.8361C80.6406 11.0966 80.0699 10.5332 79.321 10.5332C78.9108 10.5332 78.5363 10.7621 78.2332 11.0966L75.2373 14.4068V11.8713C75.2373 11.0966 74.6666 10.5332 73.8998 10.5332C73.0974 10.5332 72.5267 11.079 72.5267 11.8713V18.3508C72.5267 19.1431 73.0974 19.6889 73.8998 19.6889C74.6666 19.6889 75.2373 19.1255 75.2373 18.3508V15.8682L78.2688 19.1079C78.6077 19.4776 79.0178 19.6889 79.4636 19.6889C80.1769 19.6889 80.8189 19.2135 80.8189 18.4036C80.8189 18.0515 80.6762 17.7169 80.3374 17.3648Z" fill="#EE8208"/>
<path d="M83.0166 19.6889C83.9974 19.6889 84.9961 18.8438 85.4597 17.5761C85.8699 16.4492 86.0304 15.023 86.0304 13.0334H88.4556V18.3508C88.4556 19.1079 89.0262 19.6889 89.8109 19.6889C90.5955 19.6889 91.1661 19.1079 91.1661 18.3332V11.889C91.1661 11.1142 90.5955 10.5332 89.8109 10.5332H84.7821C83.9974 10.5332 83.4446 11.1142 83.4446 11.889V12.4348C83.4446 15.6393 83.1593 16.8542 82.5887 17.0831C82.0359 17.312 81.6792 17.7874 81.6792 18.3508C81.6792 19.1079 82.2498 19.6889 83.0166 19.6889Z" fill="#EE8208"/>
<path d="M101.253 10.5335C100.611 10.5335 100.093 10.9208 99.9508 11.5019C99.2554 10.7976 98.3283 10.375 97.2405 10.375C94.7796 10.375 92.8002 12.3822 92.8002 15.1289C92.8002 17.858 94.7796 19.8653 97.2405 19.8653C98.3283 19.8653 99.2554 19.4427 99.9508 18.7384C100.111 19.3018 100.611 19.6892 101.253 19.6892C102.037 19.6892 102.608 19.1258 102.608 18.3686V11.854C102.608 11.0793 102.037 10.5335 101.253 10.5335ZM97.7041 17.365C96.4737 17.365 95.5286 16.3966 95.5286 15.1113C95.5286 13.8436 96.4737 12.8752 97.7041 12.8752C98.9522 12.8752 99.8973 13.8436 99.8973 15.1113C99.8973 16.3966 98.9522 17.365 97.7041 17.365Z" fill="#EE8208"/>
<path d="M109.198 19.8653C111.284 19.8653 113.049 18.7384 113.049 17.4531C113.049 16.8545 112.55 16.4143 111.979 16.4143C110.892 16.4143 110.731 17.3122 109.198 17.3122C107.949 17.3122 107.022 16.3615 107.022 15.1114C107.022 13.8612 107.949 12.9105 109.198 12.9105C110.731 12.9105 110.892 13.8084 111.979 13.8084C112.55 13.8084 113.049 13.3682 113.049 12.7696C113.049 11.4843 111.284 10.3574 109.198 10.3574C106.433 10.3574 104.294 12.4527 104.294 15.1114C104.294 17.77 106.433 19.8653 109.198 19.8653Z" fill="#EE8208"/>
<path d="M118.95 19.8653C121.036 19.8653 122.802 18.7384 122.802 17.4531C122.802 16.8545 122.302 16.4143 121.732 16.4143C120.644 16.4143 120.483 17.3122 118.95 17.3122C117.701 17.3122 116.774 16.3615 116.774 15.1114C116.774 13.8612 117.701 12.9105 118.95 12.9105C120.483 12.9105 120.644 13.8084 121.732 13.8084C122.302 13.8084 122.802 13.3682 122.802 12.7696C122.802 11.4843 121.036 10.3574 118.95 10.3574C116.186 10.3574 114.046 12.4527 114.046 15.1114C114.046 17.77 116.186 19.8653 118.95 19.8653Z" fill="#EE8208"/>
<path d="M131.841 10.5332C131.056 10.5332 130.45 11.079 130.45 11.8713V13.8257H127.133V11.8713C127.133 11.079 126.544 10.5332 125.76 10.5332C124.993 10.5332 124.422 11.079 124.422 11.8713V18.3508C124.422 19.1255 124.975 19.6889 125.76 19.6889C126.544 19.6889 127.133 19.1431 127.133 18.3508V16.326H130.45V18.3508C130.45 19.1431 131.056 19.6889 131.841 19.6889C132.607 19.6889 133.16 19.1255 133.16 18.3508V11.8713C133.16 11.0966 132.607 10.5332 131.841 10.5332Z" fill="#EE8208"/>
<path d="M142.882 10.5332C142.49 10.5332 142.133 10.6917 141.866 10.991L138.103 15.2519V11.8537C138.103 11.079 137.532 10.5332 136.766 10.5332C136.017 10.5332 135.428 11.0966 135.428 11.8537V18.3684C135.428 19.1255 136.017 19.6889 136.766 19.6889C137.194 19.6889 137.532 19.5129 137.818 19.1783L141.563 14.9174V18.3684C141.563 19.1255 142.169 19.6889 142.9 19.6889C143.685 19.6889 144.238 19.1431 144.238 18.3684V11.8537C144.238 11.079 143.667 10.5332 142.882 10.5332Z" fill="#EE8208"/>
<path d="M154.368 17.3648L152.138 15.0758L154.296 12.7341C154.564 12.4348 154.671 12.1355 154.671 11.8361C154.671 11.0966 154.1 10.5332 153.351 10.5332C152.941 10.5332 152.566 10.7621 152.263 11.0966L149.267 14.4068V11.8713C149.267 11.0966 148.697 10.5332 147.93 10.5332C147.128 10.5332 146.557 11.079 146.557 11.8713V18.3508C146.557 19.1431 147.128 19.6889 147.93 19.6889C148.697 19.6889 149.267 19.1255 149.267 18.3508V15.8682L152.299 19.1079C152.638 19.4776 153.048 19.6889 153.494 19.6889C154.207 19.6889 154.849 19.2135 154.849 18.4036C154.849 18.0515 154.706 17.7169 154.368 17.3648Z" fill="#EE8208"/>
<path d="M163.885 10.5332C163.493 10.5332 163.136 10.6917 162.868 10.991L159.106 15.2519V11.8537C159.106 11.079 158.535 10.5332 157.768 10.5332C157.019 10.5332 156.431 11.0966 156.431 11.8537V18.3684C156.431 19.1255 157.019 19.6889 157.768 19.6889C158.196 19.6889 158.535 19.5129 158.82 19.1783L162.565 14.9174V18.3684C162.565 19.1255 163.172 19.6889 163.903 19.6889C164.687 19.6889 165.24 19.1431 165.24 18.3684V11.8537C165.24 11.079 164.669 10.5332 163.885 10.5332Z" fill="#EE8208"/>
<path fill-rule="evenodd" clip-rule="evenodd" d="M8.46376 14.9947C4.31338 14.9947 0.866429 11.5931 0.866429 7.56673C0.866429 3.40156 4.31338 0 8.46376 0C12.7549 0 16.0611 3.40156 16.0611 7.56673C16.0611 11.5931 12.7549 14.9947 8.46376 14.9947ZM8.46376 4.37343C6.70515 4.37343 5.36855 5.83124 5.36855 7.56674C5.36855 9.30222 6.70515 10.6212 8.46376 10.6212C10.2928 10.6212 11.559 9.30222 11.559 7.56674C11.559 5.83124 10.2928 4.37343 8.46376 4.37343ZM11.4887 21.173L15.7798 25.2688C16.6239 26.1712 16.6239 27.4902 15.7798 28.3232C14.8653 29.2256 13.4584 29.2256 12.7549 28.3232L8.46376 24.1581L4.31338 28.3232C3.8913 28.7398 3.32854 28.9479 2.69542 28.9479C2.20299 28.9479 1.64023 28.7398 1.14781 28.3232C0.303663 27.4902 0.303663 26.1712 1.14781 25.2688L5.50921 21.173C3.8913 20.6871 2.41404 20.0622 1.00712 19.2292C-0.0480697 18.6738 -0.259103 17.2855 0.303663 16.2442C1.00712 15.2028 2.27335 14.9252 3.39888 15.6194C6.4941 17.4937 10.4334 17.4937 13.5286 15.6194C14.6542 14.9252 15.9908 15.2028 16.6239 16.2442C17.257 17.2855 16.9756 18.6738 15.9908 19.2292C14.6542 20.0622 13.1066 20.6871 11.4887 21.173Z" fill="#EE8208"/>
</svg>
