<svg width="133" height="36" viewBox="0 0 133 36" fill="none" xmlns="http://www.w3.org/2000/svg">
<g clip-path="url(#clip0_3417_1624)">
<path d="M124.259 0.5H9.57029C4.78986 0.5 0.914551 4.41751 0.914551 9.25V26.75C0.914551 31.5825 4.78986 35.5 9.57029 35.5H124.259C129.039 35.5 132.915 31.5825 132.915 26.75V9.25C132.915 4.41751 129.039 0.5 124.259 0.5Z" fill="black"/>
<path fill-rule="evenodd" clip-rule="evenodd" d="M74.3877 9.25C74.3455 12.6552 74.1156 14.5692 72.8524 15.8464C71.5892 17.1235 69.6963 17.3559 66.3281 17.3983V17.9017C69.6963 17.9441 71.5892 18.1765 72.8524 19.4536C74.1156 20.7308 74.3455 22.6448 74.3877 26.05H74.8854C74.9276 22.6448 75.1575 20.7308 76.4207 19.4536C77.6839 18.1765 79.5768 17.944 82.9455 17.9017V17.3983C79.5768 17.3559 77.6839 17.1235 76.4207 15.8464C75.1575 14.5692 74.9276 12.6552 74.8854 9.25H74.3877Z" fill="white"/>
<path d="M17.8729 23.9508H20.0511V11.3018H16.8827C13.6964 11.3018 12.0222 12.958 12.0222 15.3968C12.0222 17.3441 12.9403 18.4908 14.5785 19.6738L11.7341 23.9508H14.0924L17.2608 19.1641L16.1627 18.418C14.8305 17.508 14.1824 16.7981 14.1824 15.2693C14.1824 13.9225 15.1185 13.0125 16.9007 13.0125H17.8729V23.9508ZM59.8719 24.1328C60.8619 24.1328 61.5641 23.9508 62.0862 23.5685V21.8031C61.5463 22.1853 60.8982 22.422 59.998 22.422C58.4675 22.422 57.8378 21.2208 57.8378 19.328C57.8378 17.3441 58.612 16.325 60.0158 16.325C60.8441 16.325 61.6539 16.6161 62.0862 16.8891V15.051C61.6361 14.7961 60.8441 14.6141 59.7821 14.6141C57.0458 14.6141 55.6236 16.598 55.6236 19.3825C55.6236 22.4401 57.0096 24.1328 59.8719 24.1328ZM46.4783 23.332V21.5665C45.8122 22.0215 44.6961 22.422 43.6519 22.422C42.0858 22.422 41.4917 21.6758 41.4017 20.147H46.5683V19.0003C46.5683 15.8153 45.1822 14.6141 43.0399 14.6141C40.4296 14.6141 39.1874 16.6343 39.1874 19.4008C39.1874 22.5858 40.7356 24.1328 43.472 24.1328C44.8401 24.1328 45.8482 23.7688 46.4783 23.332ZM26.856 14.7961V18.418H23.9936V14.7961H21.8513V23.9508H23.9936V20.1288H26.856V23.9508H28.9982V14.7961H26.856ZM38.6654 22.24H37.7112V14.7961H31.4645V15.5788C31.4645 17.8173 31.3205 20.7111 30.5644 22.24H29.8983V26.0438H31.8786V23.9508H36.6852V26.0438H38.6654V22.24ZM53.3191 23.9508H55.7496L52.311 19.0185L55.3352 14.7961H53.1751L50.1507 19.0185V14.7961H48.0085V23.9508H50.1507V19.4553L53.3191 23.9508ZM43.0039 16.325C44.066 16.325 44.3901 17.2168 44.3901 18.3633V18.5453H41.4017C41.4557 17.0893 41.9778 16.325 43.0039 16.325ZM35.569 22.24H32.5446C33.1387 20.8568 33.3007 18.3633 33.3007 16.78V16.507H35.569V22.24Z" fill="white"/>
<path d="M88.6696 26.5888V23.9498H95.3664V26.5888H97.4011V22.239H96.2309V11.3008H88.5798L88.3639 17.5798C88.292 19.6182 88.0756 21.2744 87.4994 22.239H86.6355V26.5888H88.6696ZM90.272 17.871L90.4338 13.0116H94.0524V22.239H89.5519C89.9301 21.3836 90.2 19.9094 90.272 17.871Z" fill="white"/>
<path d="M101.056 22.4211C99.9577 22.4211 98.8779 22.0206 98.3018 21.5839V23.3493C98.7156 23.6951 99.7597 24.1319 101.308 24.1319C103.594 24.1319 104.801 23.0944 104.801 21.2563C104.801 20.1824 104.135 19.4544 102.946 19.1996C104.063 18.8356 104.531 18.0349 104.531 17.0156C104.531 15.4686 103.324 14.6133 101.38 14.6133C99.9761 14.6133 99.0581 15.0501 98.536 15.3776V17.1431C99.1116 16.7609 99.9042 16.3241 101.074 16.3241C101.866 16.3241 102.37 16.7063 102.37 17.3796C102.37 18.0894 101.938 18.4716 101.056 18.4716H99.7062V20.1096H101.056C102.154 20.1096 102.586 20.4373 102.586 21.2381C102.586 21.9661 102.064 22.4211 101.056 22.4211Z" fill="white"/>
<path d="M112.906 23.3311V21.5656C112.24 22.0206 111.124 22.4211 110.079 22.4211C108.513 22.4211 107.919 21.6749 107.829 20.1461H112.996V18.9994C112.996 15.8144 111.61 14.6133 109.468 14.6133C106.857 14.6133 105.615 16.6334 105.615 19.3999C105.615 22.5849 107.163 24.1319 109.9 24.1319C111.268 24.1319 112.276 23.7679 112.906 23.3311ZM109.431 16.3241C110.494 16.3241 110.818 17.2159 110.818 18.3624V18.5444H107.829C107.884 17.0884 108.406 16.3241 109.431 16.3241Z" fill="white"/>
<path d="M119.436 14.7949V18.4167H116.573V14.7949H114.431V23.9495H116.573V20.1275H119.436V23.9495H121.578V14.7949H119.436Z" fill="white"/>
</g>
<defs>
<clipPath id="clip0_3417_1624">
<rect width="132" height="35" fill="white" transform="translate(0.914551 0.5)"/>
</clipPath>
</defs>
</svg>
