<svg width="154" height="35" viewBox="0 0 154 35" fill="none" xmlns="http://www.w3.org/2000/svg">
<path fill-rule="evenodd" clip-rule="evenodd" d="M21.4994 7.06064C21.4994 7.9223 20.8008 8.62064 19.9394 8.62064C19.0779 8.62064 18.3794 7.9223 18.3794 7.06064C18.3794 6.19898 19.0779 5.50064 19.9394 5.50064C20.801 5.50064 21.4994 6.19898 21.4994 7.06064ZM13 18.3333C10.6068 18.3333 8.66673 16.3932 8.66673 14C8.66673 11.6068 10.6068 9.66673 13 9.66673C15.3932 9.66673 17.3333 11.6068 17.3333 14C17.3333 16.3932 15.3932 18.3333 13 18.3333ZM13 7.3243C9.31308 7.3243 6.3243 10.3131 6.3243 14C6.3243 17.6869 9.31308 20.6757 13 20.6757C16.6869 20.6757 19.6757 17.6869 19.6757 14C19.6757 10.3131 16.6869 7.3243 13 7.3243ZM13 3.34244C16.4712 3.34244 16.8823 3.35564 18.253 3.4182C19.5205 3.47609 20.2089 3.68775 20.667 3.86589C21.2737 4.10172 21.7067 4.38345 22.1617 4.83845C22.6167 5.29325 22.8985 5.72631 23.1343 6.33325C23.3123 6.7913 23.5241 7.47969 23.582 8.74719C23.6446 10.1181 23.6578 10.5292 23.6578 14.0004C23.6578 17.4716 23.6446 17.8827 23.582 19.2534C23.5241 20.5209 23.3125 21.2093 23.1343 21.6674C22.8985 22.2741 22.6167 22.7072 22.1617 23.1622C21.707 23.6172 21.2739 23.8989 20.667 24.1347C20.2089 24.3127 19.5205 24.5245 18.253 24.5824C16.8823 24.645 16.4712 24.6582 13 24.6582C9.52859 24.6582 9.11747 24.645 7.74678 24.5824C6.47928 24.5245 5.79089 24.3129 5.33284 24.1347C4.72611 23.8989 4.29305 23.6172 3.83805 23.1622C3.38325 22.7074 3.10131 22.2743 2.86548 21.6674C2.68755 21.2093 2.47569 20.5209 2.4178 19.2534C2.35523 17.8825 2.34203 17.4714 2.34203 14.0004C2.34203 10.5292 2.35523 10.1181 2.4178 8.74719C2.47569 7.47969 2.68734 6.7913 2.86548 6.33325C3.10131 5.72652 3.38305 5.29345 3.83805 4.83845C4.29284 4.38345 4.72591 4.10172 5.33284 3.86589C5.79089 3.68795 6.47928 3.47609 7.74678 3.4182C9.11767 3.35564 9.5288 3.34244 13 3.34244ZM13 1C9.46948 1 9.02667 1.01503 7.64014 1.0782C6.25645 1.14137 5.31131 1.36116 4.48459 1.6825C3.62964 2.01461 2.90469 2.45925 2.18197 3.18197C1.45925 3.90469 1.01461 4.62964 0.6825 5.48459C0.361156 6.31152 0.141375 7.25645 0.0782031 8.64014C0.0150313 10.0267 0 10.4695 0 14C0 17.5305 0.0150313 17.9733 0.0782031 19.3599C0.141375 20.7435 0.361156 21.6885 0.6825 22.5154C1.01461 23.3704 1.45925 24.0953 2.18197 24.818C2.90469 25.5408 3.62964 25.9852 4.48459 26.3175C5.31152 26.6388 6.25645 26.8586 7.64014 26.9218C9.02667 26.985 9.46948 27 13 27C16.5305 27 16.9733 26.985 18.3599 26.9218C19.7435 26.8586 20.6885 26.6388 21.5154 26.3175C22.3704 25.9852 23.0953 25.5408 23.818 24.818C24.5408 24.0953 24.9852 23.3704 25.3175 22.5154C25.6388 21.6885 25.8586 20.7435 25.9218 19.3599C25.985 17.9733 26 17.5305 26 14C26 10.4695 25.985 10.0267 25.9218 8.64014C25.8586 7.25645 25.6388 6.31152 25.3175 5.48459C24.9852 4.62964 24.5408 3.90469 23.818 3.18197C23.0953 2.45925 22.3704 2.01481 21.5154 1.6825C20.6885 1.36116 19.7435 1.14137 18.3599 1.0782C16.9733 1.01503 16.5305 1 13 1Z" fill="url(#paint0_radial)"/>
<path d="M87.7387 9.24753C87.9822 8.09452 88.2195 7.94206 89.3017 8.12376C89.4715 8.15228 89.6425 8.18155 89.8077 8.22878C90.8399 8.52371 90.9573 8.68603 90.9408 9.7512C90.8995 12.4136 90.83 15.0762 90.8371 17.7385C90.8393 18.5509 91.0228 19.3689 91.1827 20.1725C91.2749 20.6359 91.5467 21.0318 92.0647 21.1314C92.618 21.2377 93.0441 20.9829 93.3549 20.5549C93.8729 19.8416 94.1927 19.0723 94.0856 18.1478C93.8157 15.8163 93.9935 13.5181 94.7567 11.2877C95.1132 10.2461 95.6444 9.30588 96.4544 8.52498C97.876 7.15432 100.564 7.16204 101.761 8.97494C101.808 9.04605 101.891 9.09365 101.924 9.12333C102.086 8.79381 102.165 8.32428 102.402 8.22309C102.771 8.06508 103.248 8.14124 103.678 8.14953C103.865 8.15314 104.054 8.22174 104.234 8.28332C105.101 8.57919 105.186 8.69708 105.173 9.59903C105.131 12.5493 105.086 15.4996 105.042 18.4498C105.039 18.6352 105.042 18.8207 105.042 19.0756C105.172 19.0086 105.255 18.9937 105.289 18.9449C106.763 16.8003 107.955 14.5223 108.611 11.9848C108.703 11.6278 108.669 11.4051 108.381 11.1372C107.693 10.4987 107.58 9.37702 108.036 8.41352C108.431 7.58052 109.283 7.12601 110.266 7.2253C111.045 7.30407 111.433 7.70469 111.473 8.49322C111.49 8.81634 111.476 9.14103 111.476 9.57441C111.837 9.52179 112.221 9.47389 112.601 9.40848C113.279 9.29212 113.953 9.15404 114.632 9.04497C116.168 8.79819 116.944 9.59672 116.648 11.1293C116.412 12.3499 116.123 13.5608 115.907 14.7846C115.645 16.2669 115.597 17.76 115.959 19.2349C116.067 19.6743 116.236 20.1184 116.47 20.5033C116.98 21.3405 117.898 21.4172 118.534 20.6738C119.111 19.998 119.371 19.2382 119.219 18.2939C118.738 15.3238 119.007 12.4381 120.577 9.79957C121.368 8.47119 122.495 7.57746 124.157 7.57486C125.229 7.57319 126.082 7.99728 126.772 8.79284C126.88 8.91686 126.995 9.03452 127.132 9.18216C127.263 8.1753 127.566 7.95292 128.54 8.09963C128.672 8.1196 128.804 8.14518 128.936 8.1721C130.206 8.43249 130.336 8.6623 130.316 9.9481C130.271 12.8581 130.26 15.769 130.278 18.6792C130.281 19.2218 130.419 19.7861 130.606 20.3003C130.977 21.3251 131.927 21.4731 132.602 20.6096C133.422 19.56 133.923 18.3477 133.955 17.0132C134.019 14.236 134.016 11.4572 134.04 8.67904C134.048 7.85016 134.175 7.74623 135.006 7.90246C135.4 7.97676 135.795 8.05179 136.187 8.1406C136.91 8.30441 137.013 8.43941 137.011 9.20585C137.009 10.6812 137.002 12.1565 136.998 13.6319C136.998 13.7216 137.011 13.8113 137.137 13.941C137.214 13.7473 137.294 13.5551 137.367 13.3596C137.916 11.8699 138.42 10.3615 139.026 8.89525C139.486 7.78423 139.895 7.64567 141.062 7.96106C141.283 8.02074 141.499 8.10643 141.71 8.19605C142.494 8.52866 142.875 9.09599 142.903 9.97656C142.966 11.9662 143.091 13.9538 143.196 15.942C143.202 16.0609 143.252 16.1774 143.405 16.3013C143.467 15.9788 143.498 15.6475 143.593 15.3353C144.249 13.1786 144.884 11.0143 145.598 8.87676C145.943 7.84551 146.413 7.67486 147.478 7.95443C147.663 8.00296 147.845 8.06411 148.024 8.12986C149.592 8.70351 149.79 9.04966 149.76 10.7117C149.717 13.0852 149.68 15.461 149.743 17.833C149.764 18.6331 150.06 19.4376 150.308 20.2153C150.456 20.6804 150.805 21.0713 151.355 21.0713C151.91 21.0714 152.224 20.6527 152.398 20.2032C152.658 19.5282 152.827 18.8181 153.041 18.1248C153.097 17.944 153.137 17.7365 153.255 17.6037C153.349 17.4973 153.567 17.4179 153.699 17.4511C153.82 17.4817 153.977 17.6738 153.984 17.8027C154.065 19.15 153.84 20.446 153.141 21.614C152.285 23.0433 150.301 23.3944 148.969 22.3846C147.676 21.4034 147.175 19.9881 147.071 18.4723C146.919 16.2596 146.925 14.0361 146.863 11.8173C146.859 11.6933 146.85 11.5694 146.835 11.286C146.68 11.5012 146.596 11.5851 146.55 11.6862C145.211 14.6074 144.399 17.6581 144.357 20.8855C144.351 21.4133 144.134 21.642 143.657 21.7578C142.583 22.0186 141.516 21.5052 141.212 20.3961C140.921 19.3334 140.745 18.2278 140.637 17.1293C140.475 15.472 140.418 13.8044 140.312 12.1415C140.3 11.9607 140.261 11.7816 140.235 11.6017C140.186 11.5824 140.136 11.5632 140.087 11.5439C139.948 11.722 139.777 11.8833 139.676 12.0806C138.51 14.3599 137.833 16.7774 137.682 19.3353C137.63 20.2337 137.618 21.1343 137.581 22.0337C137.555 22.6768 137.372 22.9328 136.721 22.9352C136.042 22.9377 135.359 22.8236 134.685 22.7124C134.251 22.6409 134.045 22.3407 134.076 21.8801C134.099 21.5331 134.08 21.1834 133.984 20.7898C133.275 22.2349 132.309 23.1983 130.61 22.9584C128.993 22.7301 128.172 21.6559 127.754 20.018C126.814 21.5601 125.706 22.7285 123.928 22.9581C122.103 23.1937 120.775 22.4425 119.886 20.7514C119.691 21.0617 119.559 21.2842 119.416 21.5001C118.242 23.2758 116.003 23.5151 114.458 22.0506C113.54 21.1806 113.061 20.1031 112.859 18.881C112.485 16.6255 112.813 14.4134 113.285 12.2122C113.461 11.3913 113.426 11.4306 112.618 11.3464C111.379 11.2172 110.759 11.6422 110.317 12.8747C109.216 15.9435 107.482 18.6785 105.392 21.1868C105.205 21.4114 105.081 21.7595 105.076 22.0528C105.045 23.8127 105.128 25.5773 105.029 27.3322C104.969 28.4106 104.738 29.4997 104.433 30.5397C103.814 32.6491 101.912 34.051 99.8342 34.056C96.5798 34.064 94.7967 31.0809 96.4278 28.2672C96.9297 27.4014 97.5972 26.6063 98.3011 25.8887C99.3997 24.7686 100.553 23.6931 101.763 22.6948C102.465 22.1157 102.257 21.4879 102.235 20.7161C99.8398 23.9262 96.3361 23.7511 94.7037 20.6143C93.9181 21.9245 93.0696 23.1599 91.3003 22.9622C89.6264 22.7752 88.7778 21.6791 88.3866 19.9848C87.2605 21.8728 85.86 23.1255 83.6378 22.9785C81.2693 22.8218 80.4879 21.0436 79.7779 19.0041C79.6475 19.3139 79.5777 19.4943 79.4967 19.6695C79.0093 20.7234 78.4096 21.696 77.4666 22.4117C76.2596 23.3278 74.7231 23.1965 73.6933 22.0795C72.6506 20.9486 72.3565 19.528 72.1746 18.068C72.1605 17.9548 72.1563 17.8401 72.1377 17.7278C72.1325 17.6968 72.0918 17.6717 72.0096 17.578C71.9311 17.7177 71.8589 17.8282 71.804 17.9468C71.0932 19.4789 70.1993 20.8818 68.7877 21.86C66.5881 23.3843 64.2063 23.4193 61.7658 22.5664C61.2762 22.3953 60.6847 22.123 60.687 21.4984C60.6898 20.7287 61.1261 20.0989 61.7836 19.7196C62.0038 19.5925 62.4201 19.6858 62.6946 19.8018C63.0583 19.9555 63.3645 20.2406 63.7066 20.4513C64.9604 21.2236 66.1384 20.6801 66.3885 19.2196C66.5346 18.3659 66.2721 17.5876 65.7489 16.9638C64.9554 16.0179 64.0602 15.1574 63.1349 14.1834C62.9252 14.4993 62.7977 14.679 62.6827 14.8664C61.5614 16.6941 60.4962 18.5597 59.2978 20.3354C58.7516 21.1447 57.9804 21.8195 57.2374 22.471C56.8983 22.7684 56.3958 22.933 55.9401 23.0322C55.0855 23.2182 54.2518 22.8279 53.993 21.99C53.6864 20.9974 53.4195 19.9437 53.4169 18.9158C53.4103 16.2941 53.5627 13.6721 53.6419 11.0499C53.6477 10.8563 53.5772 10.6604 53.5422 10.4656C53.3626 10.5804 53.1405 10.6597 53.0099 10.8156C51.3538 12.7917 50.3495 15.1056 49.6673 17.5567C49.2272 19.138 48.9457 20.7629 48.5585 22.3599C48.5006 22.5985 48.2954 22.9082 48.085 22.9855C46.6984 23.4952 45.6496 22.8315 45.4822 21.3732C45.4343 20.9556 45.4101 20.5325 45.4128 20.1122C45.437 16.2993 45.4687 12.4865 45.5005 8.67369C45.5064 7.97003 45.599 7.88586 46.3149 7.92558C46.505 7.9361 46.6968 7.9602 46.882 8.00326C48.3195 8.33747 48.3868 8.41378 48.3695 9.86677C48.3478 11.6867 48.3097 13.5063 48.2815 15.3262C48.2799 15.4311 48.3036 15.5364 48.4411 15.673C48.5065 15.4934 48.5768 15.3155 48.6366 15.1341C49.231 13.331 49.8381 11.5243 50.9297 9.95298C51.3674 9.32287 51.9414 8.74423 52.5644 8.29694C53.3485 7.73403 54.2566 7.74615 55.1203 8.228C55.421 8.39579 55.7078 8.5886 56.0016 8.76874C56.5606 9.11131 56.8066 9.61092 56.7795 10.2635C56.7 12.1772 56.6034 14.0908 56.5633 16.0055C56.5416 17.0372 56.6183 18.0712 56.6599 19.1038C56.6667 19.2731 56.7022 19.447 56.7571 19.6076C56.9505 20.1734 57.2613 20.2916 57.6845 19.8831C58.1073 19.4749 58.5075 19.0158 58.8081 18.5134C59.8012 16.8544 60.7534 15.1706 61.693 13.4806C61.782 13.3206 61.7497 12.9978 61.6426 12.8392C60.8587 11.6785 60.8354 10.3801 61.6191 9.1823C62.3788 8.02134 63.7698 7.41645 65.0367 7.69606C65.6998 7.8424 65.9618 8.17913 65.9849 8.86201C66.0199 9.8904 65.4734 10.683 64.9441 11.4825C64.7662 11.7512 64.5606 12.0016 64.3251 12.3174C65.0713 12.8822 65.8055 13.4236 66.5235 13.9857C67.0957 14.4337 67.6908 14.8644 68.2001 15.3778C69.1512 16.3367 69.6442 17.4862 69.3956 18.8729C69.3863 18.9251 69.4021 18.9826 69.4118 19.0367C69.4143 19.0508 69.4376 19.0612 69.5205 19.1342C69.7625 18.8627 70.0173 18.5955 70.2515 18.3112C71.4206 16.8915 72.1174 15.3185 72.0514 13.4195C71.9855 11.5249 72.0296 9.62595 72.0542 7.7293C72.0601 7.27572 71.9154 7.12928 71.466 7.13363C70.6236 7.14185 69.7804 7.06859 68.9381 7.07878C68.3918 7.0854 68.2149 6.83732 68.2634 6.34224C68.2783 6.18981 68.2884 6.03607 68.317 5.88602C68.5014 4.91858 68.6579 4.79252 69.6326 4.81312C70.3221 4.8277 71.0143 4.81157 71.7004 4.86839C72.1533 4.90591 72.2612 4.72342 72.2691 4.32243C72.2904 3.2309 72.3216 2.13907 72.3788 1.04892C72.4253 0.161656 72.6692 -0.0472718 73.5444 0.120445C74.1798 0.242234 74.8102 0.43379 75.4091 0.677258C75.5995 0.754683 75.794 1.09922 75.7939 1.32146C75.7933 2.3742 75.7462 3.42837 75.6728 4.479C75.6437 4.89617 75.7913 5.01773 76.178 5.03361C77.3263 5.08084 78.4734 5.15488 79.6212 5.21457C80.0386 5.23629 80.3834 5.30857 80.3663 5.85586C80.3433 6.59121 80.0163 7.14558 79.5303 7.15952C78.4004 7.19195 77.2699 7.22187 76.1397 7.2218C75.7159 7.2218 75.5894 7.37439 75.5773 7.79312C75.4954 10.6267 75.3504 13.4589 75.309 16.2928C75.294 17.3156 75.4874 18.3445 75.6297 19.3645C75.673 19.6753 75.8313 19.9842 75.9929 20.2614C76.3395 20.856 76.7732 20.9578 77.3318 20.5474C77.6502 20.3135 77.9429 20.0168 78.1731 19.6954C79.0492 18.4719 79.5936 17.1296 79.616 15.5926C79.645 13.597 79.9706 11.666 81.0036 9.90996C82.084 8.07337 83.9022 7.17774 85.7316 7.72827C86.3364 7.91026 86.8463 8.41884 87.3863 8.79704C87.5152 8.88729 87.5908 9.05352 87.7387 9.24753ZM127.364 14.683C127.323 14.6745 127.281 14.6662 127.239 14.6578C127.214 14.1222 127.253 13.5734 127.147 13.0542C127 12.3303 126.85 11.5734 126.512 10.9291C125.869 9.69973 124.451 9.58489 123.57 10.6601C123.215 11.0935 122.944 11.63 122.76 12.1628C122.14 13.9516 122.047 15.8142 122.293 17.6683C122.413 18.5767 122.691 19.5082 123.107 20.3219C123.607 21.3 124.594 21.427 125.345 20.6197C125.902 20.0222 126.4 19.2682 126.633 18.496C127.004 17.2634 127.133 15.9577 127.364 14.683ZM87.7884 14.3443C87.7754 14.0846 87.8134 13.5739 87.7108 13.0932C87.5527 12.3522 87.4078 11.5741 87.0607 10.9152C86.4233 9.70542 85.0566 9.60342 84.1517 10.6288C83.9034 10.9102 83.7014 11.2516 83.5506 11.5972C82.7138 13.5149 82.6127 15.5435 82.8444 17.5746C82.9502 18.5024 83.2318 19.4572 83.6515 20.2901C84.1689 21.3171 85.1698 21.4107 85.9757 20.5789C86.4173 20.123 86.7759 19.548 87.0403 18.9668C87.6707 17.5809 87.7666 16.0835 87.7884 14.3443ZM97.0663 16.5126C97.0789 16.7679 97.0765 17.21 97.127 17.646C97.2445 18.6599 97.4413 19.6546 98.0937 20.4865C98.7129 21.2761 99.5821 21.3965 100.264 20.6696C100.734 20.1689 101.142 19.5454 101.38 18.9035C102.102 16.9509 102.221 14.9073 101.988 12.8523C101.916 12.2163 101.76 11.5596 101.491 10.9825C100.937 9.79069 99.6044 9.58799 98.7059 10.5488C98.3372 10.9431 98.0521 11.4484 97.8399 11.9501C97.2502 13.344 97.101 14.8285 97.0663 16.5126ZM102.425 24.4434C102.267 24.5086 102.201 24.5156 102.169 24.5523C101.143 25.7335 100.037 26.8574 99.1298 28.1244C98.6051 28.8575 98.3119 29.7982 98.083 30.6888C97.8694 31.5192 98.3394 32.2453 99.0566 32.5668C99.7332 32.8703 100.552 32.71 101.084 32.0804C101.386 31.7233 101.639 31.2944 101.801 30.856C102.557 28.8023 102.431 26.6597 102.425 24.4434Z" fill="#303030"/>
<path d="M42.3797 10.8105C42.3797 13.8359 42.4351 16.8628 42.3595 19.8864C42.3121 21.7794 41.813 23.576 40.3439 24.9213C39.9611 25.2719 39.4738 25.5453 38.9883 25.7374C38.4054 25.9682 38.2067 25.7452 38.3525 25.1224C38.57 24.1933 38.8204 23.2712 39.0121 22.3369C39.0997 21.91 39.103 21.4614 39.1064 21.0224C39.1539 14.9699 39.1946 8.9173 39.2371 2.86478C39.2376 2.78817 39.2543 2.70707 39.2349 2.63578C39.1831 2.44512 39.1157 2.2587 39.0546 2.07061C38.8942 2.15863 38.7076 2.21843 38.5777 2.33925C37.5716 3.27548 36.9447 4.45504 36.4843 5.72645C35.9022 7.33385 35.6001 8.99494 35.9751 10.6847C36.1409 11.4317 36.5656 12.1193 36.8477 12.8436C36.9369 13.0726 36.9451 13.3332 36.9904 13.5794C36.7422 13.6111 36.4734 13.7211 36.2489 13.6621C34.2423 13.1354 32.7376 10.7986 33.0384 8.60705C33.5356 4.98374 35.5032 2.31983 38.5751 0.443009C39.7248 -0.259428 41.0933 -0.111045 42.1013 0.778224C42.3303 0.980265 42.4635 1.40662 42.4664 1.73131C42.4935 4.75749 42.4824 7.78396 42.4824 10.8104C42.4482 10.8103 42.414 10.8104 42.3797 10.8105Z" fill="#303030"/>
<defs>
<radialGradient id="paint0_radial" cx="0" cy="0" r="1" gradientUnits="userSpaceOnUse" gradientTransform="translate(3.88194 27.0903) scale(33.2215)">
<stop stop-color="#FFB140"/>
<stop offset="0.2559" stop-color="#FF5445"/>
<stop offset="0.599" stop-color="#FC2B82"/>
<stop offset="1" stop-color="#8E40B7"/>
</radialGradient>
</defs>
</svg>
