<svg width="158" height="27" viewBox="0 0 158 27" fill="none" xmlns="http://www.w3.org/2000/svg">
<path d="M44.7412 7.41148V9.05885C44.7412 9.16635 44.6667 9.23791 44.555 9.23791H37.1982V12.6044H43.2699C43.3816 12.6044 43.4562 12.676 43.4562 12.7834V14.4309C43.4562 14.5383 43.3816 14.6099 43.2699 14.6099H37.1982V19.5879C37.1982 19.6954 37.1238 19.767 37.012 19.767H35.1681C35.0564 19.767 34.9819 19.6954 34.9819 19.5879V7.41148C34.9819 7.30399 35.0564 7.23242 35.1681 7.23242H44.555C44.6667 7.23242 44.7412 7.30399 44.7412 7.41148V7.41148Z" fill="#272727"/>
<path d="M55.851 14.4666C55.1714 12.658 54.417 10.8495 53.644 9.20202H53.2064C52.4335 10.8495 51.6698 12.658 50.9899 14.4666H55.851ZM59.753 19.767H57.7228C57.6112 19.767 57.5366 19.7131 57.5087 19.6057C57.2386 18.5761 56.9128 17.4927 56.5402 16.4004H50.3102C49.9378 17.4927 49.6118 18.5761 49.3511 19.6057C49.3232 19.7131 49.2486 19.767 49.1368 19.767H47.1813C47.051 19.767 46.9763 19.6954 47.0136 19.5699C48.187 15.5769 49.975 11.1718 51.7816 7.46512C51.8654 7.29508 51.9678 7.23242 52.1448 7.23242H54.7894C54.9664 7.23242 55.0689 7.29508 55.1527 7.46512C56.9778 11.1628 58.7379 15.5769 59.9205 19.5699C59.9579 19.6954 59.8833 19.767 59.753 19.767Z" fill="#272727"/>
<path d="M63.0864 13.6076C63.0864 9.72166 65.7496 7 69.5492 7H69.8284C72.2125 7 74.0563 8.16382 75.0342 9.84708C75.0992 9.95458 75.0806 10.044 74.9689 10.0979L73.33 10.8767C73.2182 10.9304 73.0783 10.9304 73.004 10.7962C72.3149 9.65017 71.2813 9.04131 69.754 9.04131H69.4746C67.0815 9.04131 65.4331 10.8677 65.4331 13.518C65.4331 16.1771 67.0534 17.9588 69.4746 17.9588H69.754C71.3186 17.9588 72.2311 17.4484 72.9296 16.6695C73.0227 16.571 73.1251 16.5531 73.2369 16.6069L74.9224 17.3947C74.9875 17.4305 75.0154 17.4752 75.0154 17.52C75.0154 17.5648 74.9968 17.6006 74.9597 17.6543C73.926 19.1048 72.0635 20.0001 69.7913 20.0001H69.5119C65.6474 20.0001 63.0864 17.4484 63.0864 13.6076V13.6076Z" fill="#272727"/>
<path d="M89.8682 17.9405V19.5879C89.8682 19.6954 89.7937 19.767 89.6819 19.767H79.9039C79.7922 19.767 79.7178 19.6954 79.7178 19.5879V7.41148C79.7178 7.30399 79.7922 7.23242 79.9039 7.23242H89.5143C89.6262 7.23242 89.7005 7.30399 89.7005 7.41148V9.05885C89.7005 9.16635 89.6262 9.23791 89.5143 9.23791H81.9341V12.4968H88.0988C88.2104 12.4968 88.2851 12.5686 88.2851 12.676V14.3055C88.2851 14.4129 88.2104 14.4846 88.0988 14.4846H81.9341V17.7613H89.6819C89.7937 17.7613 89.8682 17.833 89.8682 17.9405V17.9405Z" fill="#272727"/>
<path d="M104.432 16.1407C104.432 14.9769 103.631 14.4486 101.871 14.4486H97.4852V17.8151H101.871C103.659 17.8151 104.432 17.3137 104.432 16.1407V16.1407ZM101.247 9.1842H97.4852V12.5506H101.247C102.933 12.5506 103.706 12.0223 103.706 10.8673C103.706 9.71236 102.933 9.1842 101.247 9.1842V9.1842ZM106.705 16.3289C106.705 18.5224 104.954 19.767 101.862 19.767H95.455C95.3434 19.767 95.2689 19.6954 95.2689 19.5879V7.41148C95.2689 7.30399 95.3434 7.23242 95.455 7.23242H101.294C104.302 7.23242 105.941 8.37839 105.941 10.4734C105.941 11.8522 105.215 12.7566 103.743 13.1772C105.81 13.598 106.705 14.7889 106.705 16.3289Z" fill="#272727"/>
<path d="M117.59 17.9588C120.262 17.9588 121.949 16.195 121.949 13.5001C121.949 10.805 120.262 9.04131 117.59 9.04131H117.311C114.638 9.04131 112.953 10.805 112.953 13.5001C112.953 16.195 114.638 17.9588 117.311 17.9588H117.59ZM110.606 13.5001C110.606 9.72166 113.214 7 117.311 7H117.59C121.687 7 124.295 9.72166 124.295 13.5001C124.295 17.2783 121.687 20.0001 117.59 20.0001H117.311C113.214 20.0001 110.606 17.2783 110.606 13.5001V13.5001Z" fill="#272727"/>
<path d="M135.059 17.9588C137.732 17.9588 139.417 16.195 139.417 13.5001C139.417 10.805 137.732 9.04131 135.059 9.04131H134.781C132.107 9.04131 130.422 10.805 130.422 13.5001C130.422 16.195 132.107 17.9588 134.781 17.9588H135.059ZM128.075 13.5001C128.075 9.72166 130.683 7 134.781 7H135.059C139.158 7 141.765 9.72166 141.765 13.5001C141.765 17.2783 139.158 20.0001 135.059 20.0001H134.781C130.683 20.0001 128.075 17.2783 128.075 13.5001V13.5001Z" fill="#272727"/>
<path d="M157.827 19.767H155.425C155.267 19.767 155.201 19.7311 155.099 19.6147C153.414 17.7077 151.422 15.8097 149.726 14.4129H148.646V19.5879C148.646 19.6954 148.571 19.767 148.459 19.767H146.616C146.504 19.767 146.43 19.6954 146.43 19.5879V7.41148C146.43 7.30399 146.504 7.23242 146.616 7.23242H148.459C148.571 7.23242 148.646 7.30399 148.646 7.41148V12.3537H149.745C151.561 10.7778 153.237 9.07681 154.606 7.36656C154.698 7.25027 154.773 7.23242 154.885 7.23242H157.158C157.269 7.23242 157.325 7.28617 157.325 7.35774C157.325 7.39355 157.306 7.43825 157.26 7.49199C155.258 9.86455 153.274 11.8075 151.44 13.3116C153.749 15.1917 155.938 17.2868 157.93 19.5431C158.033 19.6594 157.977 19.767 157.827 19.767V19.767Z" fill="#272727"/>
<path d="M22.7498 0H3.24985C1.45771 0 0 1.46185 0 3.25879V22.8114C0 24.6086 1.45777 26.0704 3.24985 26.0704H22.7498C24.5422 26.0704 26 24.6086 26 22.8114V3.25884C26.0001 1.46186 24.5423 0 22.7498 0Z" fill="#1B80E4"/>
<path d="M21.9377 13.0357H17.8751V9.7769C17.8751 8.87738 18.6033 8.96232 19.5001 8.96232H21.1253V4.88867H17.8751C15.1826 4.88867 13.0003 7.07685 13.0003 9.7769V13.0357H9.75037V17.1093H13.0003V26.071H17.8751V17.1093H20.3126L21.9377 13.0357Z" fill="#FCFCFC"/>
</svg>
