<svg width="109" height="33" viewBox="0 0 109 33" fill="none" xmlns="http://www.w3.org/2000/svg">
<g clip-path="url(#clip0_3210_1626)">
<path d="M21.4831 11.9127C23.515 13.435 26.0042 14.3308 28.6926 14.3308V8.90848C28.1838 8.90859 27.6763 8.85299 27.1786 8.74245V13.0106C24.4903 13.0106 22.0015 12.1148 19.969 10.5926V21.6579C19.969 27.1933 15.6877 31.6803 10.4067 31.6803C8.43623 31.6803 6.60477 31.056 5.08337 29.9852C6.8198 31.846 9.24137 33.0004 11.9204 33.0004C17.2017 33.0004 21.4833 28.5134 21.4833 22.9778V11.9127H21.4831V11.9127ZM23.3508 6.44225C22.3124 5.25319 21.6306 3.71655 21.4831 2.01773V1.32031H20.0483C20.4094 3.47951 21.6413 5.3242 23.3508 6.44225ZM8.4236 25.7374C7.84342 24.9401 7.5299 23.9648 7.5313 22.9619C7.5313 20.4302 9.48956 18.3775 11.9055 18.3775C12.3558 18.3774 12.8033 18.4496 13.2324 18.5923V13.0488C12.731 12.9768 12.2249 12.9462 11.719 12.9574V17.2722C11.2896 17.1295 10.8418 17.057 10.3915 17.0575C7.97551 17.0575 6.01736 19.11 6.01736 21.642C6.01736 23.4324 6.99616 24.9824 8.4236 25.7374Z" fill="#FF004F"/>
<path d="M19.9689 10.5925C22.0014 12.1147 24.4902 13.0105 27.1785 13.0105V8.74234C25.6779 8.40733 24.3495 7.58544 23.3507 6.44225C21.6411 5.32409 20.4094 3.4794 20.0482 1.32031H16.2794V22.9775C16.2709 25.5023 14.316 27.5467 11.9052 27.5467C10.4846 27.5467 9.2225 26.8369 8.42319 25.7374C6.99586 24.9824 6.01706 23.4323 6.01706 21.6421C6.01706 19.1103 7.97521 17.0576 10.3912 17.0576C10.8541 17.0576 11.3002 17.1331 11.7187 17.2723V12.9576C6.53049 13.0699 2.35791 17.5131 2.35791 22.9776C2.35791 25.7055 3.39698 28.1784 5.0834 29.9853C6.60479 31.056 8.43626 31.6805 10.4067 31.6805C15.6878 31.6805 19.969 27.1932 19.969 21.6579V10.5925H19.9689Z" fill="black"/>
<path d="M27.1785 8.74201V7.58794C25.8254 7.5901 24.4988 7.19291 23.3508 6.44181C24.367 7.60799 25.7053 8.4121 27.1785 8.74201ZM20.0482 1.31998C20.0138 1.11363 19.9873 0.905923 19.969 0.697422V0H14.7653V21.6574C14.757 24.1819 12.8022 26.2262 10.3912 26.2262C9.68336 26.2262 9.01506 26.0501 8.42322 25.7372C9.22253 26.8366 10.4846 27.5462 11.9052 27.5462C14.3158 27.5462 16.271 25.5021 16.2795 22.9773V1.31998H20.0482ZM11.7189 12.9572V11.7286C11.2841 11.6664 10.8458 11.6351 10.4069 11.6353C5.12533 11.6352 0.843994 16.1225 0.843994 21.6574C0.843994 25.1276 2.52663 28.1858 5.08353 29.9847C3.39711 28.178 2.35805 25.7049 2.35805 22.9772C2.35805 17.5128 6.53052 13.0696 11.7189 12.9572Z" fill="#00F2EA"/>
<path d="M87.4736 27.1425C91.2524 27.1425 94.3158 23.956 94.3158 20.0256C94.3158 16.0953 91.2524 12.9082 87.4736 12.9082H86.4427C90.2217 12.9082 93.2851 16.0952 93.2851 20.0256C93.2851 23.956 90.2217 27.1425 86.4427 27.1425H87.4736Z" fill="#FF004F"/>
<path d="M86.3494 12.9082H85.3186C81.5399 12.9082 78.476 16.0952 78.476 20.0256C78.476 23.956 81.5399 27.1425 85.3186 27.1425H86.3494C82.5701 27.1425 79.5067 23.956 79.5067 20.0256C79.5066 16.0953 82.5701 12.9082 86.3494 12.9082Z" fill="#00F2EA"/>
<path d="M34.3307 9.69141V13.2989H38.3603V27.0451H42.3915V13.3963H45.6717L46.7964 9.69152H34.3307V9.69141ZM67.3227 9.69141V13.2989H71.3523V27.0451H75.3835V13.3963H78.6636L79.7882 9.69152H67.3227V9.69141ZM47.5469 11.7386C47.5469 10.6082 48.4266 9.69141 49.5135 9.69141C50.6014 9.69141 51.4822 10.6082 51.4822 11.7386C51.4822 12.8691 50.602 13.7859 49.5135 13.7859C48.4266 13.7853 47.5469 12.8691 47.5469 11.7386ZM47.5469 15.2487H51.4822V27.0451H47.5469V15.2487ZM53.1696 9.69141V27.0449H57.1064V22.5607L58.3249 21.3898L62.1673 27.1423H66.3847L60.8543 18.7581L65.822 13.6879H61.0421L57.1064 17.7824V9.69141H53.1696ZM95.6273 9.69141V27.0449H99.5646V22.5607L100.783 21.3898L104.626 27.1423H108.844L103.314 18.7581L108.281 13.6879H103.501L99.5646 17.7824V9.69141H95.6273Z" fill="black"/>
<path d="M86.4424 27.1425C90.2211 27.1425 93.285 23.956 93.285 20.0256C93.285 16.0953 90.2211 12.9082 86.4424 12.9082H86.3489C82.57 12.9082 79.5066 16.0952 79.5066 20.0256C79.5066 23.956 82.57 27.1425 86.3489 27.1425H86.4424ZM83.0682 20.0256C83.0682 18.1137 84.5586 16.5651 86.3965 16.5651C88.233 16.5651 89.7233 18.1137 89.7233 20.0256C89.7233 21.9374 88.233 23.487 86.3965 23.487C84.5586 23.4866 83.0682 21.9374 83.0682 20.0256Z" fill="black"/>
</g>
<defs>
<clipPath id="clip0_3210_1626">
<rect width="108" height="33" fill="white" transform="translate(0.843994)"/>
</clipPath>
</defs>
</svg>
