<svg width="153" height="22" viewBox="0 0 153 22" fill="none" xmlns="http://www.w3.org/2000/svg">
<path fill-rule="evenodd" clip-rule="evenodd" d="M36.151 1.4897C36.4082 0.630987 36.151 0 34.9269 0H30.8791C29.8498 0 29.3753 0.54508 29.118 1.14614C29.118 1.14614 27.0595 6.16953 24.1435 9.43256C23.2001 10.3771 22.7712 10.6776 22.2566 10.6776C21.9993 10.6776 21.6133 10.3771 21.6133 9.51846V1.4897C21.6133 0.459245 21.3281 0 20.4704 0H14.1095C13.4664 0 13.0795 0.478256 13.0795 0.931517C13.0795 1.90837 14.5375 2.13364 14.6878 4.88151V10.8494C14.6878 12.1579 14.4518 12.3951 13.9372 12.3951C12.5649 12.3951 9.22698 7.34929 7.24727 1.57553C6.85929 0.453313 6.47016 0 5.43565 0H1.38784C0.231318 0 0 0.54508 0 1.14614C0 2.21954 1.3723 7.54347 6.38965 14.5847C9.73453 19.3934 14.4472 22 18.7356 22C21.3086 22 21.6269 21.4211 21.6269 20.4238V16.7895C21.6269 15.6316 21.8707 15.4005 22.6854 15.4005C23.2858 15.4005 24.315 15.701 26.7165 18.0195C29.4611 20.7673 29.9135 22 31.4573 22H35.5051C36.6616 22 37.2399 21.4211 36.9063 20.2785C36.5413 19.1398 35.2309 17.4877 33.4922 15.5293C32.5487 14.413 31.1335 13.2109 30.7047 12.6097C30.1043 11.8369 30.2759 11.4934 30.7047 10.8065C30.7047 10.8065 35.6364 3.85106 36.151 1.4897Z" fill="#3B5D83"/>
<path d="M54.3067 10.065C55.4847 9.495 56.1877 8.488 56.1877 7.139C56.1877 4.935 54.3637 3.7 51.2857 3.7H45.0917V17H51.6467C55.0097 17 56.8147 15.575 56.8147 13.257C56.8147 11.642 55.9217 10.54 54.3067 10.065ZM48.1507 5.98H51.0197C52.3497 5.98 53.0527 6.55 53.0527 7.595C53.0527 8.659 52.3497 9.21 51.0197 9.21H48.1507V5.98ZM51.5327 14.72H48.1507V11.357H51.5327C52.9577 11.357 53.6987 11.889 53.6987 13.01C53.6987 14.169 52.9577 14.72 51.5327 14.72ZM67.8559 17H71.3519L66.8679 10.122L71.2189 3.7H67.9699L64.4739 9.077H62.2699V3.7H59.2109V17H62.2699V11.642H64.3979L67.8559 17ZM77.2054 17.152C80.4544 17.152 82.8104 14.967 82.8104 11.889C82.8104 8.811 80.4544 6.626 77.2054 6.626C73.9564 6.626 71.5814 8.811 71.5814 11.889C71.5814 14.967 73.9564 17.152 77.2054 17.152ZM77.2054 14.72C75.7234 14.72 74.5834 13.656 74.5834 11.889C74.5834 10.122 75.7234 9.058 77.2054 9.058C78.6874 9.058 79.8084 10.122 79.8084 11.889C79.8084 13.656 78.6874 14.72 77.2054 14.72ZM84.8491 17H87.7941V13.181H92.2401V17H95.2041V6.778H92.2401V10.768H87.7941V6.778H84.8491V17ZM106.629 6.778H96.7685V9.21H100.226V17H103.171V9.21H106.629V6.778ZM112.18 6.626C110.546 6.626 108.893 7.063 107.772 7.861L108.836 9.932C109.577 9.343 110.698 8.982 111.781 8.982C113.377 8.982 114.137 9.723 114.137 10.996H111.781C108.665 10.996 107.392 12.25 107.392 14.055C107.392 15.822 108.817 17.152 111.211 17.152C112.712 17.152 113.776 16.658 114.327 15.727V17H117.101V11.167C117.101 8.07 115.296 6.626 112.18 6.626ZM111.952 15.157C110.907 15.157 110.28 14.663 110.28 13.922C110.28 13.238 110.717 12.725 112.104 12.725H114.137V13.77C113.795 14.701 112.94 15.157 111.952 15.157ZM126.915 17H130.411L126.592 11.68L130.164 6.778H127.01L124.236 10.749H122.64V6.778H119.676V17H122.64V13.124H124.179L126.915 17ZM140.362 6.778H130.501V9.21H133.959V17H136.904V9.21H140.362V6.778ZM151.452 11.927C151.452 8.64 149.134 6.626 146.132 6.626C143.016 6.626 140.679 8.83 140.679 11.889C140.679 14.929 142.978 17.152 146.512 17.152C148.355 17.152 149.78 16.582 150.73 15.499L149.153 13.789C148.45 14.454 147.671 14.777 146.588 14.777C145.03 14.777 143.947 13.998 143.662 12.725H151.395C151.414 12.478 151.452 12.155 151.452 11.927ZM146.151 8.868C147.481 8.868 148.45 9.704 148.659 10.996H143.624C143.833 9.685 144.802 8.868 146.151 8.868Z" fill="#272727"/>
</svg>
