<svg width="162" height="20" viewBox="0 0 162 20" fill="none" xmlns="http://www.w3.org/2000/svg">
<path fill-rule="evenodd" clip-rule="evenodd" d="M126.013 4.68637C126.82 2.07687 129.329 0.402937 132.979 0.0400501C134.973 -0.158365 138.223 0.402062 139.96 1.24332C140.756 1.62912 141.17 1.79462 141.294 2.08126C141.436 2.40952 141.197 2.89665 140.715 4.05543C140.278 5.10647 139.842 6.14509 139.746 6.36345L139.571 6.76046L138.298 6.13022C135.387 4.68952 131.733 4.70299 131.733 6.15436C131.733 6.70674 132.153 6.89116 135.032 7.60416C137.75 8.27692 138.548 8.56072 139.615 9.23418C141.37 10.3405 142.192 12.0302 142.017 14.1718C141.809 16.7117 140.005 18.6509 136.993 19.5721C135.263 20.1012 131.757 20.0924 129.722 19.5541C128.175 19.1448 126.378 18.3464 125.637 17.7389L125.15 17.3395L125.964 15.5898C126.412 14.6274 126.889 13.579 127.026 13.2601L127.273 12.6802L128.084 13.2282C130.384 14.7833 133.86 15.4624 135.471 14.6708C136.931 13.9538 136.232 13.4116 132.666 12.4926C129.603 11.7035 128.079 11.0101 127.09 9.95628C125.73 8.50648 125.373 6.75783 126.013 4.68637ZM0.0254897 6.87681C-0.0161723 3.52807 -0.00566777 0.673964 0.0489913 0.534164C0.130179 0.326125 0.681042 0.279933 3.08319 0.279933H6.01804L6.07092 6.5351C6.12077 12.4237 6.14463 12.8251 6.47989 13.3843C7.00387 14.2584 7.62345 14.6332 8.72999 14.7455C10.2076 14.8953 11.2619 14.3888 11.7836 13.2782C12.1619 12.473 12.1794 12.2025 12.234 6.36013L12.291 0.279933H15.2163H18.1417L18.1354 6.09767C18.1287 12.5105 17.9893 13.8539 17.1503 15.6018C16.5067 16.9425 14.9786 18.4446 13.6153 19.0766C12.1949 19.7352 10.0331 20.1036 8.34933 19.9743C4.07489 19.6463 1.48045 17.6889 0.395996 13.9743C0.155105 13.1493 0.0876265 11.8542 0.0254897 6.87681ZM23.661 19.7016V9.99074V0.279933L26.02 0.289031L28.3791 0.298305L32.1625 4.85119L35.9459 9.40407V4.84191V0.279933H38.8836H41.8213V9.99074V19.7016L39.4623 19.6967L37.1032 19.6916L33.3643 15.204L29.6254 10.7163L29.5779 15.209L29.5303 19.7016H26.5957H23.661ZM47.5187 19.7016V9.99074V0.279933H50.4564H53.3941V9.99074V19.7016H50.4564H47.5187ZM63.8057 10.0782C61.5801 5.02598 59.7199 0.754451 59.6717 0.58613C59.5905 0.302679 59.8211 0.279933 62.7709 0.279933H65.9578L68.3468 5.79147C69.6608 8.82282 70.786 11.303 70.8474 11.303C70.9087 11.303 72.0337 8.85239 73.3473 5.85726C74.6609 2.86196 75.8194 0.37984 75.922 0.341172C76.0244 0.302504 77.3965 0.292706 78.9713 0.319126L81.8346 0.367418L77.5954 9.99074L73.3562 19.6141L70.6957 19.6622C68.6685 19.6989 68.0133 19.6573 67.9435 19.4872C67.8931 19.3646 66.031 15.1305 63.8057 10.0782ZM84.3735 19.7016V9.99074V0.279933H92.0293H99.6851V2.81699V5.35405H94.967H90.2489V6.40387V7.45369H94.4329H98.6169V9.90326V12.3528H94.4329H90.2489V13.4901V14.6274H95.145H100.041V17.1645V19.7016H92.2073H84.3735ZM104.67 19.7016V9.97552V0.249488L110.145 0.320176C115.19 0.385265 115.713 0.420959 116.804 0.774397C118.292 1.25661 119.978 2.3528 120.686 3.29833C122.813 6.14124 122.42 10.4437 119.826 12.7161L118.858 13.5641L119.765 14.8395C120.264 15.5408 121.242 16.9218 121.938 17.9081L123.204 19.7016L119.857 19.6963L116.51 19.6911L114.819 17.2476L113.127 14.8042L111.926 14.8033L110.724 14.8024V17.252V19.7016H107.697H104.67ZM146.332 19.7016V9.99074V0.279933H153.988H161.644V2.81699V5.35405H156.926H152.208V6.40387V7.45369H156.392H160.576V9.90326V12.3528H156.392H152.208V13.4901V14.6274H157.104H162V17.1645V19.7016H154.166H146.332ZM139.405 1.96349C138.849 1.71818 137.876 1.39764 137.244 1.25119C135.852 0.92872 132.345 0.916647 131.199 1.23019C129.268 1.75808 127.919 2.75103 127.142 4.21675C126.763 4.9322 126.678 5.33078 126.678 6.40387C126.677 9.16541 128.211 10.4975 132.623 11.5679C135.503 12.2666 136.132 12.5042 136.624 13.0784C137.193 13.7433 137.194 14.2854 136.628 14.9468C136.027 15.6487 134.789 15.9318 132.907 15.7976C131.369 15.6879 129.863 15.2514 128.568 14.5405C128.13 14.2995 127.739 14.1025 127.7 14.1025C127.588 14.1025 126.391 16.7458 126.391 16.9941C126.391 17.6171 129.439 18.7226 131.963 19.0152C134.812 19.3455 137.087 18.9217 138.879 17.7267C140.337 16.7547 141.004 15.6258 141.128 13.9197C141.206 12.8587 141.157 12.5953 140.728 11.7331C139.896 10.0618 138.762 9.43277 134.778 8.43299C131.284 7.55587 130.771 7.26192 130.771 6.13372C130.771 4.10127 134.69 3.49587 137.972 5.02143C138.583 5.30541 139.104 5.51607 139.129 5.48965C139.155 5.46323 139.455 4.75933 139.796 3.9256L140.417 2.40966L139.405 1.96349ZM6.37929 14.6838C5.22415 13.6583 5.14457 13.1451 5.14457 6.72196V1.15478H3.08871H1.03285L1.08573 7.40994C1.13736 13.5143 1.14876 13.6898 1.55826 14.6876C1.789 15.25 2.31334 16.1161 2.72319 16.6123C5.45472 19.9183 12.5737 19.9614 15.39 16.6888C16.1535 15.8015 16.8672 14.1401 17.065 12.7903C17.1637 12.1166 17.2459 9.22315 17.2479 6.36013L17.2515 1.15478H15.217H13.1823L13.1109 6.88503C13.0568 11.2299 12.9786 12.7841 12.7878 13.3138C11.9164 15.7324 8.40559 16.483 6.37929 14.6838ZM36.8361 11.8519L32.3719 6.50325L27.9077 1.15478H26.2294H24.5512V9.99074V18.8267H26.596H28.641L28.688 13.5528L28.7352 8.27884L33.148 13.5528L37.5606 18.8267H39.2459H40.9311V9.99074V1.15478H38.8836H36.8361V6.50325V11.8519ZM52.5039 18.8267V9.99074V1.15478H50.4564H48.4089V9.99074V18.8267H50.4564H52.5039ZM70.8285 13.5771C70.7719 13.5774 69.524 10.8023 68.0553 7.40994L65.3849 1.24227L63.1951 1.19292C61.0431 1.14446 61.0072 1.15006 61.1037 1.51312C61.1578 1.71643 62.8704 5.69314 64.9093 10.3505L68.6167 18.818L70.6752 18.8223L72.7338 18.8267L76.5284 10.2095C78.6156 5.46988 80.3618 1.49387 80.4088 1.37349C80.4745 1.2064 80.0125 1.15478 78.4488 1.15478H76.4027L75.5262 3.12319C75.0442 4.2059 73.8131 7.00069 72.7906 9.33408C71.7679 11.6675 70.885 13.5769 70.8285 13.5771ZM98.7949 4.4792V2.81699V1.15478H92.0293H85.2637V9.99074V18.8267H92.2073H99.151V17.1645V15.5023H94.2548H89.3587V13.4901V11.478H93.5427H97.7267V9.90326V8.32853H93.5427H89.3587V6.40387V4.4792H94.0768H98.7949ZM121.113 7.72664C121.14 4.66677 119.623 2.61945 116.606 1.64487C115.557 1.30578 114.955 1.26151 110.501 1.19537L105.561 1.12206V9.97447V18.8267H107.697H109.834V16.3712V13.9157L111.735 13.9654L113.636 14.015L115.333 16.4209L117.029 18.8267H119.238H121.447L121.133 18.3455C120.96 18.081 120.11 16.8676 119.243 15.6494C118.376 14.4311 117.667 13.3654 117.667 13.2812C117.667 13.1971 117.922 12.9806 118.232 12.8002C120.123 11.7025 121.093 9.99459 121.113 7.72664ZM160.754 4.4792V2.81699V1.15478H153.988H147.222V9.99074V18.8267H154.166H161.11V17.1645V15.5023H156.214H151.317V13.4901V11.478H155.501H159.685V9.90326V8.32853H155.501H151.317V6.40387V4.4792H156.036H160.754ZM109.834 10.6031V7.54117V4.4792L111.837 4.4834C114.757 4.48953 115.591 4.75111 116.499 5.94632C116.786 6.32443 116.866 6.69047 116.866 7.62866C116.866 9.05868 116.542 9.61054 115.349 10.2095C114.652 10.5594 114.302 10.6031 112.199 10.6031H109.834ZM116.062 7.50023C116.066 6.54664 115.388 5.75403 114.374 5.52395C113.982 5.43506 113.001 5.36053 112.193 5.35825L110.724 5.35405V7.54117V9.72829L112.549 9.72794C115.244 9.72759 116.056 9.21231 116.062 7.50023Z" fill="white"/>
<path d="M56.6548 14.9686C55.9271 15.4047 55.6789 15.8739 55.6789 16.8142C55.6789 18.0939 56.5937 19.0024 57.8808 19.001C58.5691 19.0003 59.5157 18.4804 59.8086 17.9426C60.0833 17.4383 60.0895 16.2022 59.8198 15.707C59.5113 15.1403 58.5744 14.6287 57.8451 14.6287C57.5024 14.6287 56.9667 14.7818 56.6548 14.9686Z" fill="white"/>
</svg>
