<svg width="119" height="16" viewBox="0 0 119 16" fill="none" xmlns="http://www.w3.org/2000/svg">
<path fill-rule="evenodd" clip-rule="evenodd" d="M19.5411 3.81256C19.6801 3.34417 19.5411 3 18.8794 3H16.6914C16.135 3 15.8786 3.29732 15.7395 3.62517C15.7395 3.62517 14.6268 6.3652 13.0505 8.14503C12.5406 8.66024 12.3087 8.82416 12.0306 8.82416C11.8915 8.82416 11.6829 8.66024 11.6829 8.19189V3.81256C11.6829 3.2505 11.5287 3 11.0651 3H7.62678C7.27911 3 7.07003 3.26087 7.07003 3.5081C7.07003 4.04093 7.85812 4.1638 7.93935 5.66264V8.91788C7.93935 9.63158 7.81177 9.76097 7.5336 9.76097C6.79186 9.76097 4.98756 7.0087 3.91744 3.85938C3.70773 3.24726 3.49738 3 2.93819 3H0.750182C0.125037 3 0 3.29732 0 3.62517C0 4.21066 0.741784 7.11462 3.45387 10.9553C5.26191 13.5782 7.80932 15 10.1274 15C11.5182 15 11.6902 14.6842 11.6902 14.1403V12.1579C11.6902 11.5263 11.822 11.4003 12.2624 11.4003C12.5869 11.4003 13.1433 11.5642 14.4414 12.8288C15.9249 14.3276 16.1695 15 17.004 15H19.192C19.8171 15 20.1297 14.6842 19.9494 14.061C19.752 13.4399 19.0437 12.5388 18.1039 11.4705C17.5939 10.8616 16.8289 10.2059 16.5971 9.878C16.2726 9.45651 16.3653 9.26912 16.5971 8.89445C16.5971 8.89445 19.2629 5.10058 19.5411 3.81256V3.81256Z" fill="#3B5D83"/>
<path d="M35.5905 8.16C36.2731 8.36267 36.7958 8.69333 37.1585 9.152C37.5211 9.61067 37.7025 10.176 37.7025 10.848C37.7025 11.84 37.3238 12.6133 36.5665 13.168C35.8198 13.7227 34.7478 14 33.3505 14H27.8305V2.8H33.0465C34.3478 2.8 35.3611 3.05067 36.0865 3.552C36.8118 4.05333 37.1745 4.768 37.1745 5.696C37.1745 6.25067 37.0358 6.74133 36.7585 7.168C36.4811 7.584 36.0918 7.91467 35.5905 8.16ZM30.4065 7.44H32.8225C33.3878 7.44 33.8145 7.328 34.1025 7.104C34.3905 6.86933 34.5345 6.528 34.5345 6.08C34.5345 5.64267 34.3851 5.30667 34.0865 5.072C33.7985 4.83733 33.3771 4.72 32.8225 4.72H30.4065V7.44ZM33.2545 12.08C34.4705 12.08 35.0785 11.6 35.0785 10.64C35.0785 9.712 34.4705 9.248 33.2545 9.248H30.4065V12.08H33.2545ZM44.0884 9.488H42.2964V14H39.7204V2.8H42.2964V7.328H44.1524L47.0964 2.8H49.8324L46.1684 8.208L49.9444 14H47.0004L44.0884 9.488ZM54.8736 14.128C53.9669 14.128 53.1509 13.9413 52.4256 13.568C51.7109 13.184 51.1509 12.656 50.7456 11.984C50.3403 11.312 50.1376 10.5493 50.1376 9.696C50.1376 8.84267 50.3403 8.08 50.7456 7.408C51.1509 6.736 51.7109 6.21333 52.4256 5.84C53.1509 5.456 53.9669 5.264 54.8736 5.264C55.7803 5.264 56.5909 5.456 57.3056 5.84C58.0203 6.21333 58.5803 6.736 58.9856 7.408C59.3909 8.08 59.5936 8.84267 59.5936 9.696C59.5936 10.5493 59.3909 11.312 58.9856 11.984C58.5803 12.656 58.0203 13.184 57.3056 13.568C56.5909 13.9413 55.7803 14.128 54.8736 14.128ZM54.8736 12.08C55.5136 12.08 56.0363 11.8667 56.4416 11.44C56.8576 11.0027 57.0656 10.4213 57.0656 9.696C57.0656 8.97067 56.8576 8.39467 56.4416 7.968C56.0363 7.53067 55.5136 7.312 54.8736 7.312C54.2336 7.312 53.7056 7.53067 53.2896 7.968C52.8736 8.39467 52.6656 8.97067 52.6656 9.696C52.6656 10.4213 52.8736 11.0027 53.2896 11.44C53.7056 11.8667 54.2336 12.08 54.8736 12.08ZM61.3104 5.392H63.7904V8.752H67.5344V5.392H70.0304V14H67.5344V10.784H63.7904V14H61.3104V5.392ZM79.6517 7.44H76.7397V14H74.2597V7.44H71.3477V5.392H79.6517V7.44ZM84.3262 5.264C85.6596 5.264 86.6836 5.584 87.3982 6.224C88.1129 6.85333 88.4702 7.808 88.4702 9.088V14H86.1342V12.928C85.6649 13.728 84.7902 14.128 83.5102 14.128C82.8489 14.128 82.2729 14.016 81.7822 13.792C81.3022 13.568 80.9342 13.2587 80.6782 12.864C80.4222 12.4693 80.2942 12.0213 80.2942 11.52C80.2942 10.72 80.5929 10.0907 81.1902 9.632C81.7982 9.17333 82.7316 8.944 83.9902 8.944H85.9742C85.9742 8.4 85.8089 7.984 85.4782 7.696C85.1476 7.39733 84.6516 7.248 83.9902 7.248C83.5316 7.248 83.0782 7.32267 82.6302 7.472C82.1929 7.61067 81.8196 7.80267 81.5102 8.048L80.6142 6.304C81.0836 5.97333 81.6436 5.71733 82.2942 5.536C82.9556 5.35467 83.6329 5.264 84.3262 5.264ZM84.1342 12.448C84.5609 12.448 84.9396 12.352 85.2702 12.16C85.6009 11.9573 85.8356 11.664 85.9742 11.28V10.4H84.2622C83.2382 10.4 82.7262 10.736 82.7262 11.408C82.7262 11.728 82.8489 11.984 83.0942 12.176C83.3502 12.3573 83.6969 12.448 84.1342 12.448ZM94.4305 10.736H93.1345V14H90.6385V5.392H93.1345V8.736H94.4785L96.8145 5.392H99.4705L96.4625 9.52L99.6785 14H96.7345L94.4305 10.736ZM108.058 7.44H105.146V14H102.666V7.44H99.754V5.392H108.058V7.44ZM117.397 9.728C117.397 9.76 117.381 9.984 117.349 10.4H110.837C110.954 10.9333 111.232 11.3547 111.669 11.664C112.106 11.9733 112.65 12.128 113.301 12.128C113.749 12.128 114.144 12.064 114.485 11.936C114.837 11.7973 115.162 11.584 115.461 11.296L116.789 12.736C115.978 13.664 114.794 14.128 113.237 14.128C112.266 14.128 111.408 13.9413 110.661 13.568C109.914 13.184 109.338 12.656 108.933 11.984C108.528 11.312 108.325 10.5493 108.325 9.696C108.325 8.85333 108.522 8.096 108.917 7.424C109.322 6.74133 109.872 6.21333 110.565 5.84C111.269 5.456 112.053 5.264 112.917 5.264C113.76 5.264 114.522 5.44533 115.205 5.808C115.888 6.17067 116.421 6.69333 116.805 7.376C117.2 8.048 117.397 8.832 117.397 9.728ZM112.933 7.152C112.368 7.152 111.893 7.312 111.509 7.632C111.125 7.952 110.89 8.38933 110.805 8.944H115.045C114.96 8.4 114.725 7.968 114.341 7.648C113.957 7.31733 113.488 7.152 112.933 7.152Z" fill="#272727"/>
</svg>
