<svg width="100" height="21" viewBox="0 0 100 21" fill="none" xmlns="http://www.w3.org/2000/svg">
<path d="M36.618 12.6689H36.5872L34.6795 5H32.3807L30.4414 12.5752H30.4103L28.6432 5H26.1885L29.1438 16.129H31.6304L33.4908 8.55366H33.5221L35.4142 16.129H37.8537L40.8561 5H38.4481L36.618 12.6689V12.6689ZM48.3458 8.7639C48.1271 8.47806 47.8272 8.25502 47.4473 8.09348C47.0663 7.93336 46.5789 7.85279 45.9851 7.85279C45.5679 7.85279 45.1407 7.959 44.7023 8.1724C44.2647 8.38482 43.9049 8.72556 43.6236 9.19344H43.5766V5H41.3562V16.129H43.5766V11.905C43.5766 11.0842 43.712 10.4948 43.9833 10.1357C44.2541 9.77763 44.6919 9.59816 45.2969 9.59816C45.8283 9.59816 46.1984 9.76176 46.407 10.0895C46.6155 10.4165 46.7197 10.9129 46.7197 11.5776V16.129H48.9404V11.1725C48.9404 10.674 48.8956 10.2196 48.8074 9.80827C48.7186 9.39858 48.5649 9.05014 48.3458 8.7639V8.7639ZM57.4935 14.3365V10.144C57.4935 9.65487 57.3846 9.26298 57.1649 8.96723C56.9465 8.67079 56.6649 8.43988 56.3213 8.27351C55.9767 8.1073 55.596 7.99543 55.1791 7.93843C54.7624 7.88133 54.3504 7.85279 53.9441 7.85279C53.4962 7.85279 53.0499 7.89667 52.6075 7.9852C52.1634 8.07347 51.7655 8.22177 51.4108 8.42925C51.0563 8.63699 50.7636 8.91273 50.5356 9.25525C50.3055 9.59816 50.1753 10.0295 50.1442 10.5492H52.3644C52.4061 10.1125 52.5527 9.80054 52.803 9.61373C53.053 9.42656 53.3966 9.33361 53.8349 9.33361C54.0327 9.33361 54.2174 9.34658 54.3899 9.37238C54.5615 9.39858 54.7129 9.44972 54.8434 9.52809C54.9738 9.60602 55.078 9.71486 55.1559 9.85556C55.234 9.9957 55.2732 10.1858 55.2732 10.4242C55.2836 10.6535 55.2154 10.8264 55.0702 10.9461C54.9238 11.0662 54.7261 11.1574 54.4758 11.219C54.2255 11.2819 53.9388 11.3288 53.6155 11.359C53.2921 11.3908 52.964 11.4332 52.6308 11.4844C52.2968 11.5365 51.9657 11.6066 51.638 11.6949C51.3096 11.7827 51.0169 11.9158 50.7618 12.0917C50.5062 12.2692 50.2979 12.5053 50.1358 12.8016C49.9746 13.0979 49.8939 13.4749 49.8939 13.9316C49.8939 14.3471 49.9642 14.7056 50.105 15.0066C50.2456 15.3088 50.441 15.5572 50.6915 15.7549C50.9418 15.9525 51.2335 16.0981 51.567 16.1919C51.9002 16.2852 52.2601 16.3321 52.6462 16.3321C53.1466 16.3321 53.6367 16.2591 54.1155 16.1143C54.5954 15.9678 55.0127 15.7141 55.3672 15.3498C55.3775 15.4848 55.3958 15.6178 55.4215 15.7473C55.4476 15.8768 55.4817 16.0047 55.5234 16.129H57.7754C57.6713 15.9636 57.5977 15.7141 57.5565 15.381C57.5143 15.0486 57.4935 14.7012 57.4935 14.3365V14.3365ZM55.2732 13.0111C55.2732 13.1368 55.2605 13.303 55.234 13.5105C55.2082 13.7189 55.1377 13.9233 55.0231 14.1261C54.9084 14.3286 54.7306 14.5034 54.4915 14.6482C54.2518 14.7942 53.9131 14.8668 53.4747 14.8668C53.2979 14.8668 53.1255 14.8513 52.9589 14.8194C52.7918 14.7888 52.6462 14.7337 52.5211 14.6561C52.3962 14.5781 52.2968 14.4716 52.2238 14.3365C52.1513 14.2014 52.1144 14.0357 52.1144 13.8384C52.1144 13.6306 52.1513 13.458 52.2238 13.3237C52.2968 13.1892 52.3934 13.077 52.5135 12.9885C52.6328 12.9002 52.7739 12.8301 52.9354 12.7777C53.097 12.726 53.2608 12.6845 53.4282 12.6533C53.6049 12.6227 53.7826 12.5959 53.9593 12.5752C54.1373 12.555 54.3064 12.5282 54.4677 12.4976C54.6297 12.4664 54.7804 12.4269 54.9215 12.3802C55.0623 12.3334 55.1791 12.2692 55.2732 12.1857V13.0111V13.0111ZM61.6376 5.65482H59.4167V8.07048H58.0725V9.551H59.4167V14.3053C59.4167 14.7111 59.4852 15.0381 59.6202 15.2873C59.756 15.5363 59.9407 15.7297 60.1751 15.8644C60.4097 15.9995 60.6809 16.0901 60.9886 16.1369C61.2953 16.1834 61.6225 16.207 61.9657 16.207C62.1855 16.207 62.4089 16.2013 62.6387 16.1919C62.8675 16.1813 63.0758 16.161 63.2639 16.129V14.4143C63.1593 14.4354 63.05 14.4517 62.935 14.461C62.8207 14.4716 62.7006 14.4772 62.5755 14.4772C62.2006 14.4772 61.9501 14.4143 61.8247 14.2897C61.7002 14.1653 61.6376 13.9157 61.6376 13.5414V9.551H63.2639V8.07048H61.6376V5.65482ZM70.816 12.5988C70.6702 12.3443 70.4773 12.1312 70.2376 11.9593C69.9979 11.7884 69.7236 11.6503 69.4168 11.5459C69.1088 11.4426 68.7935 11.355 68.4702 11.2819C68.1577 11.2089 67.8506 11.1413 67.5483 11.0788C67.2459 11.0162 66.9769 10.9461 66.7422 10.8687C66.5079 10.7905 66.3183 10.6899 66.1722 10.5642C66.0258 10.4398 65.9535 10.279 65.9535 10.0812C65.9535 9.91504 65.9942 9.7826 66.0781 9.6837C66.1618 9.58549 66.2634 9.50989 66.3833 9.45746C66.5034 9.40589 66.6353 9.37238 66.7817 9.35622C66.9276 9.34089 67.0636 9.33361 67.1883 9.33361C67.5847 9.33361 67.9287 9.40865 68.2212 9.55929C68.5122 9.7099 68.6742 9.99834 68.705 10.4242H70.816C70.7743 9.92567 70.6469 9.51279 70.433 9.18462C70.2196 8.8577 69.9507 8.59519 69.6278 8.39805C69.3052 8.20054 68.9374 8.06054 68.5251 7.9772C68.1133 7.8939 67.6888 7.85279 67.2517 7.85279C66.813 7.85279 66.3853 7.89182 65.9694 7.9689C65.5515 8.0473 65.1764 8.18287 64.8432 8.37478C64.5092 8.56692 64.2413 8.82887 64.0375 9.16175C63.8339 9.49416 63.7324 9.92066 63.7324 10.4398C63.7324 10.7931 63.8059 11.0925 63.9521 11.3363C64.0967 11.5809 64.2906 11.7827 64.5294 11.944C64.7699 12.105 65.0437 12.2353 65.351 12.3334C65.6585 12.4332 65.974 12.5183 66.2966 12.5912C67.0896 12.7577 67.7075 12.9234 68.1502 13.0903C68.5933 13.2562 68.8148 13.5055 68.8148 13.8384C68.8148 14.0357 68.7683 14.1985 68.6742 14.3286C68.5802 14.4593 68.4632 14.5625 68.3226 14.6405C68.181 14.7188 68.0245 14.7762 67.8533 14.8118C67.6812 14.8485 67.5166 14.8668 67.3604 14.8668C67.1415 14.8668 66.9303 14.8406 66.7276 14.7888C66.5239 14.7368 66.3441 14.6561 66.1879 14.547C66.0316 14.438 65.9032 14.298 65.8044 14.1261C65.706 13.9545 65.6554 13.7501 65.6554 13.5105H63.5448C63.566 14.0508 63.6881 14.5005 63.9129 14.8588C64.136 15.2174 64.4226 15.5054 64.7724 15.724C65.1215 15.9419 65.5207 16.0981 65.9694 16.1919C66.4169 16.2852 66.8757 16.3321 67.3442 16.3321C67.8031 16.3321 68.2541 16.2875 68.6975 16.1999C69.1404 16.1114 69.534 15.958 69.8781 15.7393C70.2229 15.5215 70.5005 15.2332 70.7149 14.8744C70.928 14.5155 71.0347 14.0714 71.0347 13.5414C71.0347 13.1667 70.9619 12.8533 70.816 12.5988V12.5988ZM75.2257 5L71.0041 16.129H73.4748L74.35 13.6506H78.5257L79.3693 16.129H81.9188L77.744 5H75.2257ZM74.9916 11.8273L76.4458 7.74326H76.4769L77.8845 11.8273H74.9916ZM89.5963 9.16175C89.2945 8.7671 88.9135 8.44979 88.4547 8.21114C87.9958 7.97167 87.449 7.85279 86.8134 7.85279C86.3123 7.85279 85.854 7.951 85.4374 8.14854C85.0192 8.34621 84.6762 8.66319 84.4055 9.09964H84.3735V8.07048H82.2618V18.9508H84.4838V15.132H84.5139C84.7846 15.5272 85.1323 15.8256 85.5547 16.0275C85.9759 16.2302 86.4375 16.3321 86.9381 16.3321C87.5327 16.3321 88.0509 16.2169 88.4938 15.9889C88.937 15.7606 89.3071 15.4537 89.6042 15.069C89.9017 14.6843 90.1222 14.2432 90.2693 13.7444C90.4141 13.2454 90.488 12.726 90.488 12.1857C90.488 11.6142 90.4141 11.0662 90.2693 10.541C90.1222 10.0168 89.8987 9.55666 89.5963 9.16175V9.16175ZM88.174 13.074C88.1108 13.386 88.0037 13.6582 87.853 13.8921C87.7018 14.1261 87.5036 14.3165 87.2578 14.461C87.0137 14.6067 86.7083 14.6799 86.3437 14.6799C85.9888 14.6799 85.6877 14.6067 85.4374 14.461C85.1868 14.3165 84.9864 14.1261 84.835 13.8921C84.6838 13.6582 84.5745 13.386 84.5066 13.074C84.4386 12.7627 84.4055 12.4453 84.4055 12.1241C84.4055 11.7905 84.4358 11.4685 84.4983 11.1574C84.5616 10.8456 84.6678 10.5704 84.8195 10.3303C84.9697 10.0919 85.1684 9.8971 85.4141 9.74676C85.6586 9.59612 85.9627 9.51983 86.3283 9.51983C86.6822 9.51983 86.983 9.59612 87.2273 9.74676C87.4722 9.8971 87.6735 10.0939 87.8294 10.3385C87.9854 10.5828 88.0974 10.8612 88.1654 11.1725C88.2337 11.4844 88.2666 11.8016 88.2666 12.1241C88.2666 12.4453 88.2363 12.7627 88.174 13.074V13.074ZM99.1193 10.541C98.9732 10.0168 98.7492 9.55666 98.4466 9.16175C98.1443 8.7671 97.7645 8.44979 97.3057 8.21114C96.8466 7.97167 96.2988 7.85279 95.6629 7.85279C95.1632 7.85279 94.7041 7.951 94.2875 8.14854C93.8703 8.34621 93.5263 8.66319 93.2552 9.09964H93.2247V8.07048H91.1132V18.9508H93.3333V15.132H93.3647C93.6357 15.5272 93.9831 15.8256 94.4047 16.0275C94.8267 16.2302 95.2886 16.3321 95.7891 16.3321C96.3827 16.3321 96.9012 16.2169 97.3449 15.9889C97.7873 15.7606 98.1582 15.4537 98.4547 15.069C98.7525 14.6843 98.9732 14.2432 99.1193 13.7444C99.2659 13.2454 99.3385 12.726 99.3385 12.1857C99.3385 11.6142 99.2659 11.0662 99.1193 10.541V10.541ZM97.0238 13.074C96.9616 13.386 96.8547 13.6582 96.7037 13.8921C96.552 14.1261 96.3539 14.3165 96.1089 14.461C95.8644 14.6067 95.5593 14.6799 95.1945 14.6799C94.8398 14.6799 94.5375 14.6067 94.2875 14.461C94.0369 14.3165 93.8367 14.1261 93.685 13.8921C93.5346 13.6582 93.4246 13.386 93.3566 13.074C93.2889 12.7627 93.2552 12.4453 93.2552 12.1241C93.2552 11.7905 93.2871 11.4685 93.3493 11.1574C93.4117 10.8456 93.5189 10.5704 93.6698 10.3303C93.8207 10.0919 94.0192 9.8971 94.2642 9.74676C94.5084 9.59612 94.8135 9.51983 95.1788 9.51983C95.5332 9.51983 95.8326 9.59612 96.0773 9.74676C96.323 9.8971 96.5231 10.0939 96.6797 10.3385C96.8367 10.5828 96.9487 10.8612 97.0162 11.1725C97.0847 11.4844 97.1179 11.8016 97.1179 12.1241C97.1179 12.4453 97.0863 12.7627 97.0238 13.074V13.074Z" fill="#455963"/>
<path d="M0 20.8299L1.46994 15.4813C0.563283 13.916 0.0863145 12.1403 0.0869716 10.3211C0.0892713 4.63009 4.73713 0 10.4484 0C13.22 0.00119048 15.8214 1.07613 17.7778 3.027C19.7339 4.97801 20.8107 7.57137 20.8098 10.3295C20.8074 16.0202 16.1588 20.6511 10.4484 20.6511C10.448 20.6511 10.4487 20.6511 10.4484 20.6511H10.444C8.71 20.6505 7.00608 20.2171 5.49272 19.3946L0 20.8299V20.8299ZM5.74718 17.526L6.06183 17.7119C7.38381 18.4936 8.89947 18.9071 10.4451 18.9079H10.4484C15.195 18.9079 19.0583 15.0591 19.0603 10.3288C19.061 8.03634 18.1662 5.88081 16.5402 4.25932C14.9141 2.63783 12.7521 1.74429 10.4517 1.74337C5.70134 1.74337 1.83822 5.59161 1.83634 10.3218C1.83569 11.9427 2.29082 13.5213 3.15295 14.8874L3.35795 15.2119L2.4877 18.3776L5.74718 17.526V17.526Z" fill="white"/>
<path d="M0.361328 20.4701L1.78044 15.3066C0.904928 13.7955 0.444536 12.081 0.445074 10.3251C0.447374 4.83109 4.93446 0.361328 10.4477 0.361328C13.1235 0.362519 15.635 1.40026 17.5232 3.28365C19.4119 5.16704 20.4514 7.6705 20.4503 10.3329C20.448 15.8271 15.9606 20.2973 10.4481 20.2973C10.4477 20.2973 10.4484 20.2973 10.4481 20.2973H10.4436C8.76965 20.2967 7.12481 19.878 5.66389 19.0846L0.361328 20.4701V20.4701Z" fill="url(#paint0_linear)"/>
<path d="M0 20.8299L1.46994 15.4813C0.563283 13.916 0.0863145 12.1403 0.0869716 10.3211C0.0892713 4.63009 4.73713 0 10.4484 0C13.22 0.00119048 15.8214 1.07613 17.7778 3.027C19.7339 4.97801 20.8107 7.57137 20.8098 10.3295C20.8074 16.0202 16.1588 20.6511 10.4484 20.6511C10.448 20.6511 10.4487 20.6511 10.4484 20.6511H10.444C8.71 20.6505 7.00608 20.2171 5.49272 19.3946L0 20.8299V20.8299ZM5.74718 17.526L6.06183 17.7119C7.38381 18.4936 8.89947 18.9071 10.4451 18.9079H10.4484C15.195 18.9079 19.0583 15.0591 19.0603 10.3288C19.061 8.03634 18.1662 5.88081 16.5402 4.25932C14.9141 2.63783 12.7521 1.74429 10.4517 1.74337C5.70134 1.74337 1.83822 5.59161 1.83634 10.3218C1.83569 11.9427 2.29082 13.5213 3.15295 14.8874L3.35795 15.2119L2.4877 18.3776L5.74718 17.526V17.526Z" fill="url(#paint1_linear)"/>
<path fill-rule="evenodd" clip-rule="evenodd" d="M7.85892 6.00553C7.66496 5.57592 7.4608 5.56731 7.27631 5.55978C7.12542 5.55333 6.95268 5.55372 6.78017 5.55372C6.60757 5.55372 6.32706 5.61836 6.08983 5.87651C5.85249 6.13466 5.18359 6.75874 5.18359 8.02803C5.18359 9.2974 6.11143 10.524 6.24075 10.6962C6.37022 10.8682 8.03178 13.5562 10.6633 14.5903C12.8502 15.4497 13.2952 15.2787 13.7699 15.2357C14.2446 15.1927 15.3016 14.6118 15.5174 14.0093C15.7332 13.407 15.7332 12.8907 15.6685 12.7828C15.6037 12.6753 15.4311 12.6108 15.1722 12.4818C14.9133 12.3528 13.6405 11.7285 13.4032 11.6425C13.1658 11.5565 12.9932 11.5135 12.8205 11.7718C12.6479 12.0298 12.1521 12.6108 12.001 12.7828C11.85 12.9552 11.6989 12.9767 11.44 12.8477C11.1811 12.7183 10.3473 12.4462 9.3581 11.5673C8.58847 10.8835 8.06888 10.0391 7.91784 9.7808C7.76681 9.52279 7.90166 9.38303 8.03152 9.25443C8.14776 9.13883 8.29046 8.95327 8.4199 8.80261C8.5491 8.65196 8.59226 8.54446 8.67857 8.37244C8.76486 8.20017 8.72173 8.04952 8.65698 7.9205C8.59226 7.79151 8.0891 6.51565 7.85892 6.00553V6.00553Z" fill="white"/>
<defs>
<linearGradient id="paint0_linear" x1="10.4058" y1="20.4701" x2="10.4058" y2="0.361328" gradientUnits="userSpaceOnUse">
<stop stop-color="#1FB038"/>
<stop offset="1" stop-color="#5FD66A"/>
</linearGradient>
<linearGradient id="paint1_linear" x1="10.4049" y1="20.8299" x2="10.4049" y2="2.97974e-05" gradientUnits="userSpaceOnUse">
<stop stop-color="#F8F8F8"/>
<stop offset="1" stop-color="white"/>
</linearGradient>
</defs>
</svg>
