<svg width="54" height="38" viewBox="0 0 54 38" fill="none" xmlns="http://www.w3.org/2000/svg">
<g clip-path="url(#clip0)">
<path d="M52.8072 5.92694C52.4974 4.78136 51.8932 3.73697 51.0548 2.89777C50.2163 2.05857 49.1728 1.45384 48.0282 1.1438C43.8377 0 26.9724 0 26.9724 0C26.9724 0 10.1062 0.0346221 5.91575 1.17842C4.7711 1.48848 3.72758 2.09324 2.8891 2.93248C2.05062 3.77172 1.44645 4.81616 1.13675 5.96178C-0.130774 13.4136 -0.622469 24.7684 1.17155 31.9221C1.48129 33.0677 2.08548 34.1121 2.92395 34.9513C3.76242 35.7905 4.80593 36.3952 5.95055 36.7053C10.141 37.8491 27.0068 37.8491 27.0068 37.8491C27.0068 37.8491 43.8723 37.8491 48.0625 36.7053C49.2072 36.3952 50.2508 35.7905 51.0893 34.9513C51.9278 34.1121 52.532 33.0677 52.8418 31.9221C54.1787 24.4598 54.5906 13.1121 52.8072 5.92716V5.92694Z" fill="#FF0000"/>
<path d="M21.6042 27.0349L35.5955 18.9244L21.6045 10.814L21.6042 27.0349Z" fill="white"/>
</g>
<defs>
<clipPath id="clip0">
<rect width="54" height="38" fill="white"/>
</clipPath>
</defs>
</svg>
