<svg width="81" height="19" viewBox="0 0 81 19" fill="none" xmlns="http://www.w3.org/2000/svg">
<path d="M25.2926 2.8236C24.9955 1.71207 24.1204 0.83689 23.0088 0.539785C20.9941 -1.99908e-06 12.9161 0 12.9161 0C12.9161 0 4.83815 -1.99908e-06 2.82344 0.539785C1.71207 0.83689 0.836733 1.71207 0.539629 2.8236C0 4.83815 0 9.04143 0 9.04143C0 9.04143 0 13.2446 0.539629 15.259C0.836733 16.3705 1.71207 17.2458 2.82344 17.5429C4.83815 18.0826 12.9161 18.0826 12.9161 18.0826C12.9161 18.0826 20.9941 18.0826 23.0088 17.5429C24.1204 17.2458 24.9955 16.3705 25.2926 15.259C25.8326 13.2446 25.8326 9.04143 25.8326 9.04143C25.8326 9.04143 25.8326 4.83815 25.2926 2.8236V2.8236Z" fill="#ED1F24"/>
<path d="M10.333 12.9159L17.0443 9.04103L10.333 5.16602V12.9159Z" fill="white"/>
<path d="M40.3584 14.675C40.4998 14.3059 40.5709 13.7024 40.5709 12.8648V9.33628C40.5709 8.52359 40.4998 7.92938 40.3584 7.55365C40.2168 7.17824 39.9673 6.99029 39.6104 6.99029C39.2655 6.99029 39.0221 7.17824 38.8806 7.55365C38.739 7.92938 38.6682 8.52359 38.6682 9.33628V12.8648C38.6682 13.7024 38.7357 14.3059 38.8715 14.675C39.0067 15.0445 39.2529 15.2292 39.6104 15.2292C39.9673 15.2292 40.2168 15.0445 40.3584 14.675V14.675ZM37.4953 16.4486C36.9838 16.1042 36.6204 15.5682 36.4052 14.8413C36.1896 14.1149 36.082 13.148 36.082 11.9411V10.297C36.082 9.07778 36.205 8.0985 36.4514 7.35985C36.6976 6.62089 37.0823 6.08205 37.606 5.74334C38.1293 5.40479 38.8159 5.23535 39.6658 5.23535C40.5033 5.23535 41.1744 5.40779 41.6794 5.75267C42.1842 6.0974 42.5538 6.63639 42.7879 7.36887C43.0216 8.10198 43.1387 9.07778 43.1387 10.297V11.9411C43.1387 13.148 43.0247 14.1181 42.7969 14.8507C42.569 15.5837 42.1994 16.1192 41.6886 16.4578C41.1773 16.7965 40.4848 16.9658 39.6104 16.9658C38.711 16.9658 38.0059 16.7933 37.4953 16.4486V16.4486Z" fill="#272727"/>
<path d="M77.0555 7.20432C76.9265 7.36458 76.8399 7.62625 76.797 7.98932C76.7537 8.35272 76.7327 8.90389 76.7327 9.64286V10.4559H78.598V9.64286C78.598 8.91623 78.5733 8.36506 78.5243 7.98932C78.4749 7.61391 78.3859 7.34939 78.2566 7.19515C78.1271 7.04122 77.9269 6.96417 77.6561 6.96417C77.3849 6.96417 77.185 7.04438 77.0555 7.20432V7.20432ZM76.7327 11.9706V12.5433C76.7327 13.2701 76.7537 13.8148 76.797 14.178C76.8399 14.5414 76.9291 14.8064 77.0649 14.9727C77.2005 15.1388 77.4094 15.2222 77.6931 15.2222C78.0745 15.2222 78.3365 15.0741 78.4781 14.7786C78.6195 14.4831 78.6966 13.9906 78.7089 13.3007L80.9073 13.4301C80.9196 13.5289 80.9258 13.664 80.9258 13.8363C80.9258 14.8833 80.6396 15.6655 80.0668 16.1826C79.4944 16.6998 78.6842 16.9586 77.6376 16.9586C76.3815 16.9586 75.5007 16.5645 74.9959 15.776C74.4908 14.9882 74.2383 13.7689 74.2383 12.1184V10.1415C74.2383 8.4421 74.5001 7.20148 75.0236 6.41932C75.5469 5.63717 76.443 5.24609 77.7116 5.24609C78.5857 5.24609 79.2571 5.40619 79.7251 5.7264C80.1929 6.04691 80.5224 6.54557 80.7134 7.22283C80.9043 7.90026 80.9999 8.83634 80.9999 10.0308V11.9706H76.7327V11.9706Z" fill="#272727"/>
<path d="M31.288 11.7596L28.3877 1.28516H30.9185L31.9344 6.03266C32.1933 7.20304 32.3841 8.20051 32.5071 9.02538H32.5812C32.6672 8.43433 32.8582 7.44319 33.1537 6.05117L34.2067 1.28516H36.7376L33.8004 11.7596V16.7846H31.288V11.7596V11.7596Z" fill="#272727"/>
<path d="M51.3709 5.45801V16.7821H49.3758L49.154 15.3969H49.0987C48.5567 16.4437 47.7438 16.9669 46.6601 16.9669C45.909 16.9669 45.3548 16.7208 44.9976 16.2281C44.6404 15.7356 44.4619 14.9657 44.4619 13.919V5.45801H47.0112V13.7711C47.0112 14.2762 47.0667 14.6364 47.1775 14.8516C47.2884 15.0674 47.4731 15.1751 47.7316 15.1751C47.9534 15.1751 48.1659 15.1074 48.3689 14.9718C48.5722 14.8363 48.7229 14.6641 48.8217 14.4547V5.45801H51.3709V5.45801Z" fill="#272727"/>
<path d="M64.4471 5.45801V16.7821H62.452L62.2302 15.3969H62.1752C61.6327 16.4437 60.82 16.9669 59.7363 16.9669C58.985 16.9669 58.431 16.7208 58.0738 16.2281C57.7164 15.7356 57.5381 14.9657 57.5381 13.919V5.45801H60.0874V13.7711C60.0874 14.2762 60.1427 14.6364 60.2535 14.8516C60.3645 15.0674 60.5493 15.1751 60.8078 15.1751C61.0296 15.1751 61.2421 15.1074 61.4451 14.9718C61.6483 14.8363 61.7991 14.6641 61.8978 14.4547V5.45801H64.4471V5.45801Z" fill="#272727"/>
<path d="M58.2978 3.33578H55.7669V16.7844H53.273V3.33578H50.7422V1.28516H58.2978V3.33578Z" fill="#272727"/>
<path d="M70.5484 11.8891C70.5484 12.7144 70.5142 13.361 70.4467 13.8288C70.379 14.2971 70.265 14.6296 70.1049 14.8264C69.9448 15.0236 69.7289 15.122 69.4585 15.122C69.2488 15.122 69.0548 15.0728 68.8765 14.9742C68.6976 14.8756 68.5533 14.7279 68.4422 14.5307V8.10203C68.5285 7.79433 68.6762 7.54168 68.8857 7.34456C69.0951 7.14791 69.3226 7.04903 69.5691 7.04903C69.8278 7.04903 70.0277 7.15076 70.1695 7.35373C70.3109 7.55702 70.4096 7.89874 70.4652 8.37936C70.5205 8.8595 70.5484 9.54294 70.5484 10.4297V11.8891V11.8891ZM72.8852 7.27004C72.731 6.55592 72.4816 6.0386 72.1369 5.71808C71.792 5.39803 71.3177 5.23793 70.7145 5.23793C70.2465 5.23793 69.8093 5.37051 69.403 5.63518C68.9966 5.90001 68.6824 6.2479 68.4607 6.67884H68.4421L68.4422 0.711914H65.9854V16.7837H68.0912L68.35 15.7124H68.4052C68.6022 16.0941 68.8977 16.3958 69.2919 16.6176C69.686 16.8392 70.1235 16.9501 70.6038 16.9501C71.4656 16.9501 72.0999 16.5527 72.5065 15.7586C72.9129 14.9642 73.116 13.7236 73.116 12.0361V10.2444C73.116 8.97594 73.039 7.98449 72.8852 7.27004V7.27004Z" fill="#272727"/>
</svg>
